{"glyphs":{"0":{"ha":861,"x_min":104,"x_max":757,"o":"m 104 132 l 104 840 l 236 972 l 625 972 l 757 840 l 757 132 l 625 0 l 236 0 l 104 132 m 590 72 l 676 158 l 676 814 l 590 900 l 271 900 l 185 814 l 185 158 l 271 72 l 590 72 z "},"1":{"ha":486,"x_min":63,"x_max":361,"o":"m 281 894 l 63 781 l 63 854 l 281 972 l 361 972 l 361 0 l 281 0 l 281 894 z "},"2":{"ha":753,"x_min":76,"x_max":676,"o":"m 82 174 l 590 696 l 590 825 l 514 900 l 233 900 l 157 825 l 157 758 l 76 758 l 76 851 l 197 972 l 550 972 l 671 851 l 671 672 l 163 150 l 163 72 l 676 72 l 676 0 l 82 0 l 82 174 z "},"3":{"ha":793,"x_min":76,"x_max":696,"o":"m 76 121 l 76 215 l 157 215 l 157 149 l 233 72 l 539 72 l 615 149 l 615 379 l 540 453 l 271 453 l 271 525 l 542 525 l 615 599 l 615 825 l 539 900 l 242 900 l 165 825 l 165 758 l 85 758 l 85 851 l 206 972 l 575 972 l 696 851 l 696 576 l 607 489 l 696 400 l 696 121 l 575 0 l 197 0 l 76 121 z "},"4":{"ha":760,"x_min":42,"x_max":718,"o":"m 519 204 l 42 204 l 42 353 l 472 972 l 600 972 l 600 276 l 718 276 l 718 204 l 600 204 l 600 0 l 519 0 l 519 204 m 519 275 l 519 900 l 511 900 l 119 336 l 119 275 l 519 275 z "},"5":{"ha":797,"x_min":90,"x_max":707,"o":"m 90 121 l 90 214 l 171 214 l 171 149 l 247 72 l 550 72 l 626 149 l 626 444 l 550 519 l 104 519 l 104 972 l 688 972 l 688 901 l 183 901 l 183 592 l 585 592 l 707 469 l 707 121 l 586 0 l 211 0 l 90 121 z "},"6":{"ha":819,"x_min":104,"x_max":729,"o":"m 104 121 l 104 851 l 225 972 l 603 972 l 724 851 l 724 758 l 643 758 l 643 826 l 568 900 l 260 900 l 185 826 l 185 465 l 308 589 l 608 589 l 729 468 l 729 121 l 608 0 l 225 0 l 104 121 m 574 72 l 649 147 l 649 442 l 574 517 l 335 517 l 185 367 l 185 147 l 260 72 l 574 72 z "},"7":{"ha":681,"x_min":35,"x_max":618,"o":"m 538 840 l 538 900 l 35 900 l 35 972 l 618 972 l 618 833 l 242 0 l 158 0 l 538 840 z "},"8":{"ha":842,"x_min":97,"x_max":744,"o":"m 97 121 l 97 413 l 185 500 l 111 574 l 111 851 l 232 972 l 610 972 l 731 851 l 731 574 l 657 500 l 744 413 l 744 121 l 624 0 l 218 0 l 97 121 m 579 531 l 650 601 l 650 825 l 575 900 l 267 900 l 192 825 l 192 601 l 263 531 l 579 531 m 589 72 l 664 147 l 664 386 l 589 460 l 253 460 l 178 386 l 178 147 l 253 72 l 589 72 z "},"9":{"ha":826,"x_min":97,"x_max":722,"o":"m 111 121 l 111 221 l 192 221 l 192 147 l 267 72 l 567 72 l 642 147 l 642 490 l 531 379 l 218 379 l 97 500 l 97 851 l 218 972 l 601 972 l 722 851 l 722 121 l 601 0 l 232 0 l 111 121 m 507 451 l 642 586 l 642 825 l 567 900 l 253 900 l 178 825 l 178 526 l 253 451 l 507 451 z "},"\u0000":{"ha":0,"x_min":0,"x_max":0,"o":""},"\r":{"ha":328,"x_min":0,"x_max":0,"o":""}," ":{"ha":328,"x_min":0,"x_max":0,"o":""},"A":{"ha":840,"x_min":35,"x_max":806,"o":"m 372 972 l 468 972 l 806 0 l 722 0 l 628 278 l 213 278 l 118 0 l 35 0 l 372 972 m 604 349 l 422 885 l 418 885 l 238 349 l 604 349 z "},"Á":{"ha":840,"x_min":35,"x_max":806,"o":"m 372 972 l 468 972 l 806 0 l 722 0 l 628 278 l 213 278 l 118 0 l 35 0 l 372 972 m 604 349 l 422 885 l 418 885 l 238 349 l 604 349 m 492 1278 l 582 1278 l 461 1065 l 388 1065 l 492 1278 z "},"Ă":{"ha":840,"x_min":35,"x_max":806,"o":"m 372 972 l 468 972 l 806 0 l 722 0 l 628 278 l 213 278 l 118 0 l 35 0 l 372 972 m 604 349 l 422 885 l 418 885 l 238 349 l 604 349 m 242 1161 l 242 1238 l 308 1238 l 308 1182 l 365 1125 l 476 1125 l 533 1182 l 533 1238 l 600 1238 l 600 1161 l 506 1065 l 338 1065 l 242 1161 z "},"Ắ":{"ha":840,"x_min":35,"x_max":806,"o":"m 372 972 l 468 972 l 806 0 l 722 0 l 628 278 l 213 278 l 118 0 l 35 0 l 372 972 m 604 349 l 422 885 l 418 885 l 238 349 l 604 349 m 472 1429 l 556 1429 l 453 1254 l 386 1254 l 472 1429 m 242 1161 l 242 1238 l 308 1238 l 308 1182 l 365 1125 l 476 1125 l 533 1182 l 533 1238 l 600 1238 l 600 1161 l 506 1065 l 338 1065 l 242 1161 z "},"Ặ":{"ha":840,"x_min":35,"x_max":806,"o":"m 372 972 l 468 972 l 806 0 l 722 0 l 628 278 l 213 278 l 118 0 l 35 0 l 372 972 m 604 349 l 422 885 l 418 885 l 238 349 l 604 349 m 242 1161 l 242 1238 l 308 1238 l 308 1182 l 365 1125 l 476 1125 l 533 1182 l 533 1238 l 600 1238 l 600 1161 l 506 1065 l 338 1065 l 242 1161 z "},"Ằ":{"ha":840,"x_min":35,"x_max":806,"o":"m 372 972 l 468 972 l 806 0 l 722 0 l 628 278 l 213 278 l 118 0 l 35 0 l 372 972 m 604 349 l 422 885 l 418 885 l 238 349 l 604 349 m 292 1429 l 375 1429 l 461 1254 l 393 1254 l 292 1429 m 242 1161 l 242 1238 l 308 1238 l 308 1182 l 365 1125 l 476 1125 l 533 1182 l 533 1238 l 600 1238 l 600 1161 l 506 1065 l 338 1065 l 242 1161 z "},"Ẳ":{"ha":840,"x_min":35,"x_max":806,"o":"m 372 972 l 468 972 l 806 0 l 722 0 l 628 278 l 213 278 l 118 0 l 35 0 l 372 972 m 604 349 l 422 885 l 418 885 l 238 349 l 604 349 m 388 1290 l 479 1368 l 479 1397 l 457 1419 l 388 1419 l 361 1393 l 361 1365 l 300 1365 l 300 1414 l 361 1475 l 482 1475 l 543 1414 l 543 1350 l 454 1279 l 454 1243 l 388 1243 l 388 1290 m 242 1161 l 242 1238 l 308 1238 l 308 1182 l 365 1125 l 476 1125 l 533 1182 l 533 1238 l 600 1238 l 600 1161 l 506 1065 l 338 1065 l 242 1161 z "},"Ẵ":{"ha":840,"x_min":35,"x_max":806,"o":"m 372 972 l 468 972 l 806 0 l 722 0 l 628 278 l 213 278 l 118 0 l 35 0 l 372 972 m 604 349 l 422 885 l 418 885 l 238 349 l 604 349 m 367 1358 l 339 1358 l 311 1332 l 311 1301 l 249 1301 l 249 1349 l 313 1414 l 386 1414 l 472 1349 l 500 1349 l 526 1375 l 526 1407 l 589 1407 l 589 1358 l 525 1293 l 451 1293 l 367 1358 m 242 1161 l 242 1238 l 308 1238 l 308 1182 l 365 1125 l 476 1125 l 533 1182 l 533 1238 l 600 1238 l 600 1161 l 506 1065 l 338 1065 l 242 1161 z "},"Ǎ":{"ha":840,"x_min":35,"x_max":806,"o":"m 372 972 l 468 972 l 806 0 l 722 0 l 628 278 l 213 278 l 118 0 l 35 0 l 372 972 m 604 349 l 422 885 l 418 885 l 238 349 l 604 349 m 250 1250 l 326 1250 l 417 1119 l 425 1119 l 515 1250 l 592 1250 l 463 1065 l 379 1065 l 250 1250 z "},"Â":{"ha":840,"x_min":35,"x_max":806,"o":"m 372 972 l 468 972 l 806 0 l 722 0 l 628 278 l 213 278 l 118 0 l 35 0 l 372 972 m 604 349 l 422 885 l 418 885 l 238 349 l 604 349 m 379 1250 l 463 1250 l 592 1065 l 515 1065 l 425 1197 l 417 1197 l 326 1065 l 250 1065 l 379 1250 z "},"Ấ":{"ha":840,"x_min":35,"x_max":806,"o":"m 372 972 l 468 972 l 806 0 l 722 0 l 628 278 l 213 278 l 118 0 l 35 0 l 372 972 m 604 349 l 422 885 l 418 885 l 238 349 l 604 349 m 631 1415 l 714 1415 l 611 1240 l 544 1240 l 631 1415 m 379 1250 l 463 1250 l 592 1065 l 515 1065 l 425 1197 l 417 1197 l 326 1065 l 250 1065 l 379 1250 z "},"Ậ":{"ha":840,"x_min":35,"x_max":806,"o":"m 372 972 l 468 972 l 806 0 l 722 0 l 628 278 l 213 278 l 118 0 l 35 0 l 372 972 m 604 349 l 422 885 l 418 885 l 238 349 l 604 349 m 379 1250 l 463 1250 l 592 1065 l 515 1065 l 425 1197 l 417 1197 l 326 1065 l 250 1065 l 379 1250 z "},"Ầ":{"ha":840,"x_min":35,"x_max":806,"o":"m 372 972 l 468 972 l 806 0 l 722 0 l 628 278 l 213 278 l 118 0 l 35 0 l 372 972 m 604 349 l 422 885 l 418 885 l 238 349 l 604 349 m 482 1415 l 565 1415 l 650 1240 l 583 1240 l 482 1415 m 379 1250 l 463 1250 l 592 1065 l 515 1065 l 425 1197 l 417 1197 l 326 1065 l 250 1065 l 379 1250 z "},"Ẩ":{"ha":840,"x_min":35,"x_max":806,"o":"m 372 972 l 468 972 l 806 0 l 722 0 l 628 278 l 213 278 l 118 0 l 35 0 l 372 972 m 604 349 l 422 885 l 418 885 l 238 349 l 604 349 m 561 1261 l 650 1338 l 650 1367 l 628 1389 l 561 1389 l 535 1364 l 535 1335 l 474 1335 l 474 1385 l 535 1446 l 653 1446 l 714 1385 l 714 1321 l 628 1250 l 628 1214 l 561 1214 l 561 1261 m 379 1250 l 463 1250 l 592 1065 l 515 1065 l 425 1197 l 417 1197 l 326 1065 l 250 1065 l 379 1250 z "},"Ẫ":{"ha":840,"x_min":35,"x_max":806,"o":"m 372 972 l 468 972 l 806 0 l 722 0 l 628 278 l 213 278 l 118 0 l 35 0 l 372 972 m 604 349 l 422 885 l 418 885 l 238 349 l 604 349 m 368 1365 l 340 1365 l 313 1339 l 313 1308 l 250 1308 l 250 1356 l 314 1421 l 388 1421 l 474 1356 l 501 1356 l 528 1382 l 528 1414 l 590 1414 l 590 1365 l 526 1300 l 453 1300 l 368 1365 m 379 1250 l 463 1250 l 592 1065 l 515 1065 l 425 1197 l 417 1197 l 326 1065 l 250 1065 l 379 1250 z "},"Ä":{"ha":840,"x_min":35,"x_max":806,"o":"m 372 972 l 468 972 l 806 0 l 722 0 l 628 278 l 213 278 l 118 0 l 35 0 l 372 972 m 604 349 l 422 885 l 418 885 l 238 349 l 604 349 m 231 1118 l 231 1168 l 264 1200 l 314 1200 l 344 1168 l 344 1118 l 314 1086 l 264 1086 l 231 1118 m 497 1118 l 497 1168 l 528 1200 l 578 1200 l 611 1168 l 611 1118 l 578 1086 l 528 1086 l 497 1118 z "},"Ạ":{"ha":840,"x_min":35,"x_max":806,"o":"m 372 972 l 468 972 l 806 0 l 722 0 l 628 278 l 213 278 l 118 0 l 35 0 l 372 972 m 604 349 l 422 885 l 418 885 l 238 349 l 604 349 z "},"À":{"ha":840,"x_min":35,"x_max":806,"o":"m 372 972 l 468 972 l 806 0 l 722 0 l 628 278 l 213 278 l 118 0 l 35 0 l 372 972 m 604 349 l 422 885 l 418 885 l 238 349 l 604 349 m 258 1278 l 350 1278 l 454 1065 l 379 1065 l 258 1278 z "},"Ả":{"ha":840,"x_min":35,"x_max":806,"o":"m 372 972 l 468 972 l 806 0 l 722 0 l 628 278 l 213 278 l 118 0 l 35 0 l 372 972 m 604 349 l 422 885 l 418 885 l 238 349 l 604 349 m 386 1114 l 485 1215 l 485 1253 l 461 1276 l 381 1276 l 353 1249 l 353 1221 l 289 1221 l 289 1271 l 353 1335 l 489 1335 l 553 1271 l 553 1203 l 457 1103 l 457 1065 l 386 1065 l 386 1114 z "},"Ā":{"ha":840,"x_min":35,"x_max":806,"o":"m 372 972 l 468 972 l 806 0 l 722 0 l 628 278 l 213 278 l 118 0 l 35 0 l 372 972 m 604 349 l 422 885 l 418 885 l 238 349 l 604 349 m 240 1154 l 604 1154 l 604 1090 l 240 1090 l 240 1154 z "},"Ą":{"ha":840,"x_min":35,"x_max":860,"o":"m 372 972 l 468 972 l 806 0 l 722 0 l 628 278 l 213 278 l 118 0 l 35 0 l 372 972 m 604 349 l 422 885 l 418 885 l 238 349 l 604 349 m 658 -176 l 658 -85 l 733 0 l 806 0 l 729 -96 l 729 -156 l 767 -193 l 860 -193 l 860 -251 l 733 -251 l 658 -176 z "},"Å":{"ha":840,"x_min":35,"x_max":806,"o":"m 372 972 l 468 972 l 806 0 l 722 0 l 628 278 l 213 278 l 118 0 l 35 0 l 372 972 m 604 349 l 422 885 l 418 885 l 238 349 l 604 349 m 290 1126 l 290 1236 l 364 1310 l 478 1310 l 551 1236 l 551 1126 l 478 1051 l 364 1051 l 290 1126 m 456 1108 l 493 1146 l 493 1215 l 456 1253 l 386 1253 l 349 1215 l 349 1146 l 386 1108 l 456 1108 z "},"Ǻ":{"ha":840,"x_min":35,"x_max":806,"o":"m 372 972 l 468 972 l 806 0 l 722 0 l 628 278 l 213 278 l 118 0 l 35 0 l 372 972 m 604 349 l 422 885 l 418 885 l 238 349 l 604 349 m 290 1126 l 290 1236 l 364 1310 l 478 1310 l 551 1236 l 551 1126 l 478 1051 l 364 1051 l 290 1126 m 456 1108 l 493 1146 l 493 1215 l 456 1253 l 386 1253 l 349 1215 l 349 1146 l 386 1108 l 456 1108 m 492 1592 l 582 1592 l 461 1379 l 388 1379 l 492 1592 z "},"Ã":{"ha":840,"x_min":35,"x_max":806,"o":"m 372 972 l 468 972 l 806 0 l 722 0 l 628 278 l 213 278 l 118 0 l 35 0 l 372 972 m 604 349 l 422 885 l 418 885 l 238 349 l 604 349 m 365 1149 l 338 1149 l 310 1121 l 310 1088 l 244 1088 l 244 1139 l 311 1206 l 389 1206 l 478 1136 l 507 1136 l 535 1164 l 535 1199 l 599 1199 l 599 1146 l 532 1079 l 456 1079 l 365 1149 z "},"Æ":{"ha":1271,"x_min":28,"x_max":1194,"o":"m 697 900 l 697 524 l 1154 524 l 1154 451 l 697 451 l 697 72 l 1194 72 l 1194 0 l 617 0 l 617 268 l 229 268 l 113 0 l 28 0 l 457 972 l 1194 972 l 1194 900 l 697 900 m 617 340 l 617 900 l 506 900 l 261 340 l 617 340 z "},"Ǽ":{"ha":1271,"x_min":28,"x_max":1194,"o":"m 697 900 l 697 524 l 1154 524 l 1154 451 l 697 451 l 697 72 l 1194 72 l 1194 0 l 617 0 l 617 268 l 229 268 l 113 0 l 28 0 l 457 972 l 1194 972 l 1194 900 l 697 900 m 617 340 l 617 900 l 506 900 l 261 340 l 617 340 m 758 1278 l 849 1278 l 728 1065 l 654 1065 l 758 1278 z "},"B":{"ha":886,"x_min":118,"x_max":810,"o":"m 118 972 l 646 972 l 767 853 l 767 575 l 697 507 l 810 394 l 810 129 l 681 0 l 118 0 l 118 972 m 614 524 l 688 599 l 688 826 l 613 901 l 197 901 l 197 524 l 614 524 m 644 71 l 731 157 l 731 369 l 644 454 l 197 454 l 197 71 l 644 71 z "},"C":{"ha":865,"x_min":104,"x_max":796,"o":"m 104 146 l 104 826 l 250 972 l 656 972 l 796 832 l 796 758 l 715 758 l 715 807 l 621 900 l 286 900 l 185 800 l 185 174 l 286 72 l 621 72 l 715 165 l 715 214 l 796 214 l 796 140 l 656 0 l 250 0 l 104 146 z "},"Ć":{"ha":865,"x_min":104,"x_max":796,"o":"m 104 146 l 104 826 l 250 972 l 656 972 l 796 832 l 796 758 l 715 758 l 715 807 l 621 900 l 286 900 l 185 800 l 185 174 l 286 72 l 621 72 l 715 165 l 715 214 l 796 214 l 796 140 l 656 0 l 250 0 l 104 146 m 522 1278 l 613 1278 l 492 1065 l 418 1065 l 522 1278 z "},"Č":{"ha":865,"x_min":104,"x_max":796,"o":"m 104 146 l 104 826 l 250 972 l 656 972 l 796 832 l 796 758 l 715 758 l 715 807 l 621 900 l 286 900 l 185 800 l 185 174 l 286 72 l 621 72 l 715 165 l 715 214 l 796 214 l 796 140 l 656 0 l 250 0 l 104 146 m 281 1250 l 357 1250 l 447 1119 l 456 1119 l 546 1250 l 622 1250 l 493 1065 l 410 1065 l 281 1250 z "},"Ç":{"ha":865,"x_min":104,"x_max":796,"o":"m 715 758 l 715 807 l 621 900 l 286 900 l 185 800 l 185 174 l 286 72 l 621 72 l 715 165 l 715 214 l 796 214 l 796 140 l 656 0 l 476 0 l 444 -78 l 542 -78 l 608 -144 l 608 -243 l 540 -311 l 346 -311 l 346 -254 l 511 -254 l 542 -224 l 542 -167 l 511 -136 l 372 -136 l 372 -86 l 406 0 l 250 0 l 104 146 l 104 826 l 250 972 l 656 972 l 796 832 l 796 758 l 715 758 z "},"Ĉ":{"ha":865,"x_min":104,"x_max":796,"o":"m 104 146 l 104 826 l 250 972 l 656 972 l 796 832 l 796 758 l 715 758 l 715 807 l 621 900 l 286 900 l 185 800 l 185 174 l 286 72 l 621 72 l 715 165 l 715 214 l 796 214 l 796 140 l 656 0 l 250 0 l 104 146 m 410 1250 l 493 1250 l 622 1065 l 546 1065 l 456 1197 l 447 1197 l 357 1065 l 281 1065 l 410 1250 z "},"Ċ":{"ha":865,"x_min":104,"x_max":796,"o":"m 104 146 l 104 826 l 250 972 l 656 972 l 796 832 l 796 758 l 715 758 l 715 807 l 621 900 l 286 900 l 185 800 l 185 174 l 286 72 l 621 72 l 715 165 l 715 214 l 796 214 l 796 140 l 656 0 l 250 0 l 104 146 m 393 1114 l 393 1165 l 424 1197 l 476 1197 l 508 1165 l 508 1114 l 476 1082 l 424 1082 l 393 1114 z "},"D":{"ha":911,"x_min":118,"x_max":807,"o":"m 118 972 l 661 972 l 807 826 l 807 146 l 661 0 l 118 0 l 118 972 m 625 72 l 726 174 l 726 800 l 625 900 l 199 900 l 199 72 l 625 72 z "},"Ð":{"ha":967,"x_min":42,"x_max":863,"o":"m 863 826 l 863 146 l 717 0 l 174 0 l 174 451 l 42 451 l 42 522 l 174 522 l 174 972 l 717 972 l 863 826 m 782 800 l 681 900 l 254 900 l 254 522 l 494 522 l 494 451 l 254 451 l 254 72 l 681 72 l 782 174 l 782 800 z "},"Ď":{"ha":911,"x_min":118,"x_max":807,"o":"m 118 972 l 661 972 l 807 826 l 807 146 l 661 0 l 118 0 l 118 972 m 625 72 l 726 174 l 726 800 l 625 900 l 199 900 l 199 72 l 625 72 m 276 1250 l 353 1250 l 443 1119 l 451 1119 l 542 1250 l 618 1250 l 489 1065 l 406 1065 l 276 1250 z "},"Đ":{"ha":967,"x_min":42,"x_max":863,"o":"m 863 826 l 863 146 l 717 0 l 174 0 l 174 451 l 42 451 l 42 522 l 174 522 l 174 972 l 717 972 l 863 826 m 782 800 l 681 900 l 254 900 l 254 522 l 494 522 l 494 451 l 254 451 l 254 72 l 681 72 l 782 174 l 782 800 z "},"Ḍ":{"ha":911,"x_min":118,"x_max":807,"o":"m 118 972 l 661 972 l 807 826 l 807 146 l 661 0 l 118 0 l 118 972 m 625 72 l 726 174 l 726 800 l 625 900 l 199 900 l 199 72 l 625 72 z "},"Ḏ":{"ha":911,"x_min":118,"x_max":807,"o":"m 118 972 l 661 972 l 807 826 l 807 146 l 661 0 l 118 0 l 118 972 m 625 72 l 726 174 l 726 800 l 625 900 l 199 900 l 199 72 l 625 72 z "},"E":{"ha":797,"x_min":118,"x_max":721,"o":"m 118 972 l 721 972 l 721 900 l 199 900 l 199 525 l 681 525 l 681 453 l 199 453 l 199 72 l 721 72 l 721 0 l 118 0 l 118 972 z "},"É":{"ha":797,"x_min":118,"x_max":721,"o":"m 118 972 l 721 972 l 721 900 l 199 900 l 199 525 l 681 525 l 681 453 l 199 453 l 199 72 l 721 72 l 721 0 l 118 0 l 118 972 m 496 1278 l 586 1278 l 465 1065 l 392 1065 l 496 1278 z "},"Ĕ":{"ha":797,"x_min":118,"x_max":721,"o":"m 118 972 l 721 972 l 721 900 l 199 900 l 199 525 l 681 525 l 681 453 l 199 453 l 199 72 l 721 72 l 721 0 l 118 0 l 118 972 m 250 1161 l 250 1238 l 317 1238 l 317 1182 l 374 1125 l 485 1125 l 542 1182 l 542 1238 l 608 1238 l 608 1161 l 514 1065 l 346 1065 l 250 1161 z "},"Ě":{"ha":797,"x_min":118,"x_max":721,"o":"m 118 972 l 721 972 l 721 900 l 199 900 l 199 525 l 681 525 l 681 453 l 199 453 l 199 72 l 721 72 l 721 0 l 118 0 l 118 972 m 256 1250 l 332 1250 l 422 1119 l 431 1119 l 521 1250 l 597 1250 l 468 1065 l 385 1065 l 256 1250 z "},"Ê":{"ha":797,"x_min":118,"x_max":721,"o":"m 118 972 l 721 972 l 721 900 l 199 900 l 199 525 l 681 525 l 681 453 l 199 453 l 199 72 l 721 72 l 721 0 l 118 0 l 118 972 m 385 1250 l 468 1250 l 597 1065 l 521 1065 l 431 1197 l 422 1197 l 332 1065 l 256 1065 l 385 1250 z "},"Ế":{"ha":797,"x_min":118,"x_max":721,"o":"m 118 972 l 721 972 l 721 900 l 199 900 l 199 525 l 681 525 l 681 453 l 199 453 l 199 72 l 721 72 l 721 0 l 118 0 l 118 972 m 636 1415 l 719 1415 l 617 1240 l 550 1240 l 636 1415 m 385 1250 l 468 1250 l 597 1065 l 521 1065 l 431 1197 l 422 1197 l 332 1065 l 256 1065 l 385 1250 z "},"Ệ":{"ha":797,"x_min":118,"x_max":721,"o":"m 118 972 l 721 972 l 721 900 l 199 900 l 199 525 l 681 525 l 681 453 l 199 453 l 199 72 l 721 72 l 721 0 l 118 0 l 118 972 m 385 1250 l 468 1250 l 597 1065 l 521 1065 l 431 1197 l 422 1197 l 332 1065 l 256 1065 l 385 1250 z "},"Ề":{"ha":797,"x_min":118,"x_max":721,"o":"m 118 972 l 721 972 l 721 900 l 199 900 l 199 525 l 681 525 l 681 453 l 199 453 l 199 72 l 721 72 l 721 0 l 118 0 l 118 972 m 488 1415 l 571 1415 l 656 1240 l 589 1240 l 488 1415 m 385 1250 l 468 1250 l 597 1065 l 521 1065 l 431 1197 l 422 1197 l 332 1065 l 256 1065 l 385 1250 z "},"Ể":{"ha":797,"x_min":118,"x_max":721,"o":"m 118 972 l 721 972 l 721 900 l 199 900 l 199 525 l 681 525 l 681 453 l 199 453 l 199 72 l 721 72 l 721 0 l 118 0 l 118 972 m 567 1261 l 656 1338 l 656 1367 l 633 1389 l 567 1389 l 540 1364 l 540 1335 l 479 1335 l 479 1385 l 540 1446 l 658 1446 l 719 1385 l 719 1321 l 633 1250 l 633 1214 l 567 1214 l 567 1261 m 385 1250 l 468 1250 l 597 1065 l 521 1065 l 431 1197 l 422 1197 l 332 1065 l 256 1065 l 385 1250 z "},"Ễ":{"ha":797,"x_min":118,"x_max":721,"o":"m 118 972 l 721 972 l 721 900 l 199 900 l 199 525 l 681 525 l 681 453 l 199 453 l 199 72 l 721 72 l 721 0 l 118 0 l 118 972 m 374 1365 l 346 1365 l 318 1339 l 318 1308 l 256 1308 l 256 1356 l 319 1421 l 393 1421 l 479 1356 l 507 1356 l 533 1382 l 533 1414 l 596 1414 l 596 1365 l 532 1300 l 458 1300 l 374 1365 m 385 1250 l 468 1250 l 597 1065 l 521 1065 l 431 1197 l 422 1197 l 332 1065 l 256 1065 l 385 1250 z "},"Ë":{"ha":797,"x_min":118,"x_max":721,"o":"m 118 972 l 721 972 l 721 900 l 199 900 l 199 525 l 681 525 l 681 453 l 199 453 l 199 72 l 721 72 l 721 0 l 118 0 l 118 972 m 236 1118 l 236 1168 l 269 1200 l 319 1200 l 350 1168 l 350 1118 l 319 1086 l 269 1086 l 236 1118 m 503 1118 l 503 1168 l 533 1200 l 583 1200 l 617 1168 l 617 1118 l 583 1086 l 533 1086 l 503 1118 z "},"Ė":{"ha":797,"x_min":118,"x_max":721,"o":"m 118 972 l 721 972 l 721 900 l 199 900 l 199 525 l 681 525 l 681 453 l 199 453 l 199 72 l 721 72 l 721 0 l 118 0 l 118 972 m 368 1114 l 368 1165 l 399 1197 l 451 1197 l 483 1165 l 483 1114 l 451 1082 l 399 1082 l 368 1114 z "},"Ẹ":{"ha":797,"x_min":118,"x_max":721,"o":"m 118 972 l 721 972 l 721 900 l 199 900 l 199 525 l 681 525 l 681 453 l 199 453 l 199 72 l 721 72 l 721 0 l 118 0 l 118 972 z "},"È":{"ha":797,"x_min":118,"x_max":721,"o":"m 118 972 l 721 972 l 721 900 l 199 900 l 199 525 l 681 525 l 681 453 l 199 453 l 199 72 l 721 72 l 721 0 l 118 0 l 118 972 m 276 1278 l 368 1278 l 472 1065 l 397 1065 l 276 1278 z "},"Ẻ":{"ha":797,"x_min":118,"x_max":721,"o":"m 118 972 l 721 972 l 721 900 l 199 900 l 199 525 l 681 525 l 681 453 l 199 453 l 199 72 l 721 72 l 721 0 l 118 0 l 118 972 m 392 1114 l 490 1215 l 490 1253 l 467 1276 l 386 1276 l 358 1249 l 358 1221 l 294 1221 l 294 1271 l 358 1335 l 494 1335 l 558 1271 l 558 1203 l 463 1103 l 463 1065 l 392 1065 l 392 1114 z "},"Ē":{"ha":797,"x_min":118,"x_max":721,"o":"m 118 972 l 721 972 l 721 900 l 199 900 l 199 525 l 681 525 l 681 453 l 199 453 l 199 72 l 721 72 l 721 0 l 118 0 l 118 972 m 244 1154 l 608 1154 l 608 1090 l 244 1090 l 244 1154 z "},"Ę":{"ha":797,"x_min":118,"x_max":775,"o":"m 118 972 l 721 972 l 721 900 l 199 900 l 199 525 l 681 525 l 681 453 l 199 453 l 199 72 l 721 72 l 721 0 l 118 0 l 118 972 m 574 -176 l 574 -85 l 649 0 l 721 0 l 644 -96 l 644 -156 l 682 -193 l 775 -193 l 775 -251 l 649 -251 l 574 -176 z "},"Ẽ":{"ha":797,"x_min":118,"x_max":721,"o":"m 118 972 l 721 972 l 721 900 l 199 900 l 199 525 l 681 525 l 681 453 l 199 453 l 199 72 l 721 72 l 721 0 l 118 0 l 118 972 m 369 1149 l 342 1149 l 314 1121 l 314 1088 l 249 1088 l 249 1139 l 315 1206 l 393 1206 l 482 1136 l 511 1136 l 539 1164 l 539 1199 l 603 1199 l 603 1146 l 536 1079 l 460 1079 l 369 1149 z "},"F":{"ha":756,"x_min":118,"x_max":707,"o":"m 118 972 l 707 972 l 707 900 l 199 900 l 199 522 l 640 522 l 640 450 l 199 450 l 199 0 l 118 0 l 118 972 z "},"G":{"ha":894,"x_min":104,"x_max":804,"o":"m 104 146 l 104 826 l 250 972 l 664 972 l 804 832 l 804 758 l 724 758 l 724 807 l 629 900 l 286 900 l 185 800 l 185 174 l 286 72 l 624 72 l 724 172 l 724 425 l 500 425 l 500 497 l 804 497 l 804 146 l 658 0 l 250 0 l 104 146 z "},"Ğ":{"ha":894,"x_min":104,"x_max":804,"o":"m 104 146 l 104 826 l 250 972 l 664 972 l 804 832 l 804 758 l 724 758 l 724 807 l 629 900 l 286 900 l 185 800 l 185 174 l 286 72 l 624 72 l 724 172 l 724 425 l 500 425 l 500 497 l 804 497 l 804 146 l 658 0 l 250 0 l 104 146 m 275 1161 l 275 1238 l 342 1238 l 342 1182 l 399 1125 l 510 1125 l 567 1182 l 567 1238 l 633 1238 l 633 1161 l 539 1065 l 371 1065 l 275 1161 z "},"Ǧ":{"ha":894,"x_min":104,"x_max":804,"o":"m 104 146 l 104 826 l 250 972 l 664 972 l 804 832 l 804 758 l 724 758 l 724 807 l 629 900 l 286 900 l 185 800 l 185 174 l 286 72 l 624 72 l 724 172 l 724 425 l 500 425 l 500 497 l 804 497 l 804 146 l 658 0 l 250 0 l 104 146 m 283 1250 l 360 1250 l 450 1119 l 458 1119 l 549 1250 l 625 1250 l 496 1065 l 413 1065 l 283 1250 z "},"Ĝ":{"ha":894,"x_min":104,"x_max":804,"o":"m 104 146 l 104 826 l 250 972 l 664 972 l 804 832 l 804 758 l 724 758 l 724 807 l 629 900 l 286 900 l 185 800 l 185 174 l 286 72 l 624 72 l 724 172 l 724 425 l 500 425 l 500 497 l 804 497 l 804 146 l 658 0 l 250 0 l 104 146 m 413 1250 l 496 1250 l 625 1065 l 549 1065 l 458 1197 l 450 1197 l 360 1065 l 283 1065 l 413 1250 z "},"Ģ":{"ha":894,"x_min":104,"x_max":804,"o":"m 104 146 l 104 826 l 250 972 l 664 972 l 804 832 l 804 758 l 724 758 l 724 807 l 629 900 l 286 900 l 185 800 l 185 174 l 286 72 l 624 72 l 724 172 l 724 425 l 500 425 l 500 497 l 804 497 l 804 146 l 658 0 l 250 0 l 104 146 z "},"Ġ":{"ha":894,"x_min":104,"x_max":804,"o":"m 104 146 l 104 826 l 250 972 l 664 972 l 804 832 l 804 758 l 724 758 l 724 807 l 629 900 l 286 900 l 185 800 l 185 174 l 286 72 l 624 72 l 724 172 l 724 425 l 500 425 l 500 497 l 804 497 l 804 146 l 658 0 l 250 0 l 104 146 m 396 1114 l 396 1165 l 426 1197 l 479 1197 l 511 1165 l 511 1114 l 479 1082 l 426 1082 l 396 1114 z "},"Ḡ":{"ha":894,"x_min":104,"x_max":804,"o":"m 104 146 l 104 826 l 250 972 l 664 972 l 804 832 l 804 758 l 724 758 l 724 807 l 629 900 l 286 900 l 185 800 l 185 174 l 286 72 l 624 72 l 724 172 l 724 425 l 500 425 l 500 497 l 804 497 l 804 146 l 658 0 l 250 0 l 104 146 m 272 1154 l 636 1154 l 636 1090 l 272 1090 l 272 1154 z "},"H":{"ha":925,"x_min":118,"x_max":807,"o":"m 118 972 l 199 972 l 199 521 l 726 521 l 726 972 l 807 972 l 807 0 l 726 0 l 726 449 l 199 449 l 199 0 l 118 0 l 118 972 z "},"Ħ":{"ha":1057,"x_min":42,"x_max":1015,"o":"m 1015 714 l 872 714 l 872 0 l 793 0 l 793 449 l 264 449 l 264 0 l 185 0 l 185 714 l 42 714 l 42 779 l 185 779 l 185 972 l 264 972 l 264 779 l 793 779 l 793 972 l 872 972 l 872 779 l 1015 779 l 1015 714 m 793 714 l 264 714 l 264 521 l 793 521 l 793 714 z "},"Ḫ":{"ha":925,"x_min":118,"x_max":807,"o":"m 118 972 l 199 972 l 199 521 l 726 521 l 726 972 l 807 972 l 807 0 l 726 0 l 726 449 l 199 449 l 199 0 l 118 0 l 118 972 z "},"Ĥ":{"ha":925,"x_min":118,"x_max":807,"o":"m 118 972 l 199 972 l 199 521 l 726 521 l 726 972 l 807 972 l 807 0 l 726 0 l 726 449 l 199 449 l 199 0 l 118 0 l 118 972 m 421 1250 l 504 1250 l 633 1065 l 557 1065 l 467 1197 l 458 1197 l 368 1065 l 292 1065 l 421 1250 z "},"Ḥ":{"ha":925,"x_min":118,"x_max":807,"o":"m 118 972 l 199 972 l 199 521 l 726 521 l 726 972 l 807 972 l 807 0 l 726 0 l 726 449 l 199 449 l 199 0 l 118 0 l 118 972 z "},"I":{"ha":331,"x_min":125,"x_max":206,"o":"m 125 972 l 206 972 l 206 0 l 125 0 l 125 972 z "},"Ĳ":{"ha":1068,"x_min":125,"x_max":957,"o":"m 125 972 l 206 972 l 206 0 l 125 0 l 125 972 m 363 146 l 363 268 l 440 268 l 440 174 l 542 72 l 792 72 l 876 157 l 876 972 l 957 972 l 957 132 l 825 0 l 508 0 l 363 146 z "},"Í":{"ha":331,"x_min":125,"x_max":326,"o":"m 125 972 l 206 972 l 206 0 l 125 0 l 125 972 m 236 1278 l 326 1278 l 206 1065 l 132 1065 l 236 1278 z "},"Ĭ":{"ha":331,"x_min":-14,"x_max":344,"o":"m 125 972 l 206 972 l 206 0 l 125 0 l 125 972 m -14 1161 l -14 1238 l 53 1238 l 53 1182 l 110 1125 l 221 1125 l 278 1182 l 278 1238 l 344 1238 l 344 1161 l 250 1065 l 82 1065 l -14 1161 z "},"Ǐ":{"ha":331,"x_min":-6,"x_max":336,"o":"m 125 972 l 206 972 l 206 0 l 125 0 l 125 972 m -6 1250 l 71 1250 l 161 1119 l 169 1119 l 260 1250 l 336 1250 l 207 1065 l 124 1065 l -6 1250 z "},"Î":{"ha":331,"x_min":-6,"x_max":336,"o":"m 125 972 l 206 972 l 206 0 l 125 0 l 125 972 m 124 1250 l 207 1250 l 336 1065 l 260 1065 l 169 1197 l 161 1197 l 71 1065 l -6 1065 l 124 1250 z "},"Ï":{"ha":331,"x_min":-25,"x_max":356,"o":"m 125 972 l 206 972 l 206 0 l 125 0 l 125 972 m -25 1118 l -25 1168 l 8 1200 l 58 1200 l 89 1168 l 89 1118 l 58 1086 l 8 1086 l -25 1118 m 242 1118 l 242 1168 l 272 1200 l 322 1200 l 356 1168 l 356 1118 l 322 1086 l 272 1086 l 242 1118 z "},"İ":{"ha":331,"x_min":107,"x_max":222,"o":"m 125 972 l 206 972 l 206 0 l 125 0 l 125 972 m 107 1114 l 107 1165 l 138 1197 l 190 1197 l 222 1165 l 222 1114 l 190 1082 l 138 1082 l 107 1114 z "},"Ị":{"ha":331,"x_min":107,"x_max":222,"o":"m 125 972 l 206 972 l 206 0 l 125 0 l 125 972 z "},"Ì":{"ha":331,"x_min":3,"x_max":206,"o":"m 125 972 l 206 972 l 206 0 l 125 0 l 125 972 m 3 1278 l 94 1278 l 199 1065 l 124 1065 l 3 1278 z "},"Ỉ":{"ha":331,"x_min":33,"x_max":297,"o":"m 125 972 l 206 972 l 206 0 l 125 0 l 125 972 m 131 1114 l 229 1215 l 229 1253 l 206 1276 l 125 1276 l 97 1249 l 97 1221 l 33 1221 l 33 1271 l 97 1335 l 233 1335 l 297 1271 l 297 1203 l 201 1103 l 201 1065 l 131 1065 l 131 1114 z "},"Ī":{"ha":331,"x_min":-15,"x_max":349,"o":"m 125 972 l 206 972 l 206 0 l 125 0 l 125 972 m -15 1154 l 349 1154 l 349 1090 l -15 1090 l -15 1154 z "},"Į":{"ha":331,"x_min":58,"x_max":260,"o":"m 125 972 l 206 972 l 206 0 l 125 0 l 125 972 m 58 -176 l 58 -85 l 133 0 l 206 0 l 129 -96 l 129 -156 l 167 -193 l 260 -193 l 260 -251 l 133 -251 l 58 -176 z "},"Ĩ":{"ha":331,"x_min":-11,"x_max":343,"o":"m 125 972 l 206 972 l 206 0 l 125 0 l 125 972 m 110 1149 l 82 1149 l 54 1121 l 54 1088 l -11 1088 l -11 1139 l 56 1206 l 133 1206 l 222 1136 l 251 1136 l 279 1164 l 279 1199 l 343 1199 l 343 1146 l 276 1079 l 200 1079 l 110 1149 z "},"J":{"ha":761,"x_min":56,"x_max":650,"o":"m 56 146 l 56 268 l 133 268 l 133 174 l 235 72 l 485 72 l 569 157 l 569 972 l 650 972 l 650 132 l 518 0 l 201 0 l 56 146 z "},"Ĵ":{"ha":761,"x_min":56,"x_max":779,"o":"m 56 146 l 56 268 l 133 268 l 133 174 l 235 72 l 485 72 l 569 157 l 569 972 l 650 972 l 650 132 l 518 0 l 201 0 l 56 146 m 567 1250 l 650 1250 l 779 1065 l 703 1065 l 613 1197 l 604 1197 l 514 1065 l 438 1065 l 567 1250 z "},"K":{"ha":838,"x_min":118,"x_max":803,"o":"m 118 972 l 199 972 l 199 522 l 447 522 l 696 972 l 782 972 l 514 488 l 803 0 l 715 0 l 447 450 l 199 450 l 199 0 l 118 0 l 118 972 z "},"Ķ":{"ha":838,"x_min":118,"x_max":803,"o":"m 118 972 l 199 972 l 199 522 l 447 522 l 696 972 l 782 972 l 514 488 l 803 0 l 715 0 l 447 450 l 199 450 l 199 0 l 118 0 l 118 972 z "},"L":{"ha":735,"x_min":118,"x_max":693,"o":"m 118 972 l 199 972 l 199 72 l 693 72 l 693 0 l 118 0 l 118 972 z "},"Ĺ":{"ha":735,"x_min":118,"x_max":693,"o":"m 118 972 l 199 972 l 199 72 l 693 72 l 693 0 l 118 0 l 118 972 m 229 1278 l 319 1278 l 199 1065 l 125 1065 l 229 1278 z "},"Ľ":{"ha":799,"x_min":118,"x_max":744,"o":"m 118 972 l 199 972 l 199 72 l 693 72 l 693 0 l 118 0 l 118 972 z "},"Ļ":{"ha":735,"x_min":118,"x_max":693,"o":"m 118 972 l 199 972 l 199 72 l 693 72 l 693 0 l 118 0 l 118 972 z "},"Ŀ":{"ha":749,"x_min":118,"x_max":693,"o":"m 118 972 l 199 972 l 199 72 l 693 72 l 693 0 l 118 0 l 118 972 z "},"Ḷ":{"ha":735,"x_min":118,"x_max":693,"o":"m 118 972 l 199 972 l 199 72 l 693 72 l 693 0 l 118 0 l 118 972 z "},"Ḹ":{"ha":735,"x_min":-22,"x_max":693,"o":"m 118 972 l 199 972 l 199 72 l 693 72 l 693 0 l 118 0 l 118 972 m -22 1154 l 342 1154 l 342 1090 l -22 1090 l -22 1154 z "},"Ḻ":{"ha":735,"x_min":118,"x_max":693,"o":"m 118 972 l 199 972 l 199 72 l 693 72 l 693 0 l 118 0 l 118 972 z "},"Ł":{"ha":790,"x_min":28,"x_max":749,"o":"m 749 72 l 749 0 l 174 0 l 174 386 l 28 288 l 28 365 l 174 464 l 174 972 l 254 972 l 254 518 l 439 643 l 439 565 l 254 440 l 254 72 l 749 72 z "},"M":{"ha":1068,"x_min":118,"x_max":950,"o":"m 118 972 l 211 972 l 532 182 l 535 182 l 856 972 l 950 972 l 950 0 l 874 0 l 874 822 l 871 822 l 568 90 l 500 90 l 197 822 l 194 822 l 194 0 l 118 0 l 118 972 z "},"Ṃ":{"ha":1068,"x_min":118,"x_max":950,"o":"m 118 972 l 211 972 l 532 182 l 535 182 l 856 972 l 950 972 l 950 0 l 874 0 l 874 822 l 871 822 l 568 90 l 500 90 l 197 822 l 194 822 l 194 0 l 118 0 l 118 972 z "},"N":{"ha":924,"x_min":118,"x_max":806,"o":"m 118 972 l 199 972 l 726 132 l 729 132 l 729 972 l 806 972 l 806 0 l 725 0 l 197 842 l 194 842 l 194 0 l 118 0 l 118 972 z "},"Ń":{"ha":924,"x_min":118,"x_max":806,"o":"m 118 972 l 199 972 l 726 132 l 729 132 l 729 972 l 806 972 l 806 0 l 725 0 l 197 842 l 194 842 l 194 0 l 118 0 l 118 972 m 532 1278 l 622 1278 l 501 1065 l 428 1065 l 532 1278 z "},"Ň":{"ha":924,"x_min":118,"x_max":806,"o":"m 118 972 l 199 972 l 726 132 l 729 132 l 729 972 l 806 972 l 806 0 l 725 0 l 197 842 l 194 842 l 194 0 l 118 0 l 118 972 m 290 1250 l 367 1250 l 457 1119 l 465 1119 l 556 1250 l 632 1250 l 503 1065 l 419 1065 l 290 1250 z "},"Ņ":{"ha":924,"x_min":118,"x_max":806,"o":"m 118 972 l 199 972 l 726 132 l 729 132 l 729 972 l 806 972 l 806 0 l 725 0 l 197 842 l 194 842 l 194 0 l 118 0 l 118 972 z "},"Ṅ":{"ha":924,"x_min":118,"x_max":806,"o":"m 118 972 l 199 972 l 726 132 l 729 132 l 729 972 l 806 972 l 806 0 l 725 0 l 197 842 l 194 842 l 194 0 l 118 0 l 118 972 m 403 1114 l 403 1165 l 433 1197 l 486 1197 l 518 1165 l 518 1114 l 486 1082 l 433 1082 l 403 1114 z "},"Ṇ":{"ha":924,"x_min":118,"x_max":806,"o":"m 118 972 l 199 972 l 726 132 l 729 132 l 729 972 l 806 972 l 806 0 l 725 0 l 197 842 l 194 842 l 194 0 l 118 0 l 118 972 z "},"Ŋ":{"ha":921,"x_min":118,"x_max":803,"o":"m 803 972 l 803 -183 l 683 -303 l 517 -303 l 517 -232 l 649 -232 l 725 -157 l 725 0 l 197 842 l 194 842 l 194 0 l 118 0 l 118 972 l 199 972 l 725 133 l 728 133 l 728 972 l 803 972 z "},"Ṉ":{"ha":924,"x_min":118,"x_max":806,"o":"m 118 972 l 199 972 l 726 132 l 729 132 l 729 972 l 806 972 l 806 0 l 725 0 l 197 842 l 194 842 l 194 0 l 118 0 l 118 972 z "},"Ñ":{"ha":924,"x_min":118,"x_max":806,"o":"m 118 972 l 199 972 l 726 132 l 729 132 l 729 972 l 806 972 l 806 0 l 725 0 l 197 842 l 194 842 l 194 0 l 118 0 l 118 972 m 406 1149 l 378 1149 l 350 1121 l 350 1088 l 285 1088 l 285 1139 l 351 1206 l 429 1206 l 518 1136 l 547 1136 l 575 1164 l 575 1199 l 639 1199 l 639 1146 l 572 1079 l 496 1079 l 406 1149 z "},"O":{"ha":928,"x_min":104,"x_max":824,"o":"m 104 146 l 104 826 l 250 972 l 678 972 l 824 826 l 824 146 l 678 0 l 250 0 l 104 146 m 642 72 l 743 174 l 743 800 l 642 900 l 286 900 l 185 800 l 185 174 l 286 72 l 642 72 z "},"Ó":{"ha":928,"x_min":104,"x_max":824,"o":"m 104 146 l 104 826 l 250 972 l 678 972 l 824 826 l 824 146 l 678 0 l 250 0 l 104 146 m 642 72 l 743 174 l 743 800 l 642 900 l 286 900 l 185 800 l 185 174 l 286 72 l 642 72 m 535 1278 l 625 1278 l 504 1065 l 431 1065 l 535 1278 z "},"Ŏ":{"ha":928,"x_min":104,"x_max":824,"o":"m 104 146 l 104 826 l 250 972 l 678 972 l 824 826 l 824 146 l 678 0 l 250 0 l 104 146 m 642 72 l 743 174 l 743 800 l 642 900 l 286 900 l 185 800 l 185 174 l 286 72 l 642 72 m 286 1161 l 286 1238 l 353 1238 l 353 1182 l 410 1125 l 521 1125 l 578 1182 l 578 1238 l 644 1238 l 644 1161 l 550 1065 l 382 1065 l 286 1161 z "},"Ǒ":{"ha":928,"x_min":104,"x_max":824,"o":"m 104 146 l 104 826 l 250 972 l 678 972 l 824 826 l 824 146 l 678 0 l 250 0 l 104 146 m 642 72 l 743 174 l 743 800 l 642 900 l 286 900 l 185 800 l 185 174 l 286 72 l 642 72 m 294 1250 l 371 1250 l 461 1119 l 469 1119 l 560 1250 l 636 1250 l 507 1065 l 424 1065 l 294 1250 z "},"Ô":{"ha":928,"x_min":104,"x_max":824,"o":"m 104 146 l 104 826 l 250 972 l 678 972 l 824 826 l 824 146 l 678 0 l 250 0 l 104 146 m 642 72 l 743 174 l 743 800 l 642 900 l 286 900 l 185 800 l 185 174 l 286 72 l 642 72 m 424 1250 l 507 1250 l 636 1065 l 560 1065 l 469 1197 l 461 1197 l 371 1065 l 294 1065 l 424 1250 z "},"Ố":{"ha":928,"x_min":104,"x_max":824,"o":"m 104 146 l 104 826 l 250 972 l 678 972 l 824 826 l 824 146 l 678 0 l 250 0 l 104 146 m 642 72 l 743 174 l 743 800 l 642 900 l 286 900 l 185 800 l 185 174 l 286 72 l 642 72 m 675 1415 l 758 1415 l 656 1240 l 589 1240 l 675 1415 m 424 1250 l 507 1250 l 636 1065 l 560 1065 l 469 1197 l 461 1197 l 371 1065 l 294 1065 l 424 1250 z "},"Ộ":{"ha":928,"x_min":104,"x_max":824,"o":"m 104 146 l 104 826 l 250 972 l 678 972 l 824 826 l 824 146 l 678 0 l 250 0 l 104 146 m 642 72 l 743 174 l 743 800 l 642 900 l 286 900 l 185 800 l 185 174 l 286 72 l 642 72 m 424 1250 l 507 1250 l 636 1065 l 560 1065 l 469 1197 l 461 1197 l 371 1065 l 294 1065 l 424 1250 z "},"Ồ":{"ha":928,"x_min":104,"x_max":824,"o":"m 104 146 l 104 826 l 250 972 l 678 972 l 824 826 l 824 146 l 678 0 l 250 0 l 104 146 m 642 72 l 743 174 l 743 800 l 642 900 l 286 900 l 185 800 l 185 174 l 286 72 l 642 72 m 526 1415 l 610 1415 l 694 1240 l 628 1240 l 526 1415 m 424 1250 l 507 1250 l 636 1065 l 560 1065 l 469 1197 l 461 1197 l 371 1065 l 294 1065 l 424 1250 z "},"Ổ":{"ha":928,"x_min":104,"x_max":824,"o":"m 104 146 l 104 826 l 250 972 l 678 972 l 824 826 l 824 146 l 678 0 l 250 0 l 104 146 m 642 72 l 743 174 l 743 800 l 642 900 l 286 900 l 185 800 l 185 174 l 286 72 l 642 72 m 606 1261 l 694 1338 l 694 1367 l 672 1389 l 606 1389 l 579 1364 l 579 1335 l 518 1335 l 518 1385 l 579 1446 l 697 1446 l 758 1385 l 758 1321 l 672 1250 l 672 1214 l 606 1214 l 606 1261 m 424 1250 l 507 1250 l 636 1065 l 560 1065 l 469 1197 l 461 1197 l 371 1065 l 294 1065 l 424 1250 z "},"Ỗ":{"ha":928,"x_min":104,"x_max":824,"o":"m 104 146 l 104 826 l 250 972 l 678 972 l 824 826 l 824 146 l 678 0 l 250 0 l 104 146 m 642 72 l 743 174 l 743 800 l 642 900 l 286 900 l 185 800 l 185 174 l 286 72 l 642 72 m 413 1365 l 385 1365 l 357 1339 l 357 1308 l 294 1308 l 294 1356 l 358 1421 l 432 1421 l 518 1356 l 546 1356 l 572 1382 l 572 1414 l 635 1414 l 635 1365 l 571 1300 l 497 1300 l 413 1365 m 424 1250 l 507 1250 l 636 1065 l 560 1065 l 469 1197 l 461 1197 l 371 1065 l 294 1065 l 424 1250 z "},"Ö":{"ha":928,"x_min":104,"x_max":824,"o":"m 104 146 l 104 826 l 250 972 l 678 972 l 824 826 l 824 146 l 678 0 l 250 0 l 104 146 m 642 72 l 743 174 l 743 800 l 642 900 l 286 900 l 185 800 l 185 174 l 286 72 l 642 72 m 275 1118 l 275 1168 l 308 1200 l 358 1200 l 389 1168 l 389 1118 l 358 1086 l 308 1086 l 275 1118 m 542 1118 l 542 1168 l 572 1200 l 622 1200 l 656 1168 l 656 1118 l 622 1086 l 572 1086 l 542 1118 z "},"Ọ":{"ha":928,"x_min":104,"x_max":824,"o":"m 104 146 l 104 826 l 250 972 l 678 972 l 824 826 l 824 146 l 678 0 l 250 0 l 104 146 m 642 72 l 743 174 l 743 800 l 642 900 l 286 900 l 185 800 l 185 174 l 286 72 l 642 72 z "},"Ò":{"ha":928,"x_min":104,"x_max":824,"o":"m 104 146 l 104 826 l 250 972 l 678 972 l 824 826 l 824 146 l 678 0 l 250 0 l 104 146 m 642 72 l 743 174 l 743 800 l 642 900 l 286 900 l 185 800 l 185 174 l 286 72 l 642 72 m 303 1278 l 394 1278 l 499 1065 l 424 1065 l 303 1278 z "},"Ỏ":{"ha":928,"x_min":104,"x_max":824,"o":"m 104 146 l 104 826 l 250 972 l 678 972 l 824 826 l 824 146 l 678 0 l 250 0 l 104 146 m 642 72 l 743 174 l 743 800 l 642 900 l 286 900 l 185 800 l 185 174 l 286 72 l 642 72 m 431 1114 l 529 1215 l 529 1253 l 506 1276 l 425 1276 l 397 1249 l 397 1221 l 333 1221 l 333 1271 l 397 1335 l 533 1335 l 597 1271 l 597 1203 l 501 1103 l 501 1065 l 431 1065 l 431 1114 z "},"Ơ":{"ha":1008,"x_min":104,"x_max":988,"o":"m 988 986 l 988 850 l 879 742 l 824 742 l 824 146 l 678 0 l 250 0 l 104 146 l 104 826 l 250 972 l 678 972 l 824 826 l 824 810 l 844 810 l 913 876 l 913 986 l 988 986 m 743 800 l 642 900 l 286 900 l 185 800 l 185 174 l 286 72 l 642 72 l 743 174 l 743 800 z "},"Ớ":{"ha":1008,"x_min":104,"x_max":988,"o":"m 988 986 l 988 850 l 879 742 l 824 742 l 824 146 l 678 0 l 250 0 l 104 146 l 104 826 l 250 972 l 678 972 l 824 826 l 824 810 l 844 810 l 913 876 l 913 986 l 988 986 m 743 800 l 642 900 l 286 900 l 185 800 l 185 174 l 286 72 l 642 72 l 743 174 l 743 800 m 535 1278 l 625 1278 l 504 1065 l 431 1065 l 535 1278 z "},"Ợ":{"ha":1008,"x_min":104,"x_max":988,"o":"m 988 986 l 988 850 l 879 742 l 824 742 l 824 146 l 678 0 l 250 0 l 104 146 l 104 826 l 250 972 l 678 972 l 824 826 l 824 810 l 844 810 l 913 876 l 913 986 l 988 986 m 743 800 l 642 900 l 286 900 l 185 800 l 185 174 l 286 72 l 642 72 l 743 174 l 743 800 z "},"Ờ":{"ha":1008,"x_min":104,"x_max":988,"o":"m 988 986 l 988 850 l 879 742 l 824 742 l 824 146 l 678 0 l 250 0 l 104 146 l 104 826 l 250 972 l 678 972 l 824 826 l 824 810 l 844 810 l 913 876 l 913 986 l 988 986 m 743 800 l 642 900 l 286 900 l 185 800 l 185 174 l 286 72 l 642 72 l 743 174 l 743 800 m 303 1278 l 394 1278 l 499 1065 l 424 1065 l 303 1278 z "},"Ở":{"ha":1008,"x_min":104,"x_max":988,"o":"m 988 986 l 988 850 l 879 742 l 824 742 l 824 146 l 678 0 l 250 0 l 104 146 l 104 826 l 250 972 l 678 972 l 824 826 l 824 810 l 844 810 l 913 876 l 913 986 l 988 986 m 743 800 l 642 900 l 286 900 l 185 800 l 185 174 l 286 72 l 642 72 l 743 174 l 743 800 m 431 1114 l 529 1215 l 529 1253 l 506 1276 l 425 1276 l 397 1249 l 397 1221 l 333 1221 l 333 1271 l 397 1335 l 533 1335 l 597 1271 l 597 1203 l 501 1103 l 501 1065 l 431 1065 l 431 1114 z "},"Ỡ":{"ha":1008,"x_min":104,"x_max":988,"o":"m 988 986 l 988 850 l 879 742 l 824 742 l 824 146 l 678 0 l 250 0 l 104 146 l 104 826 l 250 972 l 678 972 l 824 826 l 824 810 l 844 810 l 913 876 l 913 986 l 988 986 m 743 800 l 642 900 l 286 900 l 185 800 l 185 174 l 286 72 l 642 72 l 743 174 l 743 800 m 408 1149 l 381 1149 l 353 1121 l 353 1088 l 288 1088 l 288 1139 l 354 1206 l 432 1206 l 521 1136 l 550 1136 l 578 1164 l 578 1199 l 642 1199 l 642 1146 l 575 1079 l 499 1079 l 408 1149 z "},"Ő":{"ha":928,"x_min":104,"x_max":824,"o":"m 104 146 l 104 826 l 250 972 l 678 972 l 824 826 l 824 146 l 678 0 l 250 0 l 104 146 m 642 72 l 743 174 l 743 800 l 642 900 l 286 900 l 185 800 l 185 174 l 286 72 l 642 72 m 435 1278 l 524 1278 l 401 1065 l 329 1065 l 435 1278 m 636 1278 l 724 1278 l 603 1065 l 529 1065 l 636 1278 z "},"Ō":{"ha":928,"x_min":104,"x_max":824,"o":"m 104 146 l 104 826 l 250 972 l 678 972 l 824 826 l 824 146 l 678 0 l 250 0 l 104 146 m 642 72 l 743 174 l 743 800 l 642 900 l 286 900 l 185 800 l 185 174 l 286 72 l 642 72 m 283 1154 l 647 1154 l 647 1090 l 283 1090 l 283 1154 z "},"Ø":{"ha":928,"x_min":54,"x_max":874,"o":"m 776 874 l 824 826 l 824 146 l 678 0 l 250 0 l 201 49 l 139 -42 l 54 -42 l 151 99 l 104 146 l 104 826 l 250 972 l 678 972 l 726 924 l 789 1014 l 874 1014 l 776 874 m 196 163 l 682 860 l 642 900 l 286 900 l 185 800 l 185 174 l 196 163 m 732 811 l 246 113 l 286 72 l 642 72 l 743 174 l 743 800 l 732 811 z "},"Ǿ":{"ha":928,"x_min":54,"x_max":874,"o":"m 776 874 l 824 826 l 824 146 l 678 0 l 250 0 l 201 49 l 139 -42 l 54 -42 l 151 99 l 104 146 l 104 826 l 250 972 l 678 972 l 726 924 l 789 1014 l 874 1014 l 776 874 m 196 163 l 682 860 l 642 900 l 286 900 l 185 800 l 185 174 l 196 163 m 732 811 l 246 113 l 286 72 l 642 72 l 743 174 l 743 800 l 732 811 m 535 1278 l 625 1278 l 504 1065 l 431 1065 l 535 1278 z "},"Õ":{"ha":928,"x_min":104,"x_max":824,"o":"m 104 146 l 104 826 l 250 972 l 678 972 l 824 826 l 824 146 l 678 0 l 250 0 l 104 146 m 642 72 l 743 174 l 743 800 l 642 900 l 286 900 l 185 800 l 185 174 l 286 72 l 642 72 m 408 1149 l 381 1149 l 353 1121 l 353 1088 l 288 1088 l 288 1139 l 354 1206 l 432 1206 l 521 1136 l 550 1136 l 578 1164 l 578 1199 l 642 1199 l 642 1146 l 575 1079 l 499 1079 l 408 1149 z "},"Œ":{"ha":1397,"x_min":104,"x_max":1321,"o":"m 824 524 l 1281 524 l 1281 451 l 824 451 l 824 72 l 1321 72 l 1321 0 l 750 0 l 750 99 l 651 0 l 250 0 l 104 146 l 104 826 l 250 972 l 651 972 l 750 874 l 750 972 l 1321 972 l 1321 900 l 824 900 l 824 524 m 743 192 l 743 781 l 624 900 l 286 900 l 185 800 l 185 174 l 286 72 l 624 72 l 743 192 z "},"P":{"ha":853,"x_min":118,"x_max":776,"o":"m 118 972 l 656 972 l 776 851 l 776 547 l 654 425 l 199 425 l 199 0 l 118 0 l 118 972 m 621 496 l 697 571 l 697 826 l 621 901 l 199 901 l 199 496 l 621 496 z "},"Þ":{"ha":853,"x_min":118,"x_max":776,"o":"m 776 639 l 776 335 l 654 213 l 199 213 l 199 0 l 118 0 l 118 972 l 199 972 l 199 760 l 656 760 l 776 639 m 697 614 l 622 689 l 199 689 l 199 283 l 622 283 l 697 358 l 697 614 z "},"Q":{"ha":928,"x_min":104,"x_max":842,"o":"m 842 -93 l 792 -143 l 650 0 l 250 0 l 104 146 l 104 826 l 250 972 l 678 972 l 824 826 l 824 146 l 714 36 l 842 -93 m 743 174 l 743 800 l 642 900 l 286 900 l 185 800 l 185 174 l 286 72 l 642 72 l 743 174 z "},"R":{"ha":893,"x_min":118,"x_max":782,"o":"m 782 311 l 782 0 l 701 0 l 701 289 l 578 421 l 199 421 l 199 0 l 118 0 l 118 972 l 656 972 l 776 851 l 776 543 l 668 435 l 782 311 m 199 492 l 621 492 l 697 567 l 697 826 l 621 901 l 199 901 l 199 492 z "},"Ŕ":{"ha":893,"x_min":118,"x_max":782,"o":"m 782 311 l 782 0 l 701 0 l 701 289 l 578 421 l 199 421 l 199 0 l 118 0 l 118 972 l 656 972 l 776 851 l 776 543 l 668 435 l 782 311 m 199 492 l 621 492 l 697 567 l 697 826 l 621 901 l 199 901 l 199 492 m 504 1278 l 594 1278 l 474 1065 l 400 1065 l 504 1278 z "},"Ř":{"ha":893,"x_min":118,"x_max":782,"o":"m 782 311 l 782 0 l 701 0 l 701 289 l 578 421 l 199 421 l 199 0 l 118 0 l 118 972 l 656 972 l 776 851 l 776 543 l 668 435 l 782 311 m 199 492 l 621 492 l 697 567 l 697 826 l 621 901 l 199 901 l 199 492 m 264 1250 l 340 1250 l 431 1119 l 439 1119 l 529 1250 l 606 1250 l 476 1065 l 393 1065 l 264 1250 z "},"Ŗ":{"ha":893,"x_min":118,"x_max":782,"o":"m 782 311 l 782 0 l 701 0 l 701 289 l 578 421 l 199 421 l 199 0 l 118 0 l 118 972 l 656 972 l 776 851 l 776 543 l 668 435 l 782 311 m 199 492 l 621 492 l 697 567 l 697 826 l 621 901 l 199 901 l 199 492 z "},"Ṛ":{"ha":893,"x_min":118,"x_max":782,"o":"m 782 311 l 782 0 l 701 0 l 701 289 l 578 421 l 199 421 l 199 0 l 118 0 l 118 972 l 656 972 l 776 851 l 776 543 l 668 435 l 782 311 m 199 492 l 621 492 l 697 567 l 697 826 l 621 901 l 199 901 l 199 492 z "},"Ṝ":{"ha":893,"x_min":118,"x_max":782,"o":"m 782 311 l 782 0 l 701 0 l 701 289 l 578 421 l 199 421 l 199 0 l 118 0 l 118 972 l 656 972 l 776 851 l 776 543 l 668 435 l 782 311 m 199 492 l 621 492 l 697 567 l 697 826 l 621 901 l 199 901 l 199 492 m 253 1154 l 617 1154 l 617 1090 l 253 1090 l 253 1154 z "},"Ṟ":{"ha":893,"x_min":118,"x_max":782,"o":"m 782 311 l 782 0 l 701 0 l 701 289 l 578 421 l 199 421 l 199 0 l 118 0 l 118 972 l 656 972 l 776 851 l 776 543 l 668 435 l 782 311 m 199 492 l 621 492 l 697 567 l 697 826 l 621 901 l 199 901 l 199 492 z "},"S":{"ha":840,"x_min":97,"x_max":750,"o":"m 97 121 l 97 194 l 176 194 l 176 149 l 251 72 l 594 72 l 671 151 l 671 388 l 594 464 l 221 464 l 100 583 l 100 851 l 221 972 l 618 972 l 739 851 l 739 776 l 660 776 l 660 825 l 583 900 l 256 900 l 179 825 l 179 611 l 256 536 l 629 536 l 750 415 l 750 124 l 626 0 l 218 0 l 97 121 z "},"Ś":{"ha":840,"x_min":97,"x_max":750,"o":"m 97 121 l 97 194 l 176 194 l 176 149 l 251 72 l 594 72 l 671 151 l 671 388 l 594 464 l 221 464 l 100 583 l 100 851 l 221 972 l 618 972 l 739 851 l 739 776 l 660 776 l 660 825 l 583 900 l 256 900 l 179 825 l 179 611 l 256 536 l 629 536 l 750 415 l 750 124 l 626 0 l 218 0 l 97 121 m 489 1278 l 579 1278 l 458 1065 l 385 1065 l 489 1278 z "},"Š":{"ha":840,"x_min":97,"x_max":750,"o":"m 97 121 l 97 194 l 176 194 l 176 149 l 251 72 l 594 72 l 671 151 l 671 388 l 594 464 l 221 464 l 100 583 l 100 851 l 221 972 l 618 972 l 739 851 l 739 776 l 660 776 l 660 825 l 583 900 l 256 900 l 179 825 l 179 611 l 256 536 l 629 536 l 750 415 l 750 124 l 626 0 l 218 0 l 97 121 m 247 1250 l 324 1250 l 414 1119 l 422 1119 l 513 1250 l 589 1250 l 460 1065 l 376 1065 l 247 1250 z "},"Ş":{"ha":840,"x_min":97,"x_max":750,"o":"m 750 415 l 750 124 l 626 0 l 463 0 l 432 -78 l 528 -78 l 594 -144 l 594 -243 l 526 -311 l 333 -311 l 333 -254 l 499 -254 l 529 -224 l 529 -167 l 499 -136 l 358 -136 l 358 -86 l 392 0 l 218 0 l 97 121 l 97 194 l 176 194 l 176 149 l 251 72 l 594 72 l 671 151 l 671 388 l 594 464 l 221 464 l 100 583 l 100 851 l 221 972 l 618 972 l 739 851 l 739 776 l 660 776 l 660 825 l 583 900 l 256 900 l 179 825 l 179 611 l 256 536 l 629 536 l 750 415 z "},"Ŝ":{"ha":840,"x_min":97,"x_max":750,"o":"m 97 121 l 97 194 l 176 194 l 176 149 l 251 72 l 594 72 l 671 151 l 671 388 l 594 464 l 221 464 l 100 583 l 100 851 l 221 972 l 618 972 l 739 851 l 739 776 l 660 776 l 660 825 l 583 900 l 256 900 l 179 825 l 179 611 l 256 536 l 629 536 l 750 415 l 750 124 l 626 0 l 218 0 l 97 121 m 376 1250 l 460 1250 l 589 1065 l 513 1065 l 422 1197 l 414 1197 l 324 1065 l 247 1065 l 376 1250 z "},"Ș":{"ha":840,"x_min":97,"x_max":750,"o":"m 97 121 l 97 194 l 176 194 l 176 149 l 251 72 l 594 72 l 671 151 l 671 388 l 594 464 l 221 464 l 100 583 l 100 851 l 221 972 l 618 972 l 739 851 l 739 776 l 660 776 l 660 825 l 583 900 l 256 900 l 179 825 l 179 611 l 256 536 l 629 536 l 750 415 l 750 124 l 626 0 l 218 0 l 97 121 z "},"Ṡ":{"ha":840,"x_min":97,"x_max":750,"o":"m 97 121 l 97 194 l 176 194 l 176 149 l 251 72 l 594 72 l 671 151 l 671 388 l 594 464 l 221 464 l 100 583 l 100 851 l 221 972 l 618 972 l 739 851 l 739 776 l 660 776 l 660 825 l 583 900 l 256 900 l 179 825 l 179 611 l 256 536 l 629 536 l 750 415 l 750 124 l 626 0 l 218 0 l 97 121 m 360 1114 l 360 1165 l 390 1197 l 443 1197 l 475 1165 l 475 1114 l 443 1082 l 390 1082 l 360 1114 z "},"Ṣ":{"ha":840,"x_min":97,"x_max":750,"o":"m 97 121 l 97 194 l 176 194 l 176 149 l 251 72 l 594 72 l 671 151 l 671 388 l 594 464 l 221 464 l 100 583 l 100 851 l 221 972 l 618 972 l 739 851 l 739 776 l 660 776 l 660 825 l 583 900 l 256 900 l 179 825 l 179 611 l 256 536 l 629 536 l 750 415 l 750 124 l 626 0 l 218 0 l 97 121 z "},"ẞ":{"ha":907,"x_min":118,"x_max":831,"o":"m 831 431 l 831 107 l 724 0 l 465 0 l 361 104 l 361 183 l 439 183 l 439 132 l 501 71 l 688 71 l 750 132 l 750 403 l 688 465 l 489 465 l 489 550 l 667 900 l 268 900 l 199 832 l 199 0 l 118 0 l 118 858 l 232 972 l 751 972 l 751 900 l 564 536 l 725 536 l 831 431 z "},"Ə":{"ha":958,"x_min":104,"x_max":854,"o":"m 104 172 l 104 519 l 774 519 l 774 772 l 644 900 l 314 900 l 185 772 l 185 682 l 104 682 l 104 800 l 276 972 l 682 972 l 854 800 l 854 172 l 682 0 l 276 0 l 104 172 m 642 72 l 774 204 l 774 447 l 185 447 l 185 204 l 317 72 l 642 72 z "},"T":{"ha":767,"x_min":49,"x_max":718,"o":"m 343 901 l 49 901 l 49 972 l 718 972 l 718 901 l 424 901 l 424 0 l 343 0 l 343 901 z "},"Ŧ":{"ha":767,"x_min":49,"x_max":718,"o":"m 424 901 l 424 492 l 663 492 l 663 425 l 424 425 l 424 0 l 343 0 l 343 425 l 113 425 l 113 492 l 343 492 l 343 901 l 49 901 l 49 972 l 718 972 l 718 901 l 424 901 z "},"Ť":{"ha":767,"x_min":49,"x_max":718,"o":"m 343 901 l 49 901 l 49 972 l 718 972 l 718 901 l 424 901 l 424 0 l 343 0 l 343 901 m 213 1250 l 289 1250 l 379 1119 l 388 1119 l 478 1250 l 554 1250 l 425 1065 l 342 1065 l 213 1250 z "},"Ţ":{"ha":767,"x_min":49,"x_max":718,"o":"m 343 901 l 49 901 l 49 972 l 718 972 l 718 901 l 424 901 l 424 0 l 343 0 l 343 901 m 275 -292 l 440 -292 l 471 -261 l 471 -204 l 440 -174 l 300 -174 l 300 -124 l 349 0 l 421 0 l 374 -115 l 471 -115 l 538 -182 l 538 -281 l 469 -349 l 275 -349 l 275 -292 z "},"Ț":{"ha":767,"x_min":49,"x_max":718,"o":"m 343 901 l 49 901 l 49 972 l 718 972 l 718 901 l 424 901 l 424 0 l 343 0 l 343 901 z "},"Ṭ":{"ha":767,"x_min":49,"x_max":718,"o":"m 343 901 l 49 901 l 49 972 l 718 972 l 718 901 l 424 901 l 424 0 l 343 0 l 343 901 z "},"Ṯ":{"ha":767,"x_min":49,"x_max":718,"o":"m 343 901 l 49 901 l 49 972 l 718 972 l 718 901 l 424 901 l 424 0 l 343 0 l 343 901 z "},"U":{"ha":928,"x_min":118,"x_max":810,"o":"m 118 146 l 118 972 l 199 972 l 199 172 l 299 72 l 629 72 l 729 172 l 729 972 l 810 972 l 810 146 l 664 0 l 264 0 l 118 146 z "},"Ú":{"ha":928,"x_min":118,"x_max":810,"o":"m 118 146 l 118 972 l 199 972 l 199 172 l 299 72 l 629 72 l 729 172 l 729 972 l 810 972 l 810 146 l 664 0 l 264 0 l 118 146 m 535 1278 l 625 1278 l 504 1065 l 431 1065 l 535 1278 z "},"Ŭ":{"ha":928,"x_min":118,"x_max":810,"o":"m 118 146 l 118 972 l 199 972 l 199 172 l 299 72 l 629 72 l 729 172 l 729 972 l 810 972 l 810 146 l 664 0 l 264 0 l 118 146 m 285 1161 l 285 1238 l 351 1238 l 351 1182 l 408 1125 l 519 1125 l 576 1182 l 576 1238 l 643 1238 l 643 1161 l 549 1065 l 381 1065 l 285 1161 z "},"Ǔ":{"ha":928,"x_min":118,"x_max":810,"o":"m 118 146 l 118 972 l 199 972 l 199 172 l 299 72 l 629 72 l 729 172 l 729 972 l 810 972 l 810 146 l 664 0 l 264 0 l 118 146 m 293 1250 l 369 1250 l 460 1119 l 468 1119 l 558 1250 l 635 1250 l 506 1065 l 422 1065 l 293 1250 z "},"Û":{"ha":928,"x_min":118,"x_max":810,"o":"m 118 146 l 118 972 l 199 972 l 199 172 l 299 72 l 629 72 l 729 172 l 729 972 l 810 972 l 810 146 l 664 0 l 264 0 l 118 146 m 422 1250 l 506 1250 l 635 1065 l 558 1065 l 468 1197 l 460 1197 l 369 1065 l 293 1065 l 422 1250 z "},"Ü":{"ha":928,"x_min":118,"x_max":810,"o":"m 118 146 l 118 972 l 199 972 l 199 172 l 299 72 l 629 72 l 729 172 l 729 972 l 810 972 l 810 146 l 664 0 l 264 0 l 118 146 m 274 1118 l 274 1168 l 307 1200 l 357 1200 l 388 1168 l 388 1118 l 357 1086 l 307 1086 l 274 1118 m 540 1118 l 540 1168 l 571 1200 l 621 1200 l 654 1168 l 654 1118 l 621 1086 l 571 1086 l 540 1118 z "},"Ǘ":{"ha":928,"x_min":118,"x_max":810,"o":"m 118 146 l 118 972 l 199 972 l 199 172 l 299 72 l 629 72 l 729 172 l 729 972 l 810 972 l 810 146 l 664 0 l 264 0 l 118 146 m 514 1429 l 597 1429 l 496 1254 l 428 1254 l 514 1429 m 274 1118 l 274 1168 l 307 1200 l 357 1200 l 388 1168 l 388 1118 l 357 1086 l 307 1086 l 274 1118 m 540 1118 l 540 1168 l 571 1200 l 621 1200 l 654 1168 l 654 1118 l 621 1086 l 571 1086 l 540 1118 z "},"Ǚ":{"ha":928,"x_min":118,"x_max":810,"o":"m 118 146 l 118 972 l 199 972 l 199 172 l 299 72 l 629 72 l 729 172 l 729 972 l 810 972 l 810 146 l 664 0 l 264 0 l 118 146 m 297 1418 l 374 1418 l 460 1304 l 468 1304 l 554 1418 l 631 1418 l 503 1254 l 425 1254 l 297 1418 m 274 1118 l 274 1168 l 307 1200 l 357 1200 l 388 1168 l 388 1118 l 357 1086 l 307 1086 l 274 1118 m 540 1118 l 540 1168 l 571 1200 l 621 1200 l 654 1168 l 654 1118 l 621 1086 l 571 1086 l 540 1118 z "},"Ǜ":{"ha":928,"x_min":118,"x_max":810,"o":"m 118 146 l 118 972 l 199 972 l 199 172 l 299 72 l 629 72 l 729 172 l 729 972 l 810 972 l 810 146 l 664 0 l 264 0 l 118 146 m 333 1429 l 417 1429 l 503 1254 l 436 1254 l 333 1429 m 274 1118 l 274 1168 l 307 1200 l 357 1200 l 388 1168 l 388 1118 l 357 1086 l 307 1086 l 274 1118 m 540 1118 l 540 1168 l 571 1200 l 621 1200 l 654 1168 l 654 1118 l 621 1086 l 571 1086 l 540 1118 z "},"Ǖ":{"ha":928,"x_min":118,"x_max":810,"o":"m 118 146 l 118 972 l 199 972 l 199 172 l 299 72 l 629 72 l 729 172 l 729 972 l 810 972 l 810 146 l 664 0 l 264 0 l 118 146 m 283 1363 l 647 1363 l 647 1300 l 283 1300 l 283 1363 m 275 1118 l 275 1168 l 307 1200 l 357 1200 l 389 1168 l 389 1118 l 357 1086 l 307 1086 l 275 1118 m 540 1118 l 540 1168 l 572 1200 l 622 1200 l 654 1168 l 654 1118 l 622 1086 l 572 1086 l 540 1118 z "},"Ụ":{"ha":928,"x_min":118,"x_max":810,"o":"m 118 146 l 118 972 l 199 972 l 199 172 l 299 72 l 629 72 l 729 172 l 729 972 l 810 972 l 810 146 l 664 0 l 264 0 l 118 146 z "},"Ù":{"ha":928,"x_min":118,"x_max":810,"o":"m 118 146 l 118 972 l 199 972 l 199 172 l 299 72 l 629 72 l 729 172 l 729 972 l 810 972 l 810 146 l 664 0 l 264 0 l 118 146 m 324 1278 l 415 1278 l 519 1065 l 444 1065 l 324 1278 z "},"Ủ":{"ha":928,"x_min":118,"x_max":810,"o":"m 118 146 l 118 972 l 199 972 l 199 172 l 299 72 l 629 72 l 729 172 l 729 972 l 810 972 l 810 146 l 664 0 l 264 0 l 118 146 m 429 1114 l 528 1215 l 528 1253 l 504 1276 l 424 1276 l 396 1249 l 396 1221 l 332 1221 l 332 1271 l 396 1335 l 532 1335 l 596 1271 l 596 1203 l 500 1103 l 500 1065 l 429 1065 l 429 1114 z "},"Ư":{"ha":1014,"x_min":118,"x_max":1001,"o":"m 1001 986 l 1001 850 l 893 742 l 810 742 l 810 146 l 664 0 l 264 0 l 118 146 l 118 972 l 199 972 l 199 172 l 299 72 l 629 72 l 729 172 l 729 972 l 810 972 l 810 810 l 858 810 l 926 876 l 926 986 l 1001 986 z "},"Ứ":{"ha":1014,"x_min":118,"x_max":1001,"o":"m 1001 986 l 1001 850 l 893 742 l 810 742 l 810 146 l 664 0 l 264 0 l 118 146 l 118 972 l 199 972 l 199 172 l 299 72 l 629 72 l 729 172 l 729 972 l 810 972 l 810 810 l 858 810 l 926 876 l 926 986 l 1001 986 m 535 1278 l 625 1278 l 504 1065 l 431 1065 l 535 1278 z "},"Ự":{"ha":1014,"x_min":118,"x_max":1001,"o":"m 1001 986 l 1001 850 l 893 742 l 810 742 l 810 146 l 664 0 l 264 0 l 118 146 l 118 972 l 199 972 l 199 172 l 299 72 l 629 72 l 729 172 l 729 972 l 810 972 l 810 810 l 858 810 l 926 876 l 926 986 l 1001 986 z "},"Ừ":{"ha":1014,"x_min":118,"x_max":1001,"o":"m 1001 986 l 1001 850 l 893 742 l 810 742 l 810 146 l 664 0 l 264 0 l 118 146 l 118 972 l 199 972 l 199 172 l 299 72 l 629 72 l 729 172 l 729 972 l 810 972 l 810 810 l 858 810 l 926 876 l 926 986 l 1001 986 m 324 1278 l 415 1278 l 519 1065 l 444 1065 l 324 1278 z "},"Ử":{"ha":1014,"x_min":118,"x_max":1001,"o":"m 1001 986 l 1001 850 l 893 742 l 810 742 l 810 146 l 664 0 l 264 0 l 118 146 l 118 972 l 199 972 l 199 172 l 299 72 l 629 72 l 729 172 l 729 972 l 810 972 l 810 810 l 858 810 l 926 876 l 926 986 l 1001 986 m 429 1114 l 528 1215 l 528 1253 l 504 1276 l 424 1276 l 396 1249 l 396 1221 l 332 1221 l 332 1271 l 396 1335 l 532 1335 l 596 1271 l 596 1203 l 500 1103 l 500 1065 l 429 1065 l 429 1114 z "},"Ữ":{"ha":1014,"x_min":118,"x_max":1001,"o":"m 1001 986 l 1001 850 l 893 742 l 810 742 l 810 146 l 664 0 l 264 0 l 118 146 l 118 972 l 199 972 l 199 172 l 299 72 l 629 72 l 729 172 l 729 972 l 810 972 l 810 810 l 858 810 l 926 876 l 926 986 l 1001 986 m 408 1149 l 381 1149 l 353 1121 l 353 1088 l 288 1088 l 288 1139 l 354 1206 l 432 1206 l 521 1136 l 550 1136 l 578 1164 l 578 1199 l 642 1199 l 642 1146 l 575 1079 l 499 1079 l 408 1149 z "},"Ű":{"ha":928,"x_min":118,"x_max":810,"o":"m 118 146 l 118 972 l 199 972 l 199 172 l 299 72 l 629 72 l 729 172 l 729 972 l 810 972 l 810 146 l 664 0 l 264 0 l 118 146 m 433 1278 l 522 1278 l 400 1065 l 328 1065 l 433 1278 m 635 1278 l 722 1278 l 601 1065 l 528 1065 l 635 1278 z "},"Ū":{"ha":928,"x_min":118,"x_max":810,"o":"m 118 146 l 118 972 l 199 972 l 199 172 l 299 72 l 629 72 l 729 172 l 729 972 l 810 972 l 810 146 l 664 0 l 264 0 l 118 146 m 283 1154 l 647 1154 l 647 1090 l 283 1090 l 283 1154 z "},"Ų":{"ha":928,"x_min":118,"x_max":810,"o":"m 118 146 l 118 972 l 199 972 l 199 172 l 299 72 l 629 72 l 729 172 l 729 972 l 810 972 l 810 146 l 664 0 l 264 0 l 118 146 m 382 -176 l 382 -85 l 457 0 l 529 0 l 453 -96 l 453 -156 l 490 -193 l 583 -193 l 583 -251 l 457 -251 l 382 -176 z "},"Ů":{"ha":928,"x_min":118,"x_max":810,"o":"m 118 146 l 118 972 l 199 972 l 199 172 l 299 72 l 629 72 l 729 172 l 729 972 l 810 972 l 810 146 l 664 0 l 264 0 l 118 146 m 333 1126 l 333 1236 l 407 1310 l 521 1310 l 594 1236 l 594 1126 l 521 1051 l 407 1051 l 333 1126 m 499 1108 l 536 1146 l 536 1215 l 499 1253 l 429 1253 l 392 1215 l 392 1146 l 429 1108 l 499 1108 z "},"Ũ":{"ha":928,"x_min":118,"x_max":810,"o":"m 118 146 l 118 972 l 199 972 l 199 172 l 299 72 l 629 72 l 729 172 l 729 972 l 810 972 l 810 146 l 664 0 l 264 0 l 118 146 m 408 1149 l 381 1149 l 353 1121 l 353 1088 l 288 1088 l 288 1139 l 354 1206 l 432 1206 l 521 1136 l 550 1136 l 578 1164 l 578 1199 l 642 1199 l 642 1146 l 575 1079 l 499 1079 l 408 1149 z "},"V":{"ha":849,"x_min":42,"x_max":807,"o":"m 42 972 l 125 972 l 424 89 l 426 89 l 724 972 l 807 972 l 471 0 l 378 0 l 42 972 z "},"W":{"ha":1182,"x_min":63,"x_max":1119,"o":"m 63 972 l 143 972 l 306 113 l 308 113 l 557 972 l 635 972 l 876 113 l 879 113 l 1039 972 l 1119 972 l 929 0 l 840 0 l 597 858 l 594 858 l 343 0 l 254 0 l 63 972 z "},"Ẃ":{"ha":1182,"x_min":63,"x_max":1119,"o":"m 63 972 l 143 972 l 306 113 l 308 113 l 557 972 l 635 972 l 876 113 l 879 113 l 1039 972 l 1119 972 l 929 0 l 840 0 l 597 858 l 594 858 l 343 0 l 254 0 l 63 972 m 663 1278 l 753 1278 l 632 1065 l 558 1065 l 663 1278 z "},"Ŵ":{"ha":1182,"x_min":63,"x_max":1119,"o":"m 63 972 l 143 972 l 306 113 l 308 113 l 557 972 l 635 972 l 876 113 l 879 113 l 1039 972 l 1119 972 l 929 0 l 840 0 l 597 858 l 594 858 l 343 0 l 254 0 l 63 972 m 551 1250 l 635 1250 l 764 1065 l 688 1065 l 597 1197 l 589 1197 l 499 1065 l 422 1065 l 551 1250 z "},"Ẅ":{"ha":1182,"x_min":63,"x_max":1119,"o":"m 63 972 l 143 972 l 306 113 l 308 113 l 557 972 l 635 972 l 876 113 l 879 113 l 1039 972 l 1119 972 l 929 0 l 840 0 l 597 858 l 594 858 l 343 0 l 254 0 l 63 972 m 403 1118 l 403 1168 l 436 1200 l 486 1200 l 517 1168 l 517 1118 l 486 1086 l 436 1086 l 403 1118 m 669 1118 l 669 1168 l 700 1200 l 750 1200 l 783 1168 l 783 1118 l 750 1086 l 700 1086 l 669 1118 z "},"Ẁ":{"ha":1182,"x_min":63,"x_max":1119,"o":"m 63 972 l 143 972 l 306 113 l 308 113 l 557 972 l 635 972 l 876 113 l 879 113 l 1039 972 l 1119 972 l 929 0 l 840 0 l 597 858 l 594 858 l 343 0 l 254 0 l 63 972 m 431 1278 l 522 1278 l 626 1065 l 551 1065 l 431 1278 z "},"X":{"ha":808,"x_min":28,"x_max":781,"o":"m 361 499 l 42 972 l 132 972 l 406 563 l 678 972 l 767 972 l 449 496 l 781 0 l 692 0 l 404 432 l 118 0 l 28 0 l 361 499 z "},"Y":{"ha":794,"x_min":28,"x_max":767,"o":"m 357 408 l 28 972 l 114 972 l 396 482 l 399 482 l 681 972 l 767 972 l 438 408 l 438 0 l 357 0 l 357 408 z "},"Ý":{"ha":794,"x_min":28,"x_max":767,"o":"m 357 408 l 28 972 l 114 972 l 396 482 l 399 482 l 681 972 l 767 972 l 438 408 l 438 0 l 357 0 l 357 408 m 467 1278 l 557 1278 l 436 1065 l 363 1065 l 467 1278 z "},"Ŷ":{"ha":794,"x_min":28,"x_max":767,"o":"m 357 408 l 28 972 l 114 972 l 396 482 l 399 482 l 681 972 l 767 972 l 438 408 l 438 0 l 357 0 l 357 408 m 356 1250 l 439 1250 l 568 1065 l 492 1065 l 401 1197 l 393 1197 l 303 1065 l 226 1065 l 356 1250 z "},"Ÿ":{"ha":794,"x_min":28,"x_max":767,"o":"m 357 408 l 28 972 l 114 972 l 396 482 l 399 482 l 681 972 l 767 972 l 438 408 l 438 0 l 357 0 l 357 408 m 207 1118 l 207 1168 l 240 1200 l 290 1200 l 321 1168 l 321 1118 l 290 1086 l 240 1086 l 207 1118 m 474 1118 l 474 1168 l 504 1200 l 554 1200 l 588 1168 l 588 1118 l 554 1086 l 504 1086 l 474 1118 z "},"Ẏ":{"ha":794,"x_min":28,"x_max":767,"o":"m 357 408 l 28 972 l 114 972 l 396 482 l 399 482 l 681 972 l 767 972 l 438 408 l 438 0 l 357 0 l 357 408 m 339 1114 l 339 1165 l 369 1197 l 422 1197 l 454 1165 l 454 1114 l 422 1082 l 369 1082 l 339 1114 z "},"Ỵ":{"ha":794,"x_min":28,"x_max":767,"o":"m 357 408 l 28 972 l 114 972 l 396 482 l 399 482 l 681 972 l 767 972 l 438 408 l 438 0 l 357 0 l 357 408 z "},"Ỳ":{"ha":794,"x_min":28,"x_max":767,"o":"m 357 408 l 28 972 l 114 972 l 396 482 l 399 482 l 681 972 l 767 972 l 438 408 l 438 0 l 357 0 l 357 408 m 235 1278 l 326 1278 l 431 1065 l 356 1065 l 235 1278 z "},"Ỷ":{"ha":794,"x_min":28,"x_max":767,"o":"m 357 408 l 28 972 l 114 972 l 396 482 l 399 482 l 681 972 l 767 972 l 438 408 l 438 0 l 357 0 l 357 408 m 363 1114 l 461 1215 l 461 1253 l 438 1276 l 357 1276 l 329 1249 l 329 1221 l 265 1221 l 265 1271 l 329 1335 l 465 1335 l 529 1271 l 529 1203 l 433 1103 l 433 1065 l 363 1065 l 363 1114 z "},"Ỹ":{"ha":794,"x_min":28,"x_max":767,"o":"m 357 408 l 28 972 l 114 972 l 396 482 l 399 482 l 681 972 l 767 972 l 438 408 l 438 0 l 357 0 l 357 408 m 340 1149 l 313 1149 l 285 1121 l 285 1088 l 219 1088 l 219 1139 l 286 1206 l 364 1206 l 453 1136 l 482 1136 l 510 1164 l 510 1199 l 574 1199 l 574 1146 l 507 1079 l 431 1079 l 340 1149 z "},"Z":{"ha":778,"x_min":76,"x_max":701,"o":"m 76 83 l 617 901 l 617 904 l 90 904 l 90 972 l 701 972 l 701 890 l 161 72 l 161 69 l 701 69 l 701 0 l 81 0 l 76 83 z "},"Ź":{"ha":778,"x_min":76,"x_max":701,"o":"m 76 83 l 617 901 l 617 904 l 90 904 l 90 972 l 701 972 l 701 890 l 161 72 l 161 69 l 701 69 l 701 0 l 81 0 l 76 83 m 467 1278 l 557 1278 l 436 1065 l 363 1065 l 467 1278 z "},"Ž":{"ha":778,"x_min":76,"x_max":701,"o":"m 76 83 l 617 901 l 617 904 l 90 904 l 90 972 l 701 972 l 701 890 l 161 72 l 161 69 l 701 69 l 701 0 l 81 0 l 76 83 m 225 1250 l 301 1250 l 392 1119 l 400 1119 l 490 1250 l 567 1250 l 438 1065 l 354 1065 l 225 1250 z "},"Ż":{"ha":778,"x_min":76,"x_max":701,"o":"m 76 83 l 617 901 l 617 904 l 90 904 l 90 972 l 701 972 l 701 890 l 161 72 l 161 69 l 701 69 l 701 0 l 81 0 l 76 83 m 338 1114 l 338 1165 l 368 1197 l 421 1197 l 453 1165 l 453 1114 l 421 1082 l 368 1082 l 338 1114 z "},"Ẓ":{"ha":778,"x_min":76,"x_max":701,"o":"m 76 83 l 617 901 l 617 904 l 90 904 l 90 972 l 701 972 l 701 890 l 161 72 l 161 69 l 701 69 l 701 0 l 81 0 l 76 83 z "},"a":{"ha":754,"x_min":90,"x_max":650,"o":"m 90 107 l 90 289 l 197 393 l 572 393 l 572 547 l 496 624 l 251 624 l 174 547 l 174 485 l 96 485 l 96 571 l 217 692 l 529 692 l 650 571 l 650 0 l 574 0 l 574 135 l 435 0 l 197 0 l 90 107 m 417 69 l 572 222 l 572 324 l 229 324 l 168 265 l 168 129 l 229 69 l 417 69 z "},"á":{"ha":754,"x_min":90,"x_max":650,"o":"m 90 107 l 90 289 l 197 393 l 572 393 l 572 547 l 496 624 l 251 624 l 174 547 l 174 485 l 96 485 l 96 571 l 217 692 l 529 692 l 650 571 l 650 0 l 574 0 l 574 135 l 435 0 l 197 0 l 90 107 m 417 69 l 572 222 l 572 324 l 229 324 l 168 265 l 168 129 l 229 69 l 417 69 m 451 997 l 542 997 l 421 785 l 347 785 l 451 997 z "},"ă":{"ha":754,"x_min":90,"x_max":650,"o":"m 90 107 l 90 289 l 197 393 l 572 393 l 572 547 l 496 624 l 251 624 l 174 547 l 174 485 l 96 485 l 96 571 l 217 692 l 529 692 l 650 571 l 650 0 l 574 0 l 574 135 l 435 0 l 197 0 l 90 107 m 417 69 l 572 222 l 572 324 l 229 324 l 168 265 l 168 129 l 229 69 l 417 69 m 203 881 l 203 957 l 269 957 l 269 901 l 326 844 l 438 844 l 494 901 l 494 957 l 561 957 l 561 881 l 467 785 l 299 785 l 203 881 z "},"ắ":{"ha":754,"x_min":90,"x_max":650,"o":"m 90 107 l 90 289 l 197 393 l 572 393 l 572 547 l 496 624 l 251 624 l 174 547 l 174 485 l 96 485 l 96 571 l 217 692 l 529 692 l 650 571 l 650 0 l 574 0 l 574 135 l 435 0 l 197 0 l 90 107 m 417 69 l 572 222 l 572 324 l 229 324 l 168 265 l 168 129 l 229 69 l 417 69 m 433 1149 l 517 1149 l 414 974 l 347 974 l 433 1149 m 203 881 l 203 957 l 269 957 l 269 901 l 326 844 l 438 844 l 494 901 l 494 957 l 561 957 l 561 881 l 467 785 l 299 785 l 203 881 z "},"ặ":{"ha":754,"x_min":90,"x_max":650,"o":"m 90 107 l 90 289 l 197 393 l 572 393 l 572 547 l 496 624 l 251 624 l 174 547 l 174 485 l 96 485 l 96 571 l 217 692 l 529 692 l 650 571 l 650 0 l 574 0 l 574 135 l 435 0 l 197 0 l 90 107 m 417 69 l 572 222 l 572 324 l 229 324 l 168 265 l 168 129 l 229 69 l 417 69 m 203 881 l 203 957 l 269 957 l 269 901 l 326 844 l 438 844 l 494 901 l 494 957 l 561 957 l 561 881 l 467 785 l 299 785 l 203 881 z "},"ằ":{"ha":754,"x_min":90,"x_max":650,"o":"m 90 107 l 90 289 l 197 393 l 572 393 l 572 547 l 496 624 l 251 624 l 174 547 l 174 485 l 96 485 l 96 571 l 217 692 l 529 692 l 650 571 l 650 0 l 574 0 l 574 135 l 435 0 l 197 0 l 90 107 m 417 69 l 572 222 l 572 324 l 229 324 l 168 265 l 168 129 l 229 69 l 417 69 m 253 1149 l 336 1149 l 422 974 l 354 974 l 253 1149 m 203 881 l 203 957 l 269 957 l 269 901 l 326 844 l 438 844 l 494 901 l 494 957 l 561 957 l 561 881 l 467 785 l 299 785 l 203 881 z "},"ẳ":{"ha":754,"x_min":90,"x_max":650,"o":"m 90 107 l 90 289 l 197 393 l 572 393 l 572 547 l 496 624 l 251 624 l 174 547 l 174 485 l 96 485 l 96 571 l 217 692 l 529 692 l 650 571 l 650 0 l 574 0 l 574 135 l 435 0 l 197 0 l 90 107 m 417 69 l 572 222 l 572 324 l 229 324 l 168 265 l 168 129 l 229 69 l 417 69 m 349 1010 l 440 1088 l 440 1117 l 418 1139 l 349 1139 l 322 1113 l 322 1085 l 261 1085 l 261 1133 l 322 1194 l 443 1194 l 504 1133 l 504 1069 l 415 999 l 415 963 l 349 963 l 349 1010 m 203 881 l 203 957 l 269 957 l 269 901 l 326 844 l 438 844 l 494 901 l 494 957 l 561 957 l 561 881 l 467 785 l 299 785 l 203 881 z "},"ẵ":{"ha":754,"x_min":90,"x_max":650,"o":"m 90 107 l 90 289 l 197 393 l 572 393 l 572 547 l 496 624 l 251 624 l 174 547 l 174 485 l 96 485 l 96 571 l 217 692 l 529 692 l 650 571 l 650 0 l 574 0 l 574 135 l 435 0 l 197 0 l 90 107 m 417 69 l 572 222 l 572 324 l 229 324 l 168 265 l 168 129 l 229 69 l 417 69 m 328 1078 l 300 1078 l 272 1051 l 272 1021 l 210 1021 l 210 1068 l 274 1133 l 347 1133 l 433 1068 l 461 1068 l 488 1094 l 488 1126 l 550 1126 l 550 1078 l 486 1013 l 413 1013 l 328 1078 m 203 881 l 203 957 l 269 957 l 269 901 l 326 844 l 438 844 l 494 901 l 494 957 l 561 957 l 561 881 l 467 785 l 299 785 l 203 881 z "},"ǎ":{"ha":754,"x_min":90,"x_max":650,"o":"m 90 107 l 90 289 l 197 393 l 572 393 l 572 547 l 496 624 l 251 624 l 174 547 l 174 485 l 96 485 l 96 571 l 217 692 l 529 692 l 650 571 l 650 0 l 574 0 l 574 135 l 435 0 l 197 0 l 90 107 m 417 69 l 572 222 l 572 324 l 229 324 l 168 265 l 168 129 l 229 69 l 417 69 m 211 969 l 288 969 l 378 839 l 386 839 l 476 969 l 553 969 l 424 785 l 340 785 l 211 969 z "},"â":{"ha":754,"x_min":90,"x_max":650,"o":"m 90 107 l 90 289 l 197 393 l 572 393 l 572 547 l 496 624 l 251 624 l 174 547 l 174 485 l 96 485 l 96 571 l 217 692 l 529 692 l 650 571 l 650 0 l 574 0 l 574 135 l 435 0 l 197 0 l 90 107 m 417 69 l 572 222 l 572 324 l 229 324 l 168 265 l 168 129 l 229 69 l 417 69 m 340 969 l 424 969 l 553 785 l 476 785 l 386 917 l 378 917 l 288 785 l 211 785 l 340 969 z "},"ấ":{"ha":754,"x_min":90,"x_max":675,"o":"m 90 107 l 90 289 l 197 393 l 572 393 l 572 547 l 496 624 l 251 624 l 174 547 l 174 485 l 96 485 l 96 571 l 217 692 l 529 692 l 650 571 l 650 0 l 574 0 l 574 135 l 435 0 l 197 0 l 90 107 m 417 69 l 572 222 l 572 324 l 229 324 l 168 265 l 168 129 l 229 69 l 417 69 m 592 1135 l 675 1135 l 572 960 l 506 960 l 592 1135 m 340 969 l 424 969 l 553 785 l 476 785 l 386 917 l 378 917 l 288 785 l 211 785 l 340 969 z "},"ậ":{"ha":754,"x_min":90,"x_max":650,"o":"m 90 107 l 90 289 l 197 393 l 572 393 l 572 547 l 496 624 l 251 624 l 174 547 l 174 485 l 96 485 l 96 571 l 217 692 l 529 692 l 650 571 l 650 0 l 574 0 l 574 135 l 435 0 l 197 0 l 90 107 m 417 69 l 572 222 l 572 324 l 229 324 l 168 265 l 168 129 l 229 69 l 417 69 m 340 969 l 424 969 l 553 785 l 476 785 l 386 917 l 378 917 l 288 785 l 211 785 l 340 969 z "},"ầ":{"ha":754,"x_min":90,"x_max":650,"o":"m 90 107 l 90 289 l 197 393 l 572 393 l 572 547 l 496 624 l 251 624 l 174 547 l 174 485 l 96 485 l 96 571 l 217 692 l 529 692 l 650 571 l 650 0 l 574 0 l 574 135 l 435 0 l 197 0 l 90 107 m 417 69 l 572 222 l 572 324 l 229 324 l 168 265 l 168 129 l 229 69 l 417 69 m 443 1135 l 526 1135 l 611 960 l 544 960 l 443 1135 m 340 969 l 424 969 l 553 785 l 476 785 l 386 917 l 378 917 l 288 785 l 211 785 l 340 969 z "},"ẩ":{"ha":754,"x_min":90,"x_max":675,"o":"m 90 107 l 90 289 l 197 393 l 572 393 l 572 547 l 496 624 l 251 624 l 174 547 l 174 485 l 96 485 l 96 571 l 217 692 l 529 692 l 650 571 l 650 0 l 574 0 l 574 135 l 435 0 l 197 0 l 90 107 m 417 69 l 572 222 l 572 324 l 229 324 l 168 265 l 168 129 l 229 69 l 417 69 m 522 981 l 611 1057 l 611 1086 l 589 1108 l 522 1108 l 496 1083 l 496 1054 l 435 1054 l 435 1104 l 496 1165 l 614 1165 l 675 1104 l 675 1040 l 589 969 l 589 933 l 522 933 l 522 981 m 340 969 l 424 969 l 553 785 l 476 785 l 386 917 l 378 917 l 288 785 l 211 785 l 340 969 z "},"ẫ":{"ha":754,"x_min":90,"x_max":650,"o":"m 90 107 l 90 289 l 197 393 l 572 393 l 572 547 l 496 624 l 251 624 l 174 547 l 174 485 l 96 485 l 96 571 l 217 692 l 529 692 l 650 571 l 650 0 l 574 0 l 574 135 l 435 0 l 197 0 l 90 107 m 417 69 l 572 222 l 572 324 l 229 324 l 168 265 l 168 129 l 229 69 l 417 69 m 329 1085 l 301 1085 l 274 1058 l 274 1028 l 211 1028 l 211 1075 l 275 1140 l 349 1140 l 435 1075 l 463 1075 l 489 1101 l 489 1133 l 551 1133 l 551 1085 l 488 1019 l 414 1019 l 329 1085 m 340 969 l 424 969 l 553 785 l 476 785 l 386 917 l 378 917 l 288 785 l 211 785 l 340 969 z "},"ä":{"ha":754,"x_min":90,"x_max":650,"o":"m 90 107 l 90 289 l 197 393 l 572 393 l 572 547 l 496 624 l 251 624 l 174 547 l 174 485 l 96 485 l 96 571 l 217 692 l 529 692 l 650 571 l 650 0 l 574 0 l 574 135 l 435 0 l 197 0 l 90 107 m 417 69 l 572 222 l 572 324 l 229 324 l 168 265 l 168 129 l 229 69 l 417 69 m 192 838 l 192 888 l 225 919 l 275 919 l 306 888 l 306 838 l 275 806 l 225 806 l 192 838 m 458 838 l 458 888 l 489 919 l 539 919 l 572 888 l 572 838 l 539 806 l 489 806 l 458 838 z "},"ạ":{"ha":754,"x_min":90,"x_max":650,"o":"m 90 107 l 90 289 l 197 393 l 572 393 l 572 547 l 496 624 l 251 624 l 174 547 l 174 485 l 96 485 l 96 571 l 217 692 l 529 692 l 650 571 l 650 0 l 574 0 l 574 135 l 435 0 l 197 0 l 90 107 m 417 69 l 572 222 l 572 324 l 229 324 l 168 265 l 168 129 l 229 69 l 417 69 z "},"à":{"ha":754,"x_min":90,"x_max":650,"o":"m 90 107 l 90 289 l 197 393 l 572 393 l 572 547 l 496 624 l 251 624 l 174 547 l 174 485 l 96 485 l 96 571 l 217 692 l 529 692 l 650 571 l 650 0 l 574 0 l 574 135 l 435 0 l 197 0 l 90 107 m 417 69 l 572 222 l 572 324 l 229 324 l 168 265 l 168 129 l 229 69 l 417 69 m 235 997 l 326 997 l 431 785 l 356 785 l 235 997 z "},"ả":{"ha":754,"x_min":90,"x_max":650,"o":"m 90 107 l 90 289 l 197 393 l 572 393 l 572 547 l 496 624 l 251 624 l 174 547 l 174 485 l 96 485 l 96 571 l 217 692 l 529 692 l 650 571 l 650 0 l 574 0 l 574 135 l 435 0 l 197 0 l 90 107 m 417 69 l 572 222 l 572 324 l 229 324 l 168 265 l 168 129 l 229 69 l 417 69 m 347 833 l 446 935 l 446 972 l 422 996 l 342 996 l 314 968 l 314 940 l 250 940 l 250 990 l 314 1054 l 450 1054 l 514 990 l 514 922 l 418 822 l 418 785 l 347 785 l 347 833 z "},"ɑ":{"ha":815,"x_min":97,"x_max":781,"o":"m 97 121 l 97 571 l 218 692 l 483 692 l 607 586 l 607 692 l 683 692 l 683 65 l 781 65 l 781 0 l 654 0 l 607 51 l 607 138 l 469 0 l 218 0 l 97 121 m 450 71 l 606 226 l 606 500 l 463 622 l 251 622 l 175 547 l 175 146 l 251 71 l 450 71 z "},"ā":{"ha":754,"x_min":90,"x_max":650,"o":"m 90 107 l 90 289 l 197 393 l 572 393 l 572 547 l 496 624 l 251 624 l 174 547 l 174 485 l 96 485 l 96 571 l 217 692 l 529 692 l 650 571 l 650 0 l 574 0 l 574 135 l 435 0 l 197 0 l 90 107 m 417 69 l 572 222 l 572 324 l 229 324 l 168 265 l 168 129 l 229 69 l 417 69 m 200 874 l 564 874 l 564 810 l 200 810 l 200 874 z "},"ą":{"ha":754,"x_min":90,"x_max":704,"o":"m 90 107 l 90 289 l 197 393 l 572 393 l 572 547 l 496 624 l 251 624 l 174 547 l 174 485 l 96 485 l 96 571 l 217 692 l 529 692 l 650 571 l 650 0 l 574 0 l 574 135 l 435 0 l 197 0 l 90 107 m 417 69 l 572 222 l 572 324 l 229 324 l 168 265 l 168 129 l 229 69 l 417 69 m 503 -176 l 503 -85 l 578 0 l 650 0 l 574 -96 l 574 -156 l 611 -193 l 704 -193 l 704 -251 l 578 -251 l 503 -176 z "},"å":{"ha":754,"x_min":90,"x_max":650,"o":"m 90 107 l 90 289 l 197 393 l 572 393 l 572 547 l 496 624 l 251 624 l 174 547 l 174 485 l 96 485 l 96 571 l 217 692 l 529 692 l 650 571 l 650 0 l 574 0 l 574 135 l 435 0 l 197 0 l 90 107 m 417 69 l 572 222 l 572 324 l 229 324 l 168 265 l 168 129 l 229 69 l 417 69 m 251 846 l 251 956 l 325 1029 l 439 1029 l 513 956 l 513 846 l 439 771 l 325 771 l 251 846 m 417 828 l 454 865 l 454 935 l 417 972 l 347 972 l 310 935 l 310 865 l 347 828 l 417 828 z "},"ǻ":{"ha":754,"x_min":90,"x_max":650,"o":"m 90 107 l 90 289 l 197 393 l 572 393 l 572 547 l 496 624 l 251 624 l 174 547 l 174 485 l 96 485 l 96 571 l 217 692 l 529 692 l 650 571 l 650 0 l 574 0 l 574 135 l 435 0 l 197 0 l 90 107 m 417 69 l 572 222 l 572 324 l 229 324 l 168 265 l 168 129 l 229 69 l 417 69 m 251 846 l 251 956 l 325 1029 l 439 1029 l 513 956 l 513 846 l 439 771 l 325 771 l 251 846 m 417 828 l 454 865 l 454 935 l 417 972 l 347 972 l 310 935 l 310 865 l 347 828 l 417 828 m 451 1311 l 542 1311 l 421 1099 l 347 1099 l 451 1311 z "},"ã":{"ha":754,"x_min":90,"x_max":650,"o":"m 90 107 l 90 289 l 197 393 l 572 393 l 572 547 l 496 624 l 251 624 l 174 547 l 174 485 l 96 485 l 96 571 l 217 692 l 529 692 l 650 571 l 650 0 l 574 0 l 574 135 l 435 0 l 197 0 l 90 107 m 417 69 l 572 222 l 572 324 l 229 324 l 168 265 l 168 129 l 229 69 l 417 69 m 325 868 l 297 868 l 269 840 l 269 807 l 204 807 l 204 858 l 271 925 l 349 925 l 438 856 l 467 856 l 494 883 l 494 918 l 558 918 l 558 865 l 492 799 l 415 799 l 325 868 z "},"æ":{"ha":1218,"x_min":90,"x_max":1128,"o":"m 650 147 l 728 71 l 972 71 l 1049 147 l 1049 207 l 1126 207 l 1126 122 l 1006 0 l 696 0 l 583 113 l 469 0 l 197 0 l 90 107 l 90 288 l 197 393 l 572 393 l 572 547 l 496 624 l 251 624 l 174 547 l 174 485 l 96 485 l 96 571 l 217 692 l 529 692 l 611 610 l 693 692 l 1006 692 l 1128 571 l 1128 325 l 650 325 l 650 147 m 650 546 l 650 393 l 1050 393 l 1050 546 l 974 622 l 726 622 l 650 546 m 572 196 l 572 324 l 229 324 l 168 264 l 168 129 l 229 69 l 444 69 l 572 196 z "},"ǽ":{"ha":1218,"x_min":90,"x_max":1128,"o":"m 650 147 l 728 71 l 972 71 l 1049 147 l 1049 207 l 1126 207 l 1126 122 l 1006 0 l 696 0 l 583 113 l 469 0 l 197 0 l 90 107 l 90 288 l 197 393 l 572 393 l 572 547 l 496 624 l 251 624 l 174 547 l 174 485 l 96 485 l 96 571 l 217 692 l 529 692 l 611 610 l 693 692 l 1006 692 l 1128 571 l 1128 325 l 650 325 l 650 147 m 650 546 l 650 393 l 1050 393 l 1050 546 l 974 622 l 726 622 l 650 546 m 572 196 l 572 324 l 229 324 l 168 264 l 168 129 l 229 69 l 444 69 l 572 196 m 688 997 l 778 997 l 657 785 l 583 785 l 688 997 z "},"b":{"ha":792,"x_min":111,"x_max":694,"o":"m 111 121 l 111 992 l 189 992 l 189 540 l 339 692 l 574 692 l 694 571 l 694 121 l 574 0 l 232 0 l 111 121 m 540 71 l 617 146 l 617 547 l 540 622 l 364 622 l 189 446 l 189 146 l 265 71 l 540 71 z "},"c":{"ha":731,"x_min":97,"x_max":661,"o":"m 97 121 l 97 571 l 218 692 l 540 692 l 661 571 l 661 500 l 583 500 l 583 547 l 507 622 l 251 622 l 175 546 l 175 146 l 251 71 l 507 71 l 583 146 l 583 192 l 661 192 l 661 121 l 540 0 l 218 0 l 97 121 z "},"ć":{"ha":731,"x_min":97,"x_max":661,"o":"m 97 121 l 97 571 l 218 692 l 540 692 l 661 571 l 661 500 l 583 500 l 583 547 l 507 622 l 251 622 l 175 546 l 175 146 l 251 71 l 507 71 l 583 146 l 583 192 l 661 192 l 661 121 l 540 0 l 218 0 l 97 121 m 449 997 l 539 997 l 418 785 l 344 785 l 449 997 z "},"č":{"ha":731,"x_min":97,"x_max":661,"o":"m 97 121 l 97 571 l 218 692 l 540 692 l 661 571 l 661 500 l 583 500 l 583 547 l 507 622 l 251 622 l 175 546 l 175 146 l 251 71 l 507 71 l 583 146 l 583 192 l 661 192 l 661 121 l 540 0 l 218 0 l 97 121 m 208 969 l 285 969 l 375 839 l 383 839 l 474 969 l 550 969 l 421 785 l 338 785 l 208 969 z "},"ç":{"ha":731,"x_min":97,"x_max":661,"o":"m 583 500 l 583 547 l 507 622 l 251 622 l 175 546 l 175 146 l 251 71 l 507 71 l 583 146 l 583 192 l 661 192 l 661 121 l 540 0 l 415 0 l 385 -78 l 481 -78 l 547 -144 l 547 -243 l 479 -311 l 286 -311 l 286 -254 l 451 -254 l 482 -224 l 482 -167 l 451 -136 l 311 -136 l 311 -86 l 344 0 l 218 0 l 97 121 l 97 571 l 218 692 l 540 692 l 661 571 l 661 500 l 583 500 z "},"ĉ":{"ha":731,"x_min":97,"x_max":661,"o":"m 97 121 l 97 571 l 218 692 l 540 692 l 661 571 l 661 500 l 583 500 l 583 547 l 507 622 l 251 622 l 175 546 l 175 146 l 251 71 l 507 71 l 583 146 l 583 192 l 661 192 l 661 121 l 540 0 l 218 0 l 97 121 m 338 969 l 421 969 l 550 785 l 474 785 l 383 917 l 375 917 l 285 785 l 208 785 l 338 969 z "},"ċ":{"ha":731,"x_min":97,"x_max":661,"o":"m 97 121 l 97 571 l 218 692 l 540 692 l 661 571 l 661 500 l 583 500 l 583 547 l 507 622 l 251 622 l 175 546 l 175 146 l 251 71 l 507 71 l 583 146 l 583 192 l 661 192 l 661 121 l 540 0 l 218 0 l 97 121 m 321 833 l 321 885 l 351 917 l 404 917 l 436 885 l 436 833 l 404 801 l 351 801 l 321 833 z "},"d":{"ha":794,"x_min":97,"x_max":683,"o":"m 97 121 l 97 571 l 218 692 l 479 692 l 606 582 l 606 992 l 683 992 l 683 0 l 607 0 l 607 138 l 469 0 l 218 0 l 97 121 m 450 71 l 606 226 l 606 496 l 460 622 l 251 622 l 175 547 l 175 146 l 251 71 l 450 71 z "},"ð":{"ha":789,"x_min":97,"x_max":719,"o":"m 607 794 l 708 619 l 708 121 l 588 0 l 218 0 l 97 121 l 97 478 l 218 599 l 508 599 l 631 489 l 631 608 l 543 758 l 426 690 l 394 747 l 510 814 l 457 906 l 301 906 l 301 972 l 503 972 l 574 851 l 686 917 l 719 860 l 607 794 m 631 400 l 489 528 l 251 528 l 175 453 l 175 146 l 251 71 l 554 71 l 631 146 l 631 400 z "},"ď":{"ha":982,"x_min":97,"x_max":928,"o":"m 97 121 l 97 571 l 218 692 l 479 692 l 606 582 l 606 992 l 683 992 l 683 0 l 607 0 l 607 138 l 469 0 l 218 0 l 97 121 m 450 71 l 606 226 l 606 496 l 460 622 l 251 622 l 175 547 l 175 146 l 251 71 l 450 71 z "},"đ":{"ha":818,"x_min":97,"x_max":797,"o":"m 797 813 l 683 813 l 683 0 l 607 0 l 607 138 l 469 0 l 218 0 l 97 121 l 97 571 l 218 692 l 479 692 l 606 582 l 606 813 l 394 813 l 394 878 l 606 878 l 606 992 l 683 992 l 683 878 l 797 878 l 797 813 m 606 496 l 460 622 l 251 622 l 175 547 l 175 146 l 251 71 l 450 71 l 606 226 l 606 496 z "},"ḍ":{"ha":794,"x_min":97,"x_max":683,"o":"m 97 121 l 97 571 l 218 692 l 479 692 l 606 582 l 606 992 l 683 992 l 683 0 l 607 0 l 607 138 l 469 0 l 218 0 l 97 121 m 450 71 l 606 226 l 606 496 l 460 622 l 251 622 l 175 547 l 175 146 l 251 71 l 450 71 z "},"ḏ":{"ha":794,"x_min":97,"x_max":683,"o":"m 97 121 l 97 571 l 218 692 l 479 692 l 606 582 l 606 992 l 683 992 l 683 0 l 607 0 l 607 138 l 469 0 l 218 0 l 97 121 m 450 71 l 606 226 l 606 496 l 460 622 l 251 622 l 175 547 l 175 146 l 251 71 l 450 71 z "},"e":{"ha":768,"x_min":97,"x_max":678,"o":"m 97 121 l 97 571 l 218 692 l 556 692 l 678 571 l 678 325 l 175 325 l 175 147 l 253 71 l 521 71 l 599 146 l 599 207 l 676 207 l 676 122 l 554 0 l 218 0 l 97 121 m 600 393 l 600 546 l 524 622 l 251 622 l 175 546 l 175 393 l 600 393 z "},"é":{"ha":768,"x_min":97,"x_max":678,"o":"m 97 121 l 97 571 l 218 692 l 556 692 l 678 571 l 678 325 l 175 325 l 175 147 l 253 71 l 521 71 l 599 146 l 599 207 l 676 207 l 676 122 l 554 0 l 218 0 l 97 121 m 600 393 l 600 546 l 524 622 l 251 622 l 175 546 l 175 393 l 600 393 m 457 997 l 547 997 l 426 785 l 353 785 l 457 997 z "},"ĕ":{"ha":768,"x_min":97,"x_max":678,"o":"m 97 121 l 97 571 l 218 692 l 556 692 l 678 571 l 678 325 l 175 325 l 175 147 l 253 71 l 521 71 l 599 146 l 599 207 l 676 207 l 676 122 l 554 0 l 218 0 l 97 121 m 600 393 l 600 546 l 524 622 l 251 622 l 175 546 l 175 393 l 600 393 m 208 881 l 208 957 l 275 957 l 275 901 l 332 844 l 443 844 l 500 901 l 500 957 l 567 957 l 567 881 l 472 785 l 304 785 l 208 881 z "},"ě":{"ha":768,"x_min":97,"x_max":678,"o":"m 97 121 l 97 571 l 218 692 l 556 692 l 678 571 l 678 325 l 175 325 l 175 147 l 253 71 l 521 71 l 599 146 l 599 207 l 676 207 l 676 122 l 554 0 l 218 0 l 97 121 m 600 393 l 600 546 l 524 622 l 251 622 l 175 546 l 175 393 l 600 393 m 217 969 l 293 969 l 383 839 l 392 839 l 482 969 l 558 969 l 429 785 l 346 785 l 217 969 z "},"ê":{"ha":768,"x_min":97,"x_max":678,"o":"m 97 121 l 97 571 l 218 692 l 556 692 l 678 571 l 678 325 l 175 325 l 175 147 l 253 71 l 521 71 l 599 146 l 599 207 l 676 207 l 676 122 l 554 0 l 218 0 l 97 121 m 600 393 l 600 546 l 524 622 l 251 622 l 175 546 l 175 393 l 600 393 m 346 969 l 429 969 l 558 785 l 482 785 l 392 917 l 383 917 l 293 785 l 217 785 l 346 969 z "},"ế":{"ha":768,"x_min":97,"x_max":681,"o":"m 97 121 l 97 571 l 218 692 l 556 692 l 678 571 l 678 325 l 175 325 l 175 147 l 253 71 l 521 71 l 599 146 l 599 207 l 676 207 l 676 122 l 554 0 l 218 0 l 97 121 m 600 393 l 600 546 l 524 622 l 251 622 l 175 546 l 175 393 l 600 393 m 597 1135 l 681 1135 l 578 960 l 511 960 l 597 1135 m 346 969 l 429 969 l 558 785 l 482 785 l 392 917 l 383 917 l 293 785 l 217 785 l 346 969 z "},"ệ":{"ha":768,"x_min":97,"x_max":678,"o":"m 97 121 l 97 571 l 218 692 l 556 692 l 678 571 l 678 325 l 175 325 l 175 147 l 253 71 l 521 71 l 599 146 l 599 207 l 676 207 l 676 122 l 554 0 l 218 0 l 97 121 m 600 393 l 600 546 l 524 622 l 251 622 l 175 546 l 175 393 l 600 393 m 346 969 l 429 969 l 558 785 l 482 785 l 392 917 l 383 917 l 293 785 l 217 785 l 346 969 z "},"ề":{"ha":768,"x_min":97,"x_max":678,"o":"m 97 121 l 97 571 l 218 692 l 556 692 l 678 571 l 678 325 l 175 325 l 175 147 l 253 71 l 521 71 l 599 146 l 599 207 l 676 207 l 676 122 l 554 0 l 218 0 l 97 121 m 600 393 l 600 546 l 524 622 l 251 622 l 175 546 l 175 393 l 600 393 m 449 1135 l 532 1135 l 617 960 l 550 960 l 449 1135 m 346 969 l 429 969 l 558 785 l 482 785 l 392 917 l 383 917 l 293 785 l 217 785 l 346 969 z "},"ể":{"ha":768,"x_min":97,"x_max":681,"o":"m 97 121 l 97 571 l 218 692 l 556 692 l 678 571 l 678 325 l 175 325 l 175 147 l 253 71 l 521 71 l 599 146 l 599 207 l 676 207 l 676 122 l 554 0 l 218 0 l 97 121 m 600 393 l 600 546 l 524 622 l 251 622 l 175 546 l 175 393 l 600 393 m 528 981 l 617 1057 l 617 1086 l 594 1108 l 528 1108 l 501 1083 l 501 1054 l 440 1054 l 440 1104 l 501 1165 l 619 1165 l 681 1104 l 681 1040 l 594 969 l 594 933 l 528 933 l 528 981 m 346 969 l 429 969 l 558 785 l 482 785 l 392 917 l 383 917 l 293 785 l 217 785 l 346 969 z "},"ễ":{"ha":768,"x_min":97,"x_max":678,"o":"m 97 121 l 97 571 l 218 692 l 556 692 l 678 571 l 678 325 l 175 325 l 175 147 l 253 71 l 521 71 l 599 146 l 599 207 l 676 207 l 676 122 l 554 0 l 218 0 l 97 121 m 600 393 l 600 546 l 524 622 l 251 622 l 175 546 l 175 393 l 600 393 m 335 1085 l 307 1085 l 279 1058 l 279 1028 l 217 1028 l 217 1075 l 281 1140 l 354 1140 l 440 1075 l 468 1075 l 494 1101 l 494 1133 l 557 1133 l 557 1085 l 493 1019 l 419 1019 l 335 1085 m 346 969 l 429 969 l 558 785 l 482 785 l 392 917 l 383 917 l 293 785 l 217 785 l 346 969 z "},"ë":{"ha":768,"x_min":97,"x_max":678,"o":"m 97 121 l 97 571 l 218 692 l 556 692 l 678 571 l 678 325 l 175 325 l 175 147 l 253 71 l 521 71 l 599 146 l 599 207 l 676 207 l 676 122 l 554 0 l 218 0 l 97 121 m 600 393 l 600 546 l 524 622 l 251 622 l 175 546 l 175 393 l 600 393 m 197 838 l 197 888 l 231 919 l 281 919 l 311 888 l 311 838 l 281 806 l 231 806 l 197 838 m 464 838 l 464 888 l 494 919 l 544 919 l 578 888 l 578 838 l 544 806 l 494 806 l 464 838 z "},"ė":{"ha":768,"x_min":97,"x_max":678,"o":"m 97 121 l 97 571 l 218 692 l 556 692 l 678 571 l 678 325 l 175 325 l 175 147 l 253 71 l 521 71 l 599 146 l 599 207 l 676 207 l 676 122 l 554 0 l 218 0 l 97 121 m 600 393 l 600 546 l 524 622 l 251 622 l 175 546 l 175 393 l 600 393 m 329 833 l 329 885 l 360 917 l 413 917 l 444 885 l 444 833 l 413 801 l 360 801 l 329 833 z "},"ẹ":{"ha":768,"x_min":97,"x_max":678,"o":"m 97 121 l 97 571 l 218 692 l 556 692 l 678 571 l 678 325 l 175 325 l 175 147 l 253 71 l 521 71 l 599 146 l 599 207 l 676 207 l 676 122 l 554 0 l 218 0 l 97 121 m 600 393 l 600 546 l 524 622 l 251 622 l 175 546 l 175 393 l 600 393 z "},"è":{"ha":768,"x_min":97,"x_max":678,"o":"m 97 121 l 97 571 l 218 692 l 556 692 l 678 571 l 678 325 l 175 325 l 175 147 l 253 71 l 521 71 l 599 146 l 599 207 l 676 207 l 676 122 l 554 0 l 218 0 l 97 121 m 600 393 l 600 546 l 524 622 l 251 622 l 175 546 l 175 393 l 600 393 m 225 997 l 317 997 l 421 785 l 346 785 l 225 997 z "},"ẻ":{"ha":768,"x_min":97,"x_max":678,"o":"m 97 121 l 97 571 l 218 692 l 556 692 l 678 571 l 678 325 l 175 325 l 175 147 l 253 71 l 521 71 l 599 146 l 599 207 l 676 207 l 676 122 l 554 0 l 218 0 l 97 121 m 600 393 l 600 546 l 524 622 l 251 622 l 175 546 l 175 393 l 600 393 m 353 833 l 451 935 l 451 972 l 428 996 l 347 996 l 319 968 l 319 940 l 256 940 l 256 990 l 319 1054 l 456 1054 l 519 990 l 519 922 l 424 822 l 424 785 l 353 785 l 353 833 z "},"ē":{"ha":768,"x_min":97,"x_max":678,"o":"m 97 121 l 97 571 l 218 692 l 556 692 l 678 571 l 678 325 l 175 325 l 175 147 l 253 71 l 521 71 l 599 146 l 599 207 l 676 207 l 676 122 l 554 0 l 218 0 l 97 121 m 600 393 l 600 546 l 524 622 l 251 622 l 175 546 l 175 393 l 600 393 m 206 874 l 569 874 l 569 810 l 206 810 l 206 874 z "},"ę":{"ha":768,"x_min":97,"x_max":678,"o":"m 97 121 l 97 571 l 218 692 l 556 692 l 678 571 l 678 325 l 175 325 l 175 147 l 253 71 l 521 71 l 599 146 l 599 207 l 676 207 l 676 122 l 554 0 l 218 0 l 97 121 m 600 393 l 600 546 l 524 622 l 251 622 l 175 546 l 175 393 l 600 393 m 407 -176 l 407 -85 l 482 0 l 554 0 l 478 -96 l 478 -156 l 515 -193 l 608 -193 l 608 -251 l 482 -251 l 407 -176 z "},"ẽ":{"ha":768,"x_min":97,"x_max":678,"o":"m 97 121 l 97 571 l 218 692 l 556 692 l 678 571 l 678 325 l 175 325 l 175 147 l 253 71 l 521 71 l 599 146 l 599 207 l 676 207 l 676 122 l 554 0 l 218 0 l 97 121 m 600 393 l 600 546 l 524 622 l 251 622 l 175 546 l 175 393 l 600 393 m 331 868 l 303 868 l 275 840 l 275 807 l 210 807 l 210 858 l 276 925 l 354 925 l 443 856 l 472 856 l 500 883 l 500 918 l 564 918 l 564 865 l 497 799 l 421 799 l 331 868 z "},"ə":{"ha":768,"x_min":90,"x_max":671,"o":"m 671 571 l 671 121 l 550 0 l 213 0 l 90 121 l 90 368 l 593 368 l 593 546 l 515 622 l 247 622 l 169 546 l 169 486 l 92 486 l 92 571 l 214 692 l 550 692 l 671 571 m 168 300 l 168 146 l 244 71 l 517 71 l 593 146 l 593 300 l 168 300 z "},"f":{"ha":511,"x_min":49,"x_max":469,"o":"m 174 622 l 49 622 l 49 692 l 174 692 l 174 853 l 288 967 l 469 967 l 469 899 l 321 899 l 251 829 l 251 692 l 469 692 l 469 622 l 251 622 l 251 0 l 174 0 l 174 622 z "},"g":{"ha":794,"x_min":97,"x_max":683,"o":"m 683 692 l 683 -183 l 564 -303 l 232 -303 l 132 -204 l 132 -125 l 210 -125 l 210 -178 l 265 -233 l 529 -233 l 606 -158 l 606 125 l 467 0 l 218 0 l 97 121 l 97 571 l 218 692 l 472 692 l 607 557 l 607 692 l 683 692 m 606 464 l 449 622 l 251 622 l 175 547 l 175 146 l 251 71 l 449 71 l 606 214 l 606 464 z "},"ğ":{"ha":794,"x_min":97,"x_max":683,"o":"m 683 692 l 683 -183 l 564 -303 l 232 -303 l 132 -204 l 132 -125 l 210 -125 l 210 -178 l 265 -233 l 529 -233 l 606 -158 l 606 125 l 467 0 l 218 0 l 97 121 l 97 571 l 218 692 l 472 692 l 607 557 l 607 692 l 683 692 m 606 464 l 449 622 l 251 622 l 175 547 l 175 146 l 251 71 l 449 71 l 606 214 l 606 464 m 215 881 l 215 957 l 282 957 l 282 901 l 339 844 l 450 844 l 507 901 l 507 957 l 574 957 l 574 881 l 479 785 l 311 785 l 215 881 z "},"ǧ":{"ha":794,"x_min":97,"x_max":683,"o":"m 683 692 l 683 -183 l 564 -303 l 232 -303 l 132 -204 l 132 -125 l 210 -125 l 210 -178 l 265 -233 l 529 -233 l 606 -158 l 606 125 l 467 0 l 218 0 l 97 121 l 97 571 l 218 692 l 472 692 l 607 557 l 607 692 l 683 692 m 606 464 l 449 622 l 251 622 l 175 547 l 175 146 l 251 71 l 449 71 l 606 214 l 606 464 m 224 969 l 300 969 l 390 839 l 399 839 l 489 969 l 565 969 l 436 785 l 353 785 l 224 969 z "},"ĝ":{"ha":794,"x_min":97,"x_max":683,"o":"m 683 692 l 683 -183 l 564 -303 l 232 -303 l 132 -204 l 132 -125 l 210 -125 l 210 -178 l 265 -233 l 529 -233 l 606 -158 l 606 125 l 467 0 l 218 0 l 97 121 l 97 571 l 218 692 l 472 692 l 607 557 l 607 692 l 683 692 m 606 464 l 449 622 l 251 622 l 175 547 l 175 146 l 251 71 l 449 71 l 606 214 l 606 464 m 353 969 l 436 969 l 565 785 l 489 785 l 399 917 l 390 917 l 300 785 l 224 785 l 353 969 z "},"ģ":{"ha":794,"x_min":97,"x_max":683,"o":"m 683 692 l 683 -183 l 564 -303 l 232 -303 l 132 -204 l 132 -125 l 210 -125 l 210 -178 l 265 -233 l 529 -233 l 606 -158 l 606 125 l 467 0 l 218 0 l 97 121 l 97 571 l 218 692 l 472 692 l 607 557 l 607 692 l 683 692 m 606 464 l 449 622 l 251 622 l 175 547 l 175 146 l 251 71 l 449 71 l 606 214 l 606 464 m 406 900 l 424 900 l 458 867 l 458 815 l 424 781 l 372 781 l 339 815 l 339 900 l 400 1068 l 449 1068 l 406 900 z "},"ġ":{"ha":794,"x_min":97,"x_max":683,"o":"m 683 692 l 683 -183 l 564 -303 l 232 -303 l 132 -204 l 132 -125 l 210 -125 l 210 -178 l 265 -233 l 529 -233 l 606 -158 l 606 125 l 467 0 l 218 0 l 97 121 l 97 571 l 218 692 l 472 692 l 607 557 l 607 692 l 683 692 m 606 464 l 449 622 l 251 622 l 175 547 l 175 146 l 251 71 l 449 71 l 606 214 l 606 464 m 336 833 l 336 885 l 367 917 l 419 917 l 451 885 l 451 833 l 419 801 l 367 801 l 336 833 z "},"ḡ":{"ha":794,"x_min":97,"x_max":683,"o":"m 683 692 l 683 -183 l 564 -303 l 232 -303 l 132 -204 l 132 -125 l 210 -125 l 210 -178 l 265 -233 l 529 -233 l 606 -158 l 606 125 l 467 0 l 218 0 l 97 121 l 97 571 l 218 692 l 472 692 l 607 557 l 607 692 l 683 692 m 606 464 l 449 622 l 251 622 l 175 547 l 175 146 l 251 71 l 449 71 l 606 214 l 606 464 m 214 874 l 578 874 l 578 810 l 214 810 l 214 874 z "},"h":{"ha":781,"x_min":111,"x_max":676,"o":"m 111 992 l 189 992 l 189 532 l 349 692 l 556 692 l 676 571 l 676 0 l 599 0 l 599 547 l 522 622 l 372 622 l 189 439 l 189 0 l 111 0 l 111 992 z "},"ħ":{"ha":815,"x_min":21,"x_max":711,"o":"m 711 571 l 711 0 l 633 0 l 633 547 l 557 622 l 407 622 l 224 439 l 224 0 l 146 0 l 146 813 l 21 813 l 21 878 l 146 878 l 146 992 l 224 992 l 224 878 l 433 878 l 433 813 l 224 813 l 224 532 l 383 692 l 590 692 l 711 571 z "},"ḫ":{"ha":781,"x_min":111,"x_max":676,"o":"m 111 992 l 189 992 l 189 532 l 349 692 l 556 692 l 676 571 l 676 0 l 599 0 l 599 547 l 522 622 l 372 622 l 189 439 l 189 0 l 111 0 l 111 992 z "},"ĥ":{"ha":781,"x_min":111,"x_max":676,"o":"m 111 992 l 189 992 l 189 532 l 349 692 l 556 692 l 676 571 l 676 0 l 599 0 l 599 547 l 522 622 l 372 622 l 189 439 l 189 0 l 111 0 l 111 992 m 354 1250 l 438 1250 l 567 1065 l 490 1065 l 400 1197 l 392 1197 l 301 1065 l 225 1065 l 354 1250 z "},"ḥ":{"ha":781,"x_min":111,"x_max":676,"o":"m 111 992 l 189 992 l 189 532 l 349 692 l 556 692 l 676 571 l 676 0 l 599 0 l 599 547 l 522 622 l 372 622 l 189 439 l 189 0 l 111 0 l 111 992 z "},"i":{"ha":328,"x_min":104,"x_max":224,"o":"m 104 854 l 104 907 l 139 942 l 189 942 l 224 907 l 224 854 l 189 819 l 139 819 l 104 854 m 125 692 l 203 692 l 203 0 l 125 0 l 125 692 z "},"ı":{"ha":328,"x_min":125,"x_max":203,"o":"m 125 692 l 203 692 l 203 0 l 125 0 l 125 692 z "},"í":{"ha":328,"x_min":125,"x_max":325,"o":"m 125 692 l 203 692 l 203 0 l 125 0 l 125 692 m 235 997 l 325 997 l 204 785 l 131 785 l 235 997 z "},"ĭ":{"ha":328,"x_min":-15,"x_max":343,"o":"m 125 692 l 203 692 l 203 0 l 125 0 l 125 692 m -15 881 l -15 957 l 51 957 l 51 901 l 108 844 l 219 844 l 276 901 l 276 957 l 343 957 l 343 881 l 249 785 l 81 785 l -15 881 z "},"ǐ":{"ha":328,"x_min":-7,"x_max":335,"o":"m 125 692 l 203 692 l 203 0 l 125 0 l 125 692 m -7 969 l 69 969 l 160 839 l 168 839 l 258 969 l 335 969 l 206 785 l 122 785 l -7 969 z "},"î":{"ha":328,"x_min":-7,"x_max":335,"o":"m 125 692 l 203 692 l 203 0 l 125 0 l 125 692 m 122 969 l 206 969 l 335 785 l 258 785 l 168 917 l 160 917 l 69 785 l -7 785 l 122 969 z "},"ï":{"ha":328,"x_min":-26,"x_max":354,"o":"m 125 692 l 203 692 l 203 0 l 125 0 l 125 692 m -26 838 l -26 888 l 7 919 l 57 919 l 88 888 l 88 838 l 57 806 l 7 806 l -26 838 m 240 838 l 240 888 l 271 919 l 321 919 l 354 888 l 354 838 l 321 806 l 271 806 l 240 838 z "},"ị":{"ha":328,"x_min":104,"x_max":224,"o":"m 104 854 l 104 907 l 139 942 l 189 942 l 224 907 l 224 854 l 189 819 l 139 819 l 104 854 m 125 692 l 203 692 l 203 0 l 125 0 l 125 692 z "},"ì":{"ha":328,"x_min":1,"x_max":203,"o":"m 125 692 l 203 692 l 203 0 l 125 0 l 125 692 m 1 997 l 93 997 l 197 785 l 122 785 l 1 997 z "},"ỉ":{"ha":328,"x_min":32,"x_max":296,"o":"m 125 692 l 203 692 l 203 0 l 125 0 l 125 692 m 129 833 l 228 935 l 228 972 l 204 996 l 124 996 l 96 968 l 96 940 l 32 940 l 32 990 l 96 1054 l 232 1054 l 296 990 l 296 922 l 200 822 l 200 785 l 129 785 l 129 833 z "},"ĳ":{"ha":654,"x_min":104,"x_max":550,"o":"m 104 854 l 104 907 l 139 942 l 189 942 l 224 907 l 224 854 l 189 819 l 139 819 l 104 854 m 125 692 l 203 692 l 203 0 l 125 0 l 125 692 m 431 854 l 431 907 l 465 942 l 515 942 l 550 907 l 550 854 l 515 819 l 465 819 l 431 854 m 243 -233 l 375 -233 l 451 -157 l 451 692 l 529 692 l 529 -183 l 410 -303 l 243 -303 l 243 -233 z "},"ī":{"ha":328,"x_min":-17,"x_max":347,"o":"m 125 692 l 203 692 l 203 0 l 125 0 l 125 692 m -17 874 l 347 874 l 347 810 l -17 810 l -17 874 z "},"į":{"ha":328,"x_min":56,"x_max":257,"o":"m 104 854 l 104 907 l 139 942 l 189 942 l 224 907 l 224 854 l 189 819 l 139 819 l 104 854 m 125 692 l 203 692 l 203 0 l 125 0 l 125 692 m 56 -176 l 56 -85 l 131 0 l 203 0 l 126 -96 l 126 -156 l 164 -193 l 257 -193 l 257 -251 l 131 -251 l 56 -176 z "},"ĩ":{"ha":328,"x_min":-12,"x_max":342,"o":"m 125 692 l 203 692 l 203 0 l 125 0 l 125 692 m 108 868 l 81 868 l 53 840 l 53 807 l -12 807 l -12 858 l 54 925 l 132 925 l 221 856 l 250 856 l 278 883 l 278 918 l 342 918 l 342 865 l 275 799 l 199 799 l 108 868 z "},"j":{"ha":349,"x_min":-62,"x_max":244,"o":"m 125 854 l 125 907 l 160 942 l 210 942 l 244 907 l 244 854 l 210 819 l 160 819 l 125 854 m -62 -233 l 69 -233 l 146 -157 l 146 692 l 224 692 l 224 -183 l 104 -303 l -62 -303 l -62 -233 z "},"ȷ":{"ha":342,"x_min":-69,"x_max":217,"o":"m -69 -233 l 64 -233 l 139 -158 l 139 692 l 217 692 l 217 -183 l 97 -303 l -69 -303 l -69 -233 z "},"ĵ":{"ha":342,"x_min":-69,"x_max":349,"o":"m -69 -233 l 64 -233 l 139 -158 l 139 692 l 217 692 l 217 -183 l 97 -303 l -69 -303 l -69 -233 m 136 969 l 219 969 l 349 785 l 272 785 l 182 917 l 174 917 l 83 785 l 7 785 l 136 969 z "},"k":{"ha":707,"x_min":111,"x_max":672,"o":"m 111 992 l 189 992 l 189 394 l 363 394 l 571 692 l 658 692 l 426 358 l 672 0 l 585 0 l 361 325 l 189 325 l 189 0 l 111 0 l 111 992 z "},"ķ":{"ha":707,"x_min":111,"x_max":672,"o":"m 111 992 l 189 992 l 189 394 l 363 394 l 571 692 l 658 692 l 426 358 l 672 0 l 585 0 l 361 325 l 189 325 l 189 0 l 111 0 l 111 992 z "},"ĸ":{"ha":768,"x_min":111,"x_max":733,"o":"m 111 692 l 192 692 l 192 381 l 419 381 l 622 692 l 713 692 l 488 349 l 733 0 l 642 0 l 422 308 l 192 308 l 192 0 l 111 0 l 111 692 z "},"l":{"ha":314,"x_min":118,"x_max":196,"o":"m 118 992 l 196 992 l 196 0 l 118 0 l 118 992 z "},"ĺ":{"ha":314,"x_min":118,"x_max":318,"o":"m 118 992 l 196 992 l 196 0 l 118 0 l 118 992 m 228 1304 l 318 1304 l 197 1092 l 124 1092 l 228 1304 z "},"ľ":{"ha":493,"x_min":118,"x_max":432,"o":"m 118 992 l 196 992 l 196 0 l 118 0 l 118 992 z "},"ļ":{"ha":314,"x_min":94,"x_max":214,"o":"m 118 992 l 196 992 l 196 0 l 118 0 l 118 992 z "},"ŀ":{"ha":492,"x_min":118,"x_max":442,"o":"m 118 992 l 196 992 l 196 0 l 118 0 l 118 992 z "},"ḷ":{"ha":314,"x_min":99,"x_max":214,"o":"m 118 992 l 196 992 l 196 0 l 118 0 l 118 992 z "},"ḹ":{"ha":314,"x_min":-24,"x_max":340,"o":"m 118 992 l 196 992 l 196 0 l 118 0 l 118 992 m -24 1181 l 340 1181 l 340 1117 l -24 1117 l -24 1181 z "},"ḻ":{"ha":314,"x_min":-25,"x_max":339,"o":"m 118 992 l 196 992 l 196 0 l 118 0 l 118 992 z "},"ł":{"ha":432,"x_min":28,"x_max":404,"o":"m 404 578 l 256 469 l 256 0 l 178 0 l 178 413 l 28 303 l 28 381 l 178 490 l 178 992 l 256 992 l 256 547 l 404 656 l 404 578 z "},"m":{"ha":1151,"x_min":111,"x_max":1047,"o":"m 111 692 l 188 692 l 188 550 l 331 692 l 492 692 l 601 582 l 711 692 l 926 692 l 1047 571 l 1047 0 l 969 0 l 969 547 l 893 622 l 731 622 l 625 517 l 625 0 l 549 0 l 549 539 l 465 622 l 349 622 l 189 463 l 189 0 l 111 0 l 111 692 z "},"ṃ":{"ha":1151,"x_min":111,"x_max":1047,"o":"m 111 692 l 188 692 l 188 550 l 331 692 l 492 692 l 601 582 l 711 692 l 926 692 l 1047 571 l 1047 0 l 969 0 l 969 547 l 893 622 l 731 622 l 625 517 l 625 0 l 549 0 l 549 539 l 465 622 l 349 622 l 189 463 l 189 0 l 111 0 l 111 692 z "},"n":{"ha":778,"x_min":111,"x_max":674,"o":"m 111 692 l 188 692 l 188 531 l 349 692 l 553 692 l 674 571 l 674 0 l 596 0 l 596 546 l 519 621 l 372 621 l 189 439 l 189 0 l 111 0 l 111 692 z "},"ń":{"ha":778,"x_min":111,"x_max":674,"o":"m 111 692 l 188 692 l 188 531 l 349 692 l 553 692 l 674 571 l 674 0 l 596 0 l 596 546 l 519 621 l 372 621 l 189 439 l 189 0 l 111 0 l 111 692 m 467 997 l 557 997 l 436 785 l 363 785 l 467 997 z "},"ŉ":{"ha":947,"x_min":81,"x_max":843,"o":"m 281 692 l 357 692 l 357 531 l 518 692 l 722 692 l 843 571 l 843 0 l 765 0 l 765 546 l 689 621 l 542 621 l 358 439 l 358 0 l 281 0 l 281 692 z "},"ň":{"ha":778,"x_min":111,"x_max":674,"o":"m 111 692 l 188 692 l 188 531 l 349 692 l 553 692 l 674 571 l 674 0 l 596 0 l 596 546 l 519 621 l 372 621 l 189 439 l 189 0 l 111 0 l 111 692 m 225 969 l 301 969 l 392 839 l 400 839 l 490 969 l 567 969 l 438 785 l 354 785 l 225 969 z "},"ņ":{"ha":778,"x_min":111,"x_max":674,"o":"m 111 692 l 188 692 l 188 531 l 349 692 l 553 692 l 674 571 l 674 0 l 596 0 l 596 546 l 519 621 l 372 621 l 189 439 l 189 0 l 111 0 l 111 692 z "},"ṅ":{"ha":778,"x_min":111,"x_max":674,"o":"m 111 692 l 188 692 l 188 531 l 349 692 l 553 692 l 674 571 l 674 0 l 596 0 l 596 546 l 519 621 l 372 621 l 189 439 l 189 0 l 111 0 l 111 692 m 338 833 l 338 885 l 368 917 l 421 917 l 453 885 l 453 833 l 421 801 l 368 801 l 338 833 z "},"ṇ":{"ha":778,"x_min":111,"x_max":674,"o":"m 111 692 l 188 692 l 188 531 l 349 692 l 553 692 l 674 571 l 674 0 l 596 0 l 596 546 l 519 621 l 372 621 l 189 439 l 189 0 l 111 0 l 111 692 z "},"ŋ":{"ha":776,"x_min":111,"x_max":672,"o":"m 672 571 l 672 -183 l 553 -303 l 386 -303 l 386 -233 l 519 -233 l 594 -158 l 594 547 l 519 621 l 372 621 l 189 439 l 189 0 l 111 0 l 111 692 l 188 692 l 188 531 l 349 692 l 551 692 l 672 571 z "},"ṉ":{"ha":778,"x_min":111,"x_max":674,"o":"m 111 692 l 188 692 l 188 531 l 349 692 l 553 692 l 674 571 l 674 0 l 596 0 l 596 546 l 519 621 l 372 621 l 189 439 l 189 0 l 111 0 l 111 692 z "},"ñ":{"ha":778,"x_min":111,"x_max":674,"o":"m 111 692 l 188 692 l 188 531 l 349 692 l 553 692 l 674 571 l 674 0 l 596 0 l 596 546 l 519 621 l 372 621 l 189 439 l 189 0 l 111 0 l 111 692 m 340 868 l 313 868 l 285 840 l 285 807 l 219 807 l 219 858 l 286 925 l 364 925 l 453 856 l 482 856 l 510 883 l 510 918 l 574 918 l 574 865 l 507 799 l 431 799 l 340 868 z "},"o":{"ha":781,"x_min":97,"x_max":683,"o":"m 97 121 l 97 571 l 218 692 l 563 692 l 683 571 l 683 121 l 563 0 l 218 0 l 97 121 m 529 71 l 606 146 l 606 547 l 529 622 l 251 622 l 175 547 l 175 146 l 251 71 l 529 71 z "},"ó":{"ha":781,"x_min":97,"x_max":683,"o":"m 97 121 l 97 571 l 218 692 l 563 692 l 683 571 l 683 121 l 563 0 l 218 0 l 97 121 m 529 71 l 606 146 l 606 547 l 529 622 l 251 622 l 175 547 l 175 146 l 251 71 l 529 71 m 461 997 l 551 997 l 431 785 l 357 785 l 461 997 z "},"ŏ":{"ha":781,"x_min":97,"x_max":683,"o":"m 97 121 l 97 571 l 218 692 l 563 692 l 683 571 l 683 121 l 563 0 l 218 0 l 97 121 m 529 71 l 606 146 l 606 547 l 529 622 l 251 622 l 175 547 l 175 146 l 251 71 l 529 71 m 211 881 l 211 957 l 278 957 l 278 901 l 335 844 l 446 844 l 503 901 l 503 957 l 569 957 l 569 881 l 475 785 l 307 785 l 211 881 z "},"ǒ":{"ha":781,"x_min":97,"x_max":683,"o":"m 97 121 l 97 571 l 218 692 l 563 692 l 683 571 l 683 121 l 563 0 l 218 0 l 97 121 m 529 71 l 606 146 l 606 547 l 529 622 l 251 622 l 175 547 l 175 146 l 251 71 l 529 71 m 219 969 l 296 969 l 386 839 l 394 839 l 485 969 l 561 969 l 432 785 l 349 785 l 219 969 z "},"ô":{"ha":781,"x_min":97,"x_max":683,"o":"m 97 121 l 97 571 l 218 692 l 563 692 l 683 571 l 683 121 l 563 0 l 218 0 l 97 121 m 529 71 l 606 146 l 606 547 l 529 622 l 251 622 l 175 547 l 175 146 l 251 71 l 529 71 m 349 969 l 432 969 l 561 785 l 485 785 l 394 917 l 386 917 l 296 785 l 219 785 l 349 969 z "},"ố":{"ha":781,"x_min":97,"x_max":683,"o":"m 97 121 l 97 571 l 218 692 l 563 692 l 683 571 l 683 121 l 563 0 l 218 0 l 97 121 m 529 71 l 606 146 l 606 547 l 529 622 l 251 622 l 175 547 l 175 146 l 251 71 l 529 71 m 600 1135 l 683 1135 l 581 960 l 514 960 l 600 1135 m 349 969 l 432 969 l 561 785 l 485 785 l 394 917 l 386 917 l 296 785 l 219 785 l 349 969 z "},"ộ":{"ha":781,"x_min":97,"x_max":683,"o":"m 97 121 l 97 571 l 218 692 l 563 692 l 683 571 l 683 121 l 563 0 l 218 0 l 97 121 m 529 71 l 606 146 l 606 547 l 529 622 l 251 622 l 175 547 l 175 146 l 251 71 l 529 71 m 349 969 l 432 969 l 561 785 l 485 785 l 394 917 l 386 917 l 296 785 l 219 785 l 349 969 z "},"ồ":{"ha":781,"x_min":97,"x_max":683,"o":"m 97 121 l 97 571 l 218 692 l 563 692 l 683 571 l 683 121 l 563 0 l 218 0 l 97 121 m 529 71 l 606 146 l 606 547 l 529 622 l 251 622 l 175 547 l 175 146 l 251 71 l 529 71 m 451 1135 l 535 1135 l 619 960 l 553 960 l 451 1135 m 349 969 l 432 969 l 561 785 l 485 785 l 394 917 l 386 917 l 296 785 l 219 785 l 349 969 z "},"ổ":{"ha":781,"x_min":97,"x_max":683,"o":"m 97 121 l 97 571 l 218 692 l 563 692 l 683 571 l 683 121 l 563 0 l 218 0 l 97 121 m 529 71 l 606 146 l 606 547 l 529 622 l 251 622 l 175 547 l 175 146 l 251 71 l 529 71 m 531 981 l 619 1057 l 619 1086 l 597 1108 l 531 1108 l 504 1083 l 504 1054 l 443 1054 l 443 1104 l 504 1165 l 622 1165 l 683 1104 l 683 1040 l 597 969 l 597 933 l 531 933 l 531 981 m 349 969 l 432 969 l 561 785 l 485 785 l 394 917 l 386 917 l 296 785 l 219 785 l 349 969 z "},"ỗ":{"ha":781,"x_min":97,"x_max":683,"o":"m 97 121 l 97 571 l 218 692 l 563 692 l 683 571 l 683 121 l 563 0 l 218 0 l 97 121 m 529 71 l 606 146 l 606 547 l 529 622 l 251 622 l 175 547 l 175 146 l 251 71 l 529 71 m 338 1085 l 310 1085 l 282 1058 l 282 1028 l 219 1028 l 219 1075 l 283 1140 l 357 1140 l 443 1075 l 471 1075 l 497 1101 l 497 1133 l 560 1133 l 560 1085 l 496 1019 l 422 1019 l 338 1085 m 349 969 l 432 969 l 561 785 l 485 785 l 394 917 l 386 917 l 296 785 l 219 785 l 349 969 z "},"ö":{"ha":781,"x_min":97,"x_max":683,"o":"m 97 121 l 97 571 l 218 692 l 563 692 l 683 571 l 683 121 l 563 0 l 218 0 l 97 121 m 529 71 l 606 146 l 606 547 l 529 622 l 251 622 l 175 547 l 175 146 l 251 71 l 529 71 m 200 838 l 200 888 l 233 919 l 283 919 l 314 888 l 314 838 l 283 806 l 233 806 l 200 838 m 467 838 l 467 888 l 497 919 l 547 919 l 581 888 l 581 838 l 547 806 l 497 806 l 467 838 z "},"ọ":{"ha":781,"x_min":97,"x_max":683,"o":"m 97 121 l 97 571 l 218 692 l 563 692 l 683 571 l 683 121 l 563 0 l 218 0 l 97 121 m 529 71 l 606 146 l 606 547 l 529 622 l 251 622 l 175 547 l 175 146 l 251 71 l 529 71 z "},"ò":{"ha":781,"x_min":97,"x_max":683,"o":"m 97 121 l 97 571 l 218 692 l 563 692 l 683 571 l 683 121 l 563 0 l 218 0 l 97 121 m 529 71 l 606 146 l 606 547 l 529 622 l 251 622 l 175 547 l 175 146 l 251 71 l 529 71 m 228 997 l 319 997 l 424 785 l 349 785 l 228 997 z "},"ỏ":{"ha":781,"x_min":97,"x_max":683,"o":"m 97 121 l 97 571 l 218 692 l 563 692 l 683 571 l 683 121 l 563 0 l 218 0 l 97 121 m 529 71 l 606 146 l 606 547 l 529 622 l 251 622 l 175 547 l 175 146 l 251 71 l 529 71 m 356 833 l 454 935 l 454 972 l 431 996 l 350 996 l 322 968 l 322 940 l 258 940 l 258 990 l 322 1054 l 458 1054 l 522 990 l 522 922 l 426 822 l 426 785 l 356 785 l 356 833 z "},"ơ":{"ha":875,"x_min":97,"x_max":875,"o":"m 875 706 l 875 569 l 767 461 l 683 461 l 683 121 l 563 0 l 218 0 l 97 121 l 97 571 l 218 692 l 563 692 l 683 571 l 683 529 l 732 529 l 800 596 l 800 706 l 875 706 m 606 547 l 529 622 l 251 622 l 175 547 l 175 146 l 251 71 l 529 71 l 606 146 l 606 547 z "},"ớ":{"ha":875,"x_min":97,"x_max":875,"o":"m 875 706 l 875 569 l 767 461 l 683 461 l 683 121 l 563 0 l 218 0 l 97 121 l 97 571 l 218 692 l 563 692 l 683 571 l 683 529 l 732 529 l 800 596 l 800 706 l 875 706 m 606 547 l 529 622 l 251 622 l 175 547 l 175 146 l 251 71 l 529 71 l 606 146 l 606 547 m 461 997 l 551 997 l 431 785 l 357 785 l 461 997 z "},"ợ":{"ha":875,"x_min":97,"x_max":875,"o":"m 875 706 l 875 569 l 767 461 l 683 461 l 683 121 l 563 0 l 218 0 l 97 121 l 97 571 l 218 692 l 563 692 l 683 571 l 683 529 l 732 529 l 800 596 l 800 706 l 875 706 m 606 547 l 529 622 l 251 622 l 175 547 l 175 146 l 251 71 l 529 71 l 606 146 l 606 547 z "},"ờ":{"ha":875,"x_min":97,"x_max":875,"o":"m 875 706 l 875 569 l 767 461 l 683 461 l 683 121 l 563 0 l 218 0 l 97 121 l 97 571 l 218 692 l 563 692 l 683 571 l 683 529 l 732 529 l 800 596 l 800 706 l 875 706 m 606 547 l 529 622 l 251 622 l 175 547 l 175 146 l 251 71 l 529 71 l 606 146 l 606 547 m 228 997 l 319 997 l 424 785 l 349 785 l 228 997 z "},"ở":{"ha":875,"x_min":97,"x_max":875,"o":"m 875 706 l 875 569 l 767 461 l 683 461 l 683 121 l 563 0 l 218 0 l 97 121 l 97 571 l 218 692 l 563 692 l 683 571 l 683 529 l 732 529 l 800 596 l 800 706 l 875 706 m 606 547 l 529 622 l 251 622 l 175 547 l 175 146 l 251 71 l 529 71 l 606 146 l 606 547 m 356 833 l 454 935 l 454 972 l 431 996 l 350 996 l 322 968 l 322 940 l 258 940 l 258 990 l 322 1054 l 458 1054 l 522 990 l 522 922 l 426 822 l 426 785 l 356 785 l 356 833 z "},"ỡ":{"ha":875,"x_min":97,"x_max":875,"o":"m 875 706 l 875 569 l 767 461 l 683 461 l 683 121 l 563 0 l 218 0 l 97 121 l 97 571 l 218 692 l 563 692 l 683 571 l 683 529 l 732 529 l 800 596 l 800 706 l 875 706 m 606 547 l 529 622 l 251 622 l 175 547 l 175 146 l 251 71 l 529 71 l 606 146 l 606 547 m 335 868 l 307 868 l 279 840 l 279 807 l 214 807 l 214 858 l 281 925 l 358 925 l 447 856 l 476 856 l 504 883 l 504 918 l 568 918 l 568 865 l 501 799 l 425 799 l 335 868 z "},"ő":{"ha":781,"x_min":97,"x_max":683,"o":"m 97 121 l 97 571 l 218 692 l 563 692 l 683 571 l 683 121 l 563 0 l 218 0 l 97 121 m 529 71 l 606 146 l 606 547 l 529 622 l 251 622 l 175 547 l 175 146 l 251 71 l 529 71 m 360 997 l 449 997 l 326 785 l 254 785 l 360 997 m 561 997 l 649 997 l 528 785 l 454 785 l 561 997 z "},"ō":{"ha":781,"x_min":97,"x_max":683,"o":"m 97 121 l 97 571 l 218 692 l 563 692 l 683 571 l 683 121 l 563 0 l 218 0 l 97 121 m 529 71 l 606 146 l 606 547 l 529 622 l 251 622 l 175 547 l 175 146 l 251 71 l 529 71 m 210 874 l 574 874 l 574 810 l 210 810 l 210 874 z "},"ø":{"ha":781,"x_min":28,"x_max":747,"o":"m 642 613 l 683 571 l 683 121 l 563 0 l 218 0 l 183 35 l 113 -56 l 28 -56 l 136 82 l 97 121 l 97 571 l 218 692 l 563 692 l 594 660 l 663 747 l 747 747 l 642 613 m 182 139 l 549 603 l 529 622 l 251 622 l 175 547 l 175 146 l 182 139 m 596 557 l 229 93 l 251 71 l 529 71 l 606 146 l 606 547 l 596 557 z "},"ǿ":{"ha":781,"x_min":28,"x_max":747,"o":"m 642 613 l 683 571 l 683 121 l 563 0 l 218 0 l 183 35 l 113 -56 l 28 -56 l 136 82 l 97 121 l 97 571 l 218 692 l 563 692 l 594 660 l 663 747 l 747 747 l 642 613 m 182 139 l 549 603 l 529 622 l 251 622 l 175 547 l 175 146 l 182 139 m 596 557 l 229 93 l 251 71 l 529 71 l 606 146 l 606 547 l 596 557 m 461 997 l 551 997 l 431 785 l 357 785 l 461 997 z "},"õ":{"ha":781,"x_min":97,"x_max":683,"o":"m 97 121 l 97 571 l 218 692 l 563 692 l 683 571 l 683 121 l 563 0 l 218 0 l 97 121 m 529 71 l 606 146 l 606 547 l 529 622 l 251 622 l 175 547 l 175 146 l 251 71 l 529 71 m 335 868 l 307 868 l 279 840 l 279 807 l 214 807 l 214 858 l 281 925 l 358 925 l 447 856 l 476 856 l 504 883 l 504 918 l 568 918 l 568 865 l 501 799 l 425 799 l 335 868 z "},"œ":{"ha":1261,"x_min":97,"x_max":1171,"o":"m 683 325 l 683 147 l 760 71 l 1014 71 l 1092 146 l 1092 207 l 1169 207 l 1169 122 l 1049 0 l 726 0 l 644 82 l 563 0 l 218 0 l 97 121 l 97 571 l 218 692 l 563 692 l 644 610 l 726 692 l 1049 692 l 1171 571 l 1171 325 l 683 325 m 606 146 l 606 547 l 529 622 l 251 622 l 175 547 l 175 146 l 251 71 l 529 71 l 606 146 m 683 546 l 683 393 l 1093 393 l 1093 546 l 1017 622 l 760 622 l 683 546 z "},"p":{"ha":794,"x_min":111,"x_max":697,"o":"m 111 692 l 188 692 l 188 558 l 321 692 l 576 692 l 697 571 l 697 121 l 576 0 l 311 0 l 189 108 l 189 -294 l 111 -294 l 111 692 m 543 71 l 619 146 l 619 546 l 543 622 l 344 622 l 189 467 l 189 199 l 329 71 l 543 71 z "},"þ":{"ha":794,"x_min":111,"x_max":697,"o":"m 111 986 l 188 986 l 188 558 l 321 692 l 576 692 l 697 571 l 697 121 l 576 0 l 311 0 l 189 110 l 189 -294 l 111 -294 l 111 986 m 543 71 l 619 146 l 619 546 l 543 622 l 344 622 l 189 467 l 189 199 l 329 71 l 543 71 z "},"q":{"ha":785,"x_min":97,"x_max":681,"o":"m 603 147 l 456 0 l 218 0 l 97 121 l 97 571 l 218 692 l 560 692 l 681 571 l 681 -294 l 603 -294 l 603 147 m 433 71 l 603 243 l 603 547 l 526 622 l 251 622 l 175 547 l 175 146 l 251 71 l 433 71 z "},"r":{"ha":524,"x_min":111,"x_max":489,"o":"m 111 692 l 188 692 l 188 563 l 318 692 l 489 692 l 489 622 l 340 622 l 189 472 l 189 0 l 111 0 l 111 692 z "},"ŕ":{"ha":524,"x_min":111,"x_max":489,"o":"m 111 692 l 188 692 l 188 563 l 318 692 l 489 692 l 489 622 l 340 622 l 189 472 l 189 0 l 111 0 l 111 692 m 364 997 l 454 997 l 333 785 l 260 785 l 364 997 z "},"ř":{"ha":524,"x_min":111,"x_max":489,"o":"m 111 692 l 188 692 l 188 563 l 318 692 l 489 692 l 489 622 l 340 622 l 189 472 l 189 0 l 111 0 l 111 692 m 124 969 l 200 969 l 290 839 l 299 839 l 389 969 l 465 969 l 336 785 l 253 785 l 124 969 z "},"ŗ":{"ha":524,"x_min":92,"x_max":489,"o":"m 111 692 l 188 692 l 188 563 l 318 692 l 489 692 l 489 622 l 340 622 l 189 472 l 189 0 l 111 0 l 111 692 z "},"ṛ":{"ha":524,"x_min":93,"x_max":489,"o":"m 111 692 l 188 692 l 188 563 l 318 692 l 489 692 l 489 622 l 340 622 l 189 472 l 189 0 l 111 0 l 111 692 z "},"ṝ":{"ha":524,"x_min":93,"x_max":489,"o":"m 111 692 l 188 692 l 188 563 l 318 692 l 489 692 l 489 622 l 340 622 l 189 472 l 189 0 l 111 0 l 111 692 m 113 874 l 476 874 l 476 810 l 113 810 l 113 874 z "},"ṟ":{"ha":524,"x_min":-31,"x_max":489,"o":"m 111 692 l 188 692 l 188 563 l 318 692 l 489 692 l 489 622 l 340 622 l 189 472 l 189 0 l 111 0 l 111 692 z "},"s":{"ha":700,"x_min":76,"x_max":624,"o":"m 76 107 l 76 193 l 154 193 l 154 131 l 217 69 l 483 69 l 546 131 l 546 253 l 483 315 l 185 315 l 82 418 l 82 585 l 190 692 l 503 692 l 610 585 l 610 499 l 532 499 l 532 561 l 469 624 l 224 624 l 160 561 l 160 444 l 224 382 l 515 382 l 624 274 l 624 108 l 515 0 l 183 0 l 76 107 z "},"ś":{"ha":700,"x_min":76,"x_max":624,"o":"m 76 107 l 76 193 l 154 193 l 154 131 l 217 69 l 483 69 l 546 131 l 546 253 l 483 315 l 185 315 l 82 418 l 82 585 l 190 692 l 503 692 l 610 585 l 610 499 l 532 499 l 532 561 l 469 624 l 224 624 l 160 561 l 160 444 l 224 382 l 515 382 l 624 274 l 624 108 l 515 0 l 183 0 l 76 107 m 415 997 l 506 997 l 385 785 l 311 785 l 415 997 z "},"š":{"ha":700,"x_min":76,"x_max":624,"o":"m 76 107 l 76 193 l 154 193 l 154 131 l 217 69 l 483 69 l 546 131 l 546 253 l 483 315 l 185 315 l 82 418 l 82 585 l 190 692 l 503 692 l 610 585 l 610 499 l 532 499 l 532 561 l 469 624 l 224 624 l 160 561 l 160 444 l 224 382 l 515 382 l 624 274 l 624 108 l 515 0 l 183 0 l 76 107 m 174 969 l 250 969 l 340 839 l 349 839 l 439 969 l 515 969 l 386 785 l 303 785 l 174 969 z "},"ş":{"ha":700,"x_min":76,"x_max":624,"o":"m 389 0 l 358 -78 l 454 -78 l 521 -144 l 521 -243 l 453 -311 l 260 -311 l 260 -254 l 425 -254 l 456 -224 l 456 -167 l 425 -136 l 285 -136 l 285 -86 l 318 0 l 183 0 l 76 107 l 76 193 l 154 193 l 154 131 l 217 69 l 483 69 l 546 131 l 546 253 l 483 315 l 185 315 l 82 418 l 82 585 l 190 692 l 503 692 l 610 585 l 610 499 l 532 499 l 532 561 l 469 624 l 224 624 l 160 561 l 160 444 l 224 382 l 515 382 l 624 274 l 624 108 l 515 0 l 389 0 z "},"ŝ":{"ha":700,"x_min":76,"x_max":624,"o":"m 76 107 l 76 193 l 154 193 l 154 131 l 217 69 l 483 69 l 546 131 l 546 253 l 483 315 l 185 315 l 82 418 l 82 585 l 190 692 l 503 692 l 610 585 l 610 499 l 532 499 l 532 561 l 469 624 l 224 624 l 160 561 l 160 444 l 224 382 l 515 382 l 624 274 l 624 108 l 515 0 l 183 0 l 76 107 m 303 969 l 386 969 l 515 785 l 439 785 l 349 917 l 340 917 l 250 785 l 174 785 l 303 969 z "},"ș":{"ha":700,"x_min":76,"x_max":624,"o":"m 76 107 l 76 193 l 154 193 l 154 131 l 217 69 l 483 69 l 546 131 l 546 253 l 483 315 l 185 315 l 82 418 l 82 585 l 190 692 l 503 692 l 610 585 l 610 499 l 532 499 l 532 561 l 469 624 l 224 624 l 160 561 l 160 444 l 224 382 l 515 382 l 624 274 l 624 108 l 515 0 l 183 0 l 76 107 z "},"ṡ":{"ha":700,"x_min":76,"x_max":624,"o":"m 76 107 l 76 193 l 154 193 l 154 131 l 217 69 l 483 69 l 546 131 l 546 253 l 483 315 l 185 315 l 82 418 l 82 585 l 190 692 l 503 692 l 610 585 l 610 499 l 532 499 l 532 561 l 469 624 l 224 624 l 160 561 l 160 444 l 224 382 l 515 382 l 624 274 l 624 108 l 515 0 l 183 0 l 76 107 m 286 833 l 286 885 l 317 917 l 369 917 l 401 885 l 401 833 l 369 801 l 317 801 l 286 833 z "},"ṣ":{"ha":700,"x_min":76,"x_max":624,"o":"m 76 107 l 76 193 l 154 193 l 154 131 l 217 69 l 483 69 l 546 131 l 546 253 l 483 315 l 185 315 l 82 418 l 82 585 l 190 692 l 503 692 l 610 585 l 610 499 l 532 499 l 532 561 l 469 624 l 224 624 l 160 561 l 160 444 l 224 382 l 515 382 l 624 274 l 624 108 l 515 0 l 183 0 l 76 107 z "},"ß":{"ha":857,"x_min":118,"x_max":801,"o":"m 118 853 l 232 967 l 556 967 l 669 853 l 669 707 l 557 546 l 557 490 l 590 457 l 694 457 l 801 350 l 801 107 l 694 0 l 481 0 l 374 107 l 374 189 l 451 189 l 451 129 l 515 68 l 660 68 l 724 129 l 724 328 l 661 390 l 554 390 l 479 465 l 479 557 l 592 717 l 592 829 l 522 899 l 265 899 l 196 829 l 196 0 l 118 0 l 118 853 z "},"t":{"ha":531,"x_min":49,"x_max":468,"o":"m 174 121 l 174 624 l 49 624 l 49 692 l 176 692 l 176 917 l 251 917 l 251 692 l 468 692 l 468 622 l 251 622 l 251 146 l 328 69 l 468 69 l 468 0 l 294 0 l 174 121 z "},"ŧ":{"ha":531,"x_min":49,"x_max":468,"o":"m 251 622 l 251 371 l 468 371 l 468 306 l 251 306 l 251 146 l 328 69 l 468 69 l 468 0 l 294 0 l 174 121 l 174 306 l 49 306 l 49 371 l 174 371 l 174 624 l 49 624 l 49 692 l 176 692 l 176 917 l 251 917 l 251 692 l 468 692 l 468 622 l 251 622 z "},"ť":{"ha":706,"x_min":49,"x_max":678,"o":"m 174 121 l 174 624 l 49 624 l 49 692 l 176 692 l 176 917 l 251 917 l 251 692 l 468 692 l 468 622 l 251 622 l 251 146 l 328 69 l 468 69 l 468 0 l 294 0 l 174 121 z "},"ţ":{"ha":531,"x_min":49,"x_max":468,"o":"m 251 622 l 251 146 l 328 69 l 468 69 l 468 0 l 335 0 l 303 -78 l 400 -78 l 467 -144 l 467 -243 l 399 -311 l 204 -311 l 204 -254 l 369 -254 l 400 -224 l 400 -167 l 369 -136 l 231 -136 l 231 -86 l 272 22 l 174 121 l 174 624 l 49 624 l 49 692 l 176 692 l 176 917 l 251 917 l 251 692 l 468 692 l 468 622 l 251 622 z "},"ț":{"ha":531,"x_min":49,"x_max":468,"o":"m 174 121 l 174 624 l 49 624 l 49 692 l 176 692 l 176 917 l 251 917 l 251 692 l 468 692 l 468 622 l 251 622 l 251 146 l 328 69 l 468 69 l 468 0 l 294 0 l 174 121 z "},"ẗ":{"ha":531,"x_min":32,"x_max":468,"o":"m 174 121 l 174 624 l 49 624 l 49 692 l 176 692 l 176 917 l 251 917 l 251 692 l 468 692 l 468 622 l 251 622 l 251 146 l 328 69 l 468 69 l 468 0 l 294 0 l 174 121 m 32 1063 l 32 1113 l 65 1144 l 115 1144 l 146 1113 l 146 1063 l 115 1031 l 65 1031 l 32 1063 m 299 1063 l 299 1113 l 329 1144 l 379 1144 l 413 1113 l 413 1063 l 379 1031 l 329 1031 l 299 1063 z "},"ṭ":{"ha":531,"x_min":49,"x_max":468,"o":"m 174 121 l 174 624 l 49 624 l 49 692 l 176 692 l 176 917 l 251 917 l 251 692 l 468 692 l 468 622 l 251 622 l 251 146 l 328 69 l 468 69 l 468 0 l 294 0 l 174 121 z "},"ṯ":{"ha":531,"x_min":49,"x_max":485,"o":"m 174 121 l 174 624 l 49 624 l 49 692 l 176 692 l 176 917 l 251 917 l 251 692 l 468 692 l 468 622 l 251 622 l 251 146 l 328 69 l 468 69 l 468 0 l 294 0 l 174 121 z "},"u":{"ha":776,"x_min":104,"x_max":665,"o":"m 104 121 l 104 692 l 182 692 l 182 146 l 258 71 l 404 71 l 588 254 l 588 692 l 665 692 l 665 0 l 589 0 l 589 161 l 428 0 l 225 0 l 104 121 z "},"ú":{"ha":776,"x_min":104,"x_max":665,"o":"m 104 121 l 104 692 l 182 692 l 182 146 l 258 71 l 404 71 l 588 254 l 588 692 l 665 692 l 665 0 l 589 0 l 589 161 l 428 0 l 225 0 l 104 121 m 456 997 l 546 997 l 425 785 l 351 785 l 456 997 z "},"ŭ":{"ha":776,"x_min":104,"x_max":665,"o":"m 104 121 l 104 692 l 182 692 l 182 146 l 258 71 l 404 71 l 588 254 l 588 692 l 665 692 l 665 0 l 589 0 l 589 161 l 428 0 l 225 0 l 104 121 m 207 881 l 207 957 l 274 957 l 274 901 l 331 844 l 442 844 l 499 901 l 499 957 l 565 957 l 565 881 l 471 785 l 303 785 l 207 881 z "},"ǔ":{"ha":776,"x_min":104,"x_max":665,"o":"m 104 121 l 104 692 l 182 692 l 182 146 l 258 71 l 404 71 l 588 254 l 588 692 l 665 692 l 665 0 l 589 0 l 589 161 l 428 0 l 225 0 l 104 121 m 215 969 l 292 969 l 382 839 l 390 839 l 481 969 l 557 969 l 428 785 l 344 785 l 215 969 z "},"û":{"ha":776,"x_min":104,"x_max":665,"o":"m 104 121 l 104 692 l 182 692 l 182 146 l 258 71 l 404 71 l 588 254 l 588 692 l 665 692 l 665 0 l 589 0 l 589 161 l 428 0 l 225 0 l 104 121 m 344 969 l 428 969 l 557 785 l 481 785 l 390 917 l 382 917 l 292 785 l 215 785 l 344 969 z "},"ü":{"ha":776,"x_min":104,"x_max":665,"o":"m 104 121 l 104 692 l 182 692 l 182 146 l 258 71 l 404 71 l 588 254 l 588 692 l 665 692 l 665 0 l 589 0 l 589 161 l 428 0 l 225 0 l 104 121 m 196 838 l 196 888 l 229 919 l 279 919 l 310 888 l 310 838 l 279 806 l 229 806 l 196 838 m 463 838 l 463 888 l 493 919 l 543 919 l 576 888 l 576 838 l 543 806 l 493 806 l 463 838 z "},"ǘ":{"ha":776,"x_min":104,"x_max":665,"o":"m 104 121 l 104 692 l 182 692 l 182 146 l 258 71 l 404 71 l 588 254 l 588 692 l 665 692 l 665 0 l 589 0 l 589 161 l 428 0 l 225 0 l 104 121 m 436 1149 l 519 1149 l 418 974 l 350 974 l 436 1149 m 196 838 l 196 888 l 229 919 l 279 919 l 310 888 l 310 838 l 279 806 l 229 806 l 196 838 m 463 838 l 463 888 l 493 919 l 543 919 l 576 888 l 576 838 l 543 806 l 493 806 l 463 838 z "},"ǚ":{"ha":776,"x_min":104,"x_max":665,"o":"m 104 121 l 104 692 l 182 692 l 182 146 l 258 71 l 404 71 l 588 254 l 588 692 l 665 692 l 665 0 l 589 0 l 589 161 l 428 0 l 225 0 l 104 121 m 219 1138 l 296 1138 l 382 1024 l 390 1024 l 476 1138 l 553 1138 l 425 974 l 347 974 l 219 1138 m 196 838 l 196 888 l 229 919 l 279 919 l 310 888 l 310 838 l 279 806 l 229 806 l 196 838 m 463 838 l 463 888 l 493 919 l 543 919 l 576 888 l 576 838 l 543 806 l 493 806 l 463 838 z "},"ǜ":{"ha":776,"x_min":104,"x_max":665,"o":"m 104 121 l 104 692 l 182 692 l 182 146 l 258 71 l 404 71 l 588 254 l 588 692 l 665 692 l 665 0 l 589 0 l 589 161 l 428 0 l 225 0 l 104 121 m 256 1149 l 339 1149 l 425 974 l 358 974 l 256 1149 m 196 838 l 196 888 l 229 919 l 279 919 l 310 888 l 310 838 l 279 806 l 229 806 l 196 838 m 463 838 l 463 888 l 493 919 l 543 919 l 576 888 l 576 838 l 543 806 l 493 806 l 463 838 z "},"ǖ":{"ha":776,"x_min":104,"x_max":665,"o":"m 104 121 l 104 692 l 182 692 l 182 146 l 258 71 l 404 71 l 588 254 l 588 692 l 665 692 l 665 0 l 589 0 l 589 161 l 428 0 l 225 0 l 104 121 m 204 1082 l 568 1082 l 568 1019 l 204 1019 l 204 1082 m 196 838 l 196 888 l 228 919 l 278 919 l 310 888 l 310 838 l 278 806 l 228 806 l 196 838 m 461 838 l 461 888 l 493 919 l 543 919 l 575 888 l 575 838 l 543 806 l 493 806 l 461 838 z "},"ụ":{"ha":776,"x_min":104,"x_max":665,"o":"m 104 121 l 104 692 l 182 692 l 182 146 l 258 71 l 404 71 l 588 254 l 588 692 l 665 692 l 665 0 l 589 0 l 589 161 l 428 0 l 225 0 l 104 121 z "},"ù":{"ha":776,"x_min":104,"x_max":665,"o":"m 104 121 l 104 692 l 182 692 l 182 146 l 258 71 l 404 71 l 588 254 l 588 692 l 665 692 l 665 0 l 589 0 l 589 161 l 428 0 l 225 0 l 104 121 m 242 997 l 333 997 l 438 785 l 363 785 l 242 997 z "},"ủ":{"ha":776,"x_min":104,"x_max":665,"o":"m 104 121 l 104 692 l 182 692 l 182 146 l 258 71 l 404 71 l 588 254 l 588 692 l 665 692 l 665 0 l 589 0 l 589 161 l 428 0 l 225 0 l 104 121 m 351 833 l 450 935 l 450 972 l 426 996 l 346 996 l 318 968 l 318 940 l 254 940 l 254 990 l 318 1054 l 454 1054 l 518 990 l 518 922 l 422 822 l 422 785 l 351 785 l 351 833 z "},"ư":{"ha":875,"x_min":104,"x_max":857,"o":"m 857 706 l 857 569 l 749 461 l 665 461 l 665 0 l 589 0 l 589 161 l 428 0 l 225 0 l 104 121 l 104 692 l 182 692 l 182 146 l 258 71 l 404 71 l 588 254 l 588 692 l 665 692 l 665 529 l 714 529 l 782 596 l 782 706 l 857 706 z "},"ứ":{"ha":875,"x_min":104,"x_max":857,"o":"m 857 706 l 857 569 l 749 461 l 665 461 l 665 0 l 589 0 l 589 161 l 428 0 l 225 0 l 104 121 l 104 692 l 182 692 l 182 146 l 258 71 l 404 71 l 588 254 l 588 692 l 665 692 l 665 529 l 714 529 l 782 596 l 782 706 l 857 706 m 456 997 l 546 997 l 425 785 l 351 785 l 456 997 z "},"ự":{"ha":875,"x_min":104,"x_max":857,"o":"m 857 706 l 857 569 l 749 461 l 665 461 l 665 0 l 589 0 l 589 161 l 428 0 l 225 0 l 104 121 l 104 692 l 182 692 l 182 146 l 258 71 l 404 71 l 588 254 l 588 692 l 665 692 l 665 529 l 714 529 l 782 596 l 782 706 l 857 706 z "},"ừ":{"ha":875,"x_min":104,"x_max":857,"o":"m 857 706 l 857 569 l 749 461 l 665 461 l 665 0 l 589 0 l 589 161 l 428 0 l 225 0 l 104 121 l 104 692 l 182 692 l 182 146 l 258 71 l 404 71 l 588 254 l 588 692 l 665 692 l 665 529 l 714 529 l 782 596 l 782 706 l 857 706 m 242 997 l 333 997 l 438 785 l 363 785 l 242 997 z "},"ử":{"ha":875,"x_min":104,"x_max":857,"o":"m 857 706 l 857 569 l 749 461 l 665 461 l 665 0 l 589 0 l 589 161 l 428 0 l 225 0 l 104 121 l 104 692 l 182 692 l 182 146 l 258 71 l 404 71 l 588 254 l 588 692 l 665 692 l 665 529 l 714 529 l 782 596 l 782 706 l 857 706 m 351 833 l 450 935 l 450 972 l 426 996 l 346 996 l 318 968 l 318 940 l 254 940 l 254 990 l 318 1054 l 454 1054 l 518 990 l 518 922 l 422 822 l 422 785 l 351 785 l 351 833 z "},"ữ":{"ha":875,"x_min":104,"x_max":857,"o":"m 857 706 l 857 569 l 749 461 l 665 461 l 665 0 l 589 0 l 589 161 l 428 0 l 225 0 l 104 121 l 104 692 l 182 692 l 182 146 l 258 71 l 404 71 l 588 254 l 588 692 l 665 692 l 665 529 l 714 529 l 782 596 l 782 706 l 857 706 m 329 868 l 301 868 l 274 840 l 274 807 l 208 807 l 208 858 l 275 925 l 353 925 l 442 856 l 471 856 l 499 883 l 499 918 l 563 918 l 563 865 l 496 799 l 419 799 l 329 868 z "},"ű":{"ha":776,"x_min":104,"x_max":665,"o":"m 104 121 l 104 692 l 182 692 l 182 146 l 258 71 l 404 71 l 588 254 l 588 692 l 665 692 l 665 0 l 589 0 l 589 161 l 428 0 l 225 0 l 104 121 m 356 997 l 444 997 l 322 785 l 250 785 l 356 997 m 557 997 l 644 997 l 524 785 l 450 785 l 557 997 z "},"ū":{"ha":776,"x_min":104,"x_max":665,"o":"m 104 121 l 104 692 l 182 692 l 182 146 l 258 71 l 404 71 l 588 254 l 588 692 l 665 692 l 665 0 l 589 0 l 589 161 l 428 0 l 225 0 l 104 121 m 204 874 l 568 874 l 568 810 l 204 810 l 204 874 z "},"ų":{"ha":776,"x_min":104,"x_max":719,"o":"m 104 121 l 104 692 l 182 692 l 182 146 l 258 71 l 404 71 l 588 254 l 588 692 l 665 692 l 665 0 l 589 0 l 589 161 l 428 0 l 225 0 l 104 121 m 518 -176 l 518 -85 l 593 0 l 665 0 l 589 -96 l 589 -156 l 626 -193 l 719 -193 l 719 -251 l 593 -251 l 518 -176 z "},"ů":{"ha":776,"x_min":104,"x_max":665,"o":"m 104 121 l 104 692 l 182 692 l 182 146 l 258 71 l 404 71 l 588 254 l 588 692 l 665 692 l 665 0 l 589 0 l 589 161 l 428 0 l 225 0 l 104 121 m 256 846 l 256 956 l 329 1029 l 443 1029 l 517 956 l 517 846 l 443 771 l 329 771 l 256 846 m 421 828 l 458 865 l 458 935 l 421 972 l 351 972 l 314 935 l 314 865 l 351 828 l 421 828 z "},"ũ":{"ha":776,"x_min":104,"x_max":665,"o":"m 104 121 l 104 692 l 182 692 l 182 146 l 258 71 l 404 71 l 588 254 l 588 692 l 665 692 l 665 0 l 589 0 l 589 161 l 428 0 l 225 0 l 104 121 m 329 868 l 301 868 l 274 840 l 274 807 l 208 807 l 208 858 l 275 925 l 353 925 l 442 856 l 471 856 l 499 883 l 499 918 l 563 918 l 563 865 l 496 799 l 419 799 l 329 868 z "},"v":{"ha":651,"x_min":28,"x_max":624,"o":"m 28 692 l 110 692 l 324 75 l 329 75 l 543 692 l 624 692 l 376 0 l 278 0 l 28 692 z "},"w":{"ha":964,"x_min":56,"x_max":908,"o":"m 56 692 l 136 692 l 263 90 l 267 90 l 446 692 l 524 692 l 686 90 l 690 90 l 828 692 l 908 692 l 736 0 l 650 0 l 486 599 l 483 599 l 303 0 l 215 0 l 56 692 z "},"ẃ":{"ha":964,"x_min":56,"x_max":908,"o":"m 56 692 l 136 692 l 263 90 l 267 90 l 446 692 l 524 692 l 686 90 l 690 90 l 828 692 l 908 692 l 736 0 l 650 0 l 486 599 l 483 599 l 303 0 l 215 0 l 56 692 m 553 997 l 643 997 l 522 785 l 449 785 l 553 997 z "},"ŵ":{"ha":964,"x_min":56,"x_max":908,"o":"m 56 692 l 136 692 l 263 90 l 267 90 l 446 692 l 524 692 l 686 90 l 690 90 l 828 692 l 908 692 l 736 0 l 650 0 l 486 599 l 483 599 l 303 0 l 215 0 l 56 692 m 442 969 l 525 969 l 654 785 l 578 785 l 488 917 l 479 917 l 389 785 l 313 785 l 442 969 z "},"ẅ":{"ha":964,"x_min":56,"x_max":908,"o":"m 56 692 l 136 692 l 263 90 l 267 90 l 446 692 l 524 692 l 686 90 l 690 90 l 828 692 l 908 692 l 736 0 l 650 0 l 486 599 l 483 599 l 303 0 l 215 0 l 56 692 m 293 838 l 293 888 l 326 919 l 376 919 l 407 888 l 407 838 l 376 806 l 326 806 l 293 838 m 560 838 l 560 888 l 590 919 l 640 919 l 674 888 l 674 838 l 640 806 l 590 806 l 560 838 z "},"ẁ":{"ha":964,"x_min":56,"x_max":908,"o":"m 56 692 l 136 692 l 263 90 l 267 90 l 446 692 l 524 692 l 686 90 l 690 90 l 828 692 l 908 692 l 736 0 l 650 0 l 486 599 l 483 599 l 303 0 l 215 0 l 56 692 m 321 997 l 413 997 l 517 785 l 442 785 l 321 997 z "},"x":{"ha":665,"x_min":35,"x_max":631,"o":"m 542 0 l 333 292 l 124 0 l 35 0 l 289 351 l 42 692 l 131 692 l 333 411 l 535 692 l 624 692 l 378 349 l 631 0 l 542 0 z "},"y":{"ha":779,"x_min":104,"x_max":668,"o":"m 668 692 l 668 -182 l 547 -301 l 224 -301 l 125 -204 l 125 -125 l 203 -125 l 203 -179 l 257 -232 l 514 -232 l 590 -157 l 590 164 l 426 0 l 225 0 l 104 121 l 104 692 l 182 692 l 182 146 l 258 71 l 404 71 l 590 258 l 590 692 l 668 692 z "},"ý":{"ha":779,"x_min":104,"x_max":668,"o":"m 668 692 l 668 -182 l 547 -301 l 224 -301 l 125 -204 l 125 -125 l 203 -125 l 203 -179 l 257 -232 l 514 -232 l 590 -157 l 590 164 l 426 0 l 225 0 l 104 121 l 104 692 l 182 692 l 182 146 l 258 71 l 404 71 l 590 258 l 590 692 l 668 692 m 458 997 l 549 997 l 428 785 l 354 785 l 458 997 z "},"ŷ":{"ha":779,"x_min":104,"x_max":668,"o":"m 668 692 l 668 -182 l 547 -301 l 224 -301 l 125 -204 l 125 -125 l 203 -125 l 203 -179 l 257 -232 l 514 -232 l 590 -157 l 590 164 l 426 0 l 225 0 l 104 121 l 104 692 l 182 692 l 182 146 l 258 71 l 404 71 l 590 258 l 590 692 l 668 692 m 347 969 l 431 969 l 560 785 l 483 785 l 393 917 l 385 917 l 294 785 l 218 785 l 347 969 z "},"ÿ":{"ha":779,"x_min":104,"x_max":668,"o":"m 668 692 l 668 -182 l 547 -301 l 224 -301 l 125 -204 l 125 -125 l 203 -125 l 203 -179 l 257 -232 l 514 -232 l 590 -157 l 590 164 l 426 0 l 225 0 l 104 121 l 104 692 l 182 692 l 182 146 l 258 71 l 404 71 l 590 258 l 590 692 l 668 692 m 199 838 l 199 888 l 232 919 l 282 919 l 313 888 l 313 838 l 282 806 l 232 806 l 199 838 m 465 838 l 465 888 l 496 919 l 546 919 l 579 888 l 579 838 l 546 806 l 496 806 l 465 838 z "},"ẏ":{"ha":779,"x_min":104,"x_max":668,"o":"m 668 692 l 668 -182 l 547 -301 l 224 -301 l 125 -204 l 125 -125 l 203 -125 l 203 -179 l 257 -232 l 514 -232 l 590 -157 l 590 164 l 426 0 l 225 0 l 104 121 l 104 692 l 182 692 l 182 146 l 258 71 l 404 71 l 590 258 l 590 692 l 668 692 m 331 833 l 331 885 l 361 917 l 414 917 l 446 885 l 446 833 l 414 801 l 361 801 l 331 833 z "},"ỵ":{"ha":779,"x_min":104,"x_max":668,"o":"m 668 692 l 668 -182 l 547 -301 l 224 -301 l 125 -204 l 125 -125 l 203 -125 l 203 -179 l 257 -232 l 514 -232 l 590 -157 l 590 164 l 426 0 l 225 0 l 104 121 l 104 692 l 182 692 l 182 146 l 258 71 l 404 71 l 590 258 l 590 692 l 668 692 z "},"ỳ":{"ha":779,"x_min":104,"x_max":668,"o":"m 668 692 l 668 -182 l 547 -301 l 224 -301 l 125 -204 l 125 -125 l 203 -125 l 203 -179 l 257 -232 l 514 -232 l 590 -157 l 590 164 l 426 0 l 225 0 l 104 121 l 104 692 l 182 692 l 182 146 l 258 71 l 404 71 l 590 258 l 590 692 l 668 692 m 242 997 l 333 997 l 438 785 l 363 785 l 242 997 z "},"ỷ":{"ha":779,"x_min":104,"x_max":668,"o":"m 668 692 l 668 -182 l 547 -301 l 224 -301 l 125 -204 l 125 -125 l 203 -125 l 203 -179 l 257 -232 l 514 -232 l 590 -157 l 590 164 l 426 0 l 225 0 l 104 121 l 104 692 l 182 692 l 182 146 l 258 71 l 404 71 l 590 258 l 590 692 l 668 692 m 354 833 l 453 935 l 453 972 l 429 996 l 349 996 l 321 968 l 321 940 l 257 940 l 257 990 l 321 1054 l 457 1054 l 521 990 l 521 922 l 425 822 l 425 785 l 354 785 l 354 833 z "},"ỹ":{"ha":779,"x_min":104,"x_max":668,"o":"m 668 692 l 668 -182 l 547 -301 l 224 -301 l 125 -204 l 125 -125 l 203 -125 l 203 -179 l 257 -232 l 514 -232 l 590 -157 l 590 164 l 426 0 l 225 0 l 104 121 l 104 692 l 182 692 l 182 146 l 258 71 l 404 71 l 590 258 l 590 692 l 668 692 m 332 868 l 304 868 l 276 840 l 276 807 l 211 807 l 211 858 l 278 925 l 356 925 l 444 856 l 474 856 l 501 883 l 501 918 l 565 918 l 565 865 l 499 799 l 422 799 l 332 868 z "},"z":{"ha":647,"x_min":63,"x_max":585,"o":"m 63 76 l 497 624 l 497 626 l 76 626 l 76 692 l 585 692 l 585 615 l 150 69 l 150 67 l 585 67 l 585 0 l 63 0 l 63 76 z "},"ź":{"ha":647,"x_min":63,"x_max":585,"o":"m 63 76 l 497 624 l 497 626 l 76 626 l 76 692 l 585 692 l 585 615 l 150 69 l 150 67 l 585 67 l 585 0 l 63 0 l 63 76 m 400 997 l 490 997 l 369 785 l 296 785 l 400 997 z "},"ž":{"ha":647,"x_min":63,"x_max":585,"o":"m 63 76 l 497 624 l 497 626 l 76 626 l 76 692 l 585 692 l 585 615 l 150 69 l 150 67 l 585 67 l 585 0 l 63 0 l 63 76 m 160 969 l 236 969 l 326 839 l 335 839 l 425 969 l 501 969 l 372 785 l 289 785 l 160 969 z "},"ż":{"ha":647,"x_min":63,"x_max":585,"o":"m 63 76 l 497 624 l 497 626 l 76 626 l 76 692 l 585 692 l 585 615 l 150 69 l 150 67 l 585 67 l 585 0 l 63 0 l 63 76 m 272 833 l 272 885 l 303 917 l 356 917 l 388 885 l 388 833 l 356 801 l 303 801 l 272 833 z "},"ẓ":{"ha":647,"x_min":63,"x_max":585,"o":"m 63 76 l 497 624 l 497 626 l 76 626 l 76 692 l 585 692 l 585 615 l 150 69 l 150 67 l 585 67 l 585 0 l 63 0 l 63 76 z "},"ﬁ":{"ha":778,"x_min":49,"x_max":667,"o":"m 667 0 l 589 0 l 589 622 l 251 622 l 251 0 l 174 0 l 174 622 l 49 622 l 49 692 l 174 692 l 174 863 l 288 976 l 469 976 l 469 908 l 321 908 l 251 839 l 251 692 l 667 692 l 667 0 z "},"ﬂ":{"ha":803,"x_min":49,"x_max":685,"o":"m 685 0 l 607 0 l 607 919 l 321 919 l 251 850 l 251 692 l 469 692 l 469 622 l 251 622 l 251 0 l 174 0 l 174 622 l 49 622 l 49 692 l 174 692 l 174 872 l 288 986 l 685 986 l 685 0 z "},"ª":{"ha":571,"x_min":76,"x_max":488,"o":"m 76 567 l 76 689 l 156 767 l 414 767 l 414 861 l 368 907 l 200 907 l 154 861 l 154 821 l 81 821 l 81 882 l 171 972 l 397 972 l 488 882 l 488 488 l 418 488 l 418 574 l 329 488 l 156 488 l 76 567 m 317 553 l 414 647 l 414 706 l 189 706 l 151 668 l 151 589 l 188 553 l 317 553 z "},"º":{"ha":582,"x_min":76,"x_max":506,"o":"m 76 578 l 76 883 l 167 972 l 415 972 l 506 883 l 506 578 l 415 488 l 167 488 l 76 578 m 382 554 l 431 603 l 431 858 l 382 906 l 200 906 l 151 858 l 151 603 l 200 554 l 382 554 z "},"ⁿ":{"ha":581,"x_min":83,"x_max":497,"o":"m 83 972 l 156 972 l 156 869 l 257 972 l 404 972 l 497 881 l 497 488 l 422 488 l 422 858 l 375 906 l 276 906 l 158 786 l 158 488 l 83 488 l 83 972 z "},"Δ":{"ha":879,"x_min":56,"x_max":824,"o":"m 56 68 l 386 972 l 494 972 l 824 68 l 824 0 l 56 0 l 56 68 m 740 69 l 444 901 l 436 901 l 138 69 l 740 69 z "},"Ω":{"ha":949,"x_min":90,"x_max":858,"o":"m 90 69 l 269 69 l 269 225 l 115 379 l 115 850 l 238 972 l 710 972 l 833 850 l 833 379 l 678 225 l 678 69 l 858 69 l 858 0 l 603 0 l 603 253 l 756 406 l 756 819 l 672 903 l 276 903 l 193 819 l 193 406 l 344 253 l 344 0 l 90 0 l 90 69 z "},"μ":{"ha":783,"x_min":111,"x_max":672,"o":"m 672 692 l 672 0 l 596 0 l 596 154 l 442 0 l 253 0 l 189 64 l 189 -278 l 111 -278 l 111 692 l 189 692 l 189 160 l 279 71 l 419 71 l 594 247 l 594 692 l 672 692 z "},"π":{"ha":975,"x_min":83,"x_max":892,"o":"m 731 621 l 731 132 l 793 69 l 892 69 l 892 0 l 760 0 l 653 107 l 653 622 l 307 622 l 307 0 l 229 0 l 229 622 l 83 622 l 83 692 l 892 692 l 892 621 l 731 621 z "},"ก":{"ha":803,"x_min":76,"x_max":685,"o":"m 121 432 l 197 528 l 76 646 l 206 775 l 579 775 l 685 669 l 685 0 l 607 0 l 607 638 l 540 704 l 231 704 l 171 646 l 288 528 l 199 410 l 199 0 l 121 0 l 121 432 z "},"ข":{"ha":785,"x_min":56,"x_max":667,"o":"m 333 103 l 333 392 l 411 574 l 411 663 l 349 725 l 207 725 l 160 678 l 226 678 l 301 603 l 301 514 l 226 439 l 131 439 l 56 514 l 56 649 l 188 789 l 382 789 l 485 688 l 485 564 l 411 388 l 411 129 l 469 71 l 531 71 l 589 129 l 589 775 l 667 775 l 667 103 l 564 0 l 436 0 l 333 103 m 204 496 l 240 532 l 240 588 l 204 624 l 151 624 l 115 589 l 115 532 l 151 496 l 204 496 z "},"ฃ":{"ha":803,"x_min":49,"x_max":685,"o":"m 351 103 l 351 400 l 461 575 l 461 688 l 428 725 l 401 725 l 328 646 l 251 725 l 186 725 l 132 667 l 218 667 l 289 594 l 289 508 l 215 435 l 122 435 l 49 507 l 49 653 l 167 789 l 267 789 l 328 721 l 386 789 l 458 789 l 532 707 l 532 563 l 429 396 l 429 129 l 488 71 l 549 71 l 607 129 l 607 775 l 685 775 l 685 103 l 582 0 l 453 0 l 351 103 m 194 490 l 229 525 l 229 579 l 194 615 l 143 615 l 107 581 l 107 525 l 143 490 l 194 490 z "},"ค":{"ha":847,"x_min":118,"x_max":729,"o":"m 729 661 l 729 0 l 651 0 l 651 638 l 585 704 l 263 704 l 196 638 l 196 317 l 381 483 l 475 483 l 550 408 l 550 317 l 475 243 l 379 243 l 299 324 l 263 290 l 196 232 l 196 0 l 118 0 l 118 661 l 233 775 l 614 775 l 729 661 m 364 333 l 399 299 l 454 299 l 489 333 l 489 392 l 454 426 l 399 426 l 364 392 l 364 333 z "},"ฅ":{"ha":850,"x_min":118,"x_max":732,"o":"m 732 671 l 732 0 l 654 0 l 654 647 l 603 704 l 540 704 l 425 614 l 310 704 l 247 704 l 196 647 l 196 313 l 381 478 l 475 478 l 549 403 l 549 311 l 475 238 l 379 238 l 299 318 l 263 285 l 196 226 l 196 0 l 118 0 l 118 671 l 213 775 l 328 775 l 425 696 l 522 775 l 636 775 l 732 671 m 364 328 l 399 293 l 454 293 l 489 328 l 489 386 l 454 421 l 399 421 l 364 386 l 364 328 z "},"ฆ":{"ha":901,"x_min":63,"x_max":783,"o":"m 783 775 l 783 0 l 711 0 l 424 144 l 424 75 l 349 0 l 250 0 l 175 75 l 175 167 l 250 242 l 324 242 l 324 376 l 488 588 l 488 688 l 454 725 l 415 725 l 342 646 l 265 725 l 200 725 l 147 667 l 232 667 l 303 594 l 303 508 l 229 435 l 136 435 l 63 507 l 63 653 l 181 789 l 281 789 l 342 721 l 400 789 l 485 789 l 558 707 l 558 575 l 401 368 l 401 231 l 706 79 l 706 775 l 783 775 m 121 581 l 121 525 l 157 490 l 208 490 l 243 525 l 243 579 l 208 615 l 157 615 l 121 581 m 364 149 l 328 185 l 274 185 l 236 149 l 236 94 l 274 57 l 328 57 l 364 94 l 364 149 z "},"ง":{"ha":654,"x_min":42,"x_max":536,"o":"m 42 468 l 104 514 l 406 72 l 458 72 l 458 479 l 464 546 l 439 533 l 364 533 l 289 608 l 289 701 l 364 775 l 463 775 l 536 701 l 536 49 l 489 0 l 367 0 l 42 468 m 440 590 l 475 625 l 475 683 l 440 718 l 385 718 l 350 683 l 350 625 l 385 590 l 440 590 z "},"จ":{"ha":774,"x_min":49,"x_max":656,"o":"m 656 668 l 656 0 l 578 0 l 578 246 l 490 321 l 478 333 l 397 253 l 297 253 l 224 326 l 224 419 l 297 494 l 397 494 l 578 339 l 578 638 l 511 704 l 190 704 l 126 640 l 126 565 l 49 565 l 49 668 l 156 775 l 549 775 l 656 668 m 410 403 l 375 438 l 319 438 l 285 403 l 285 344 l 319 310 l 375 310 l 410 344 l 410 403 z "},"ฉ":{"ha":825,"x_min":69,"x_max":756,"o":"m 756 167 l 756 68 l 686 0 l 583 0 l 514 68 l 514 128 l 310 0 l 239 0 l 239 206 l 244 272 l 221 261 l 144 261 l 69 335 l 69 428 l 144 503 l 243 503 l 315 429 l 315 79 l 618 260 l 618 638 l 551 704 l 221 704 l 157 640 l 157 579 l 79 579 l 79 668 l 186 775 l 590 775 l 696 668 l 696 226 l 756 167 m 256 411 l 221 446 l 165 446 l 131 411 l 131 353 l 165 318 l 221 318 l 256 353 l 256 411 m 696 144 l 660 182 l 610 182 l 574 144 l 574 93 l 610 56 l 660 56 l 696 93 l 696 144 z "},"ช":{"ha":813,"x_min":56,"x_max":806,"o":"m 333 103 l 333 392 l 411 574 l 411 663 l 349 725 l 207 725 l 160 678 l 226 678 l 301 603 l 301 514 l 226 439 l 131 439 l 56 514 l 56 649 l 188 789 l 382 789 l 485 688 l 485 564 l 411 388 l 411 129 l 469 71 l 544 71 l 603 129 l 603 578 l 556 638 l 556 676 l 756 872 l 806 819 l 632 651 l 679 592 l 679 103 l 578 0 l 436 0 l 333 103 m 204 496 l 240 532 l 240 588 l 204 624 l 151 624 l 115 589 l 115 532 l 151 496 l 204 496 z "},"ซ":{"ha":832,"x_min":49,"x_max":825,"o":"m 351 103 l 351 400 l 461 575 l 461 688 l 428 725 l 401 725 l 328 646 l 251 725 l 186 725 l 132 667 l 218 667 l 289 594 l 289 508 l 215 435 l 122 435 l 49 507 l 49 653 l 167 789 l 267 789 l 328 721 l 386 789 l 458 789 l 532 707 l 532 563 l 429 396 l 429 129 l 488 71 l 564 71 l 622 129 l 622 578 l 581 638 l 581 676 l 775 872 l 825 819 l 656 651 l 699 592 l 699 103 l 597 0 l 453 0 l 351 103 m 194 490 l 229 525 l 229 579 l 194 615 l 143 615 l 107 581 l 107 525 l 143 490 l 194 490 z "},"ฌ":{"ha":1169,"x_min":76,"x_max":1051,"o":"m 1051 775 l 1051 0 l 978 0 l 703 143 l 703 75 l 628 0 l 529 0 l 454 75 l 454 167 l 529 242 l 601 242 l 601 638 l 536 704 l 231 704 l 171 646 l 288 528 l 193 410 l 193 293 l 189 231 l 215 242 l 288 242 l 363 169 l 363 75 l 288 0 l 190 0 l 115 75 l 115 429 l 197 528 l 76 646 l 206 775 l 574 775 l 679 669 l 679 231 l 974 79 l 974 775 l 1051 775 m 176 150 l 176 92 l 213 57 l 265 57 l 301 92 l 301 150 l 265 185 l 213 185 l 176 150 m 643 149 l 606 185 l 551 185 l 515 149 l 515 94 l 551 57 l 606 57 l 643 94 l 643 149 z "},"ญ":{"ha":1186,"x_min":76,"x_max":1085,"o":"m 115 75 l 115 429 l 197 528 l 76 646 l 206 775 l 558 775 l 664 669 l 664 136 l 728 72 l 926 72 l 990 136 l 990 775 l 1068 775 l 1068 107 l 961 0 l 692 0 l 586 107 l 586 638 l 519 704 l 231 704 l 171 646 l 288 528 l 193 410 l 193 293 l 189 231 l 215 242 l 288 242 l 363 169 l 363 75 l 288 0 l 190 0 l 115 75 m 265 57 l 301 92 l 301 150 l 265 185 l 213 185 l 176 150 l 176 92 l 213 57 l 265 57 m 583 -235 l 583 -142 l 649 -76 l 743 -76 l 808 -142 l 808 -219 l 806 -228 l 921 -228 l 1032 -114 l 1085 -167 l 956 -299 l 649 -299 l 583 -235 m 718 -246 l 750 -214 l 750 -162 l 718 -131 l 674 -131 l 642 -162 l 642 -214 l 674 -246 l 718 -246 z "},"ฎ":{"ha":861,"x_min":49,"x_max":743,"o":"m 154 -303 l 154 -208 l 228 -132 l 517 -132 l 665 -289 l 665 638 l 599 704 l 286 704 l 226 646 l 360 528 l 290 411 l 290 75 l 215 0 l 124 0 l 49 75 l 49 167 l 124 239 l 197 239 l 218 228 l 213 283 l 213 431 l 272 525 l 132 646 l 261 775 l 638 775 l 743 669 l 743 -381 l 674 -381 l 596 -303 l 524 -381 l 229 -381 l 154 -303 m 196 57 l 231 92 l 231 149 l 196 183 l 144 183 l 108 149 l 108 92 l 144 57 l 196 57 m 497 -318 l 551 -258 l 493 -194 l 260 -194 l 222 -233 l 222 -279 l 260 -318 l 497 -318 z "},"ฏ":{"ha":861,"x_min":49,"x_max":743,"o":"m 129 -306 l 129 -194 l 204 -119 l 326 -119 l 497 -294 l 572 -207 l 665 -294 l 665 638 l 599 704 l 286 704 l 226 646 l 360 528 l 290 411 l 290 75 l 215 0 l 124 0 l 49 75 l 49 167 l 124 239 l 197 239 l 218 228 l 213 283 l 213 431 l 272 525 l 132 646 l 261 775 l 638 775 l 743 669 l 743 -381 l 668 -381 l 575 -292 l 497 -381 l 411 -294 l 318 -381 l 204 -381 l 129 -306 m 196 57 l 231 92 l 231 149 l 196 183 l 144 183 l 108 149 l 108 92 l 144 57 l 196 57 m 299 -321 l 372 -251 l 301 -181 l 232 -181 l 196 -217 l 196 -285 l 232 -321 l 299 -321 z "},"ฐ":{"ha":717,"x_min":31,"x_max":642,"o":"m 521 456 l 56 564 l 56 668 l 164 775 l 613 775 l 613 706 l 196 706 l 133 644 l 133 611 l 599 504 l 599 0 l 521 0 l 521 164 l 429 239 l 418 251 l 336 169 l 239 169 l 164 244 l 164 336 l 239 410 l 336 410 l 521 256 l 521 456 m 349 318 l 314 353 l 260 353 l 225 318 l 225 261 l 260 226 l 314 226 l 349 261 l 349 318 m 642 -104 l 642 -369 l 494 -369 l 426 -299 l 363 -369 l 289 -285 l 215 -369 l 107 -369 l 31 -294 l 31 -185 l 107 -108 l 215 -108 l 365 -289 l 426 -219 l 515 -311 l 574 -311 l 574 -258 l 578 -226 l 508 -226 l 450 -169 l 450 -104 l 510 -44 l 582 -44 l 642 -104 m 565 -181 l 589 -157 l 589 -117 l 565 -93 l 526 -93 l 503 -117 l 503 -157 l 526 -181 l 565 -181 m 254 -243 l 192 -167 l 132 -167 l 93 -204 l 93 -274 l 132 -311 l 196 -311 l 254 -243 z "},"ฑ":{"ha":981,"x_min":42,"x_max":863,"o":"m 361 464 l 450 636 l 450 688 l 417 725 l 392 725 l 319 646 l 243 725 l 179 725 l 126 667 l 211 667 l 282 594 l 282 508 l 208 435 l 115 435 l 42 507 l 42 653 l 160 789 l 257 789 l 319 721 l 376 789 l 447 789 l 522 707 l 522 628 l 436 454 l 436 118 l 438 118 l 651 775 l 774 775 l 863 669 l 863 0 l 785 0 l 785 642 l 736 704 l 697 704 l 464 0 l 361 0 l 361 464 m 188 490 l 222 525 l 222 579 l 188 615 l 136 615 l 100 581 l 100 525 l 136 490 l 188 490 z "},"ฒ":{"ha":1214,"x_min":118,"x_max":1096,"o":"m 1096 775 l 1096 0 l 1022 0 l 754 142 l 754 75 l 679 0 l 581 0 l 506 75 l 506 167 l 581 242 l 650 242 l 650 647 l 599 703 l 539 703 l 424 614 l 307 703 l 247 703 l 196 647 l 196 89 l 335 225 l 367 256 l 292 331 l 292 425 l 365 499 l 461 499 l 536 425 l 536 328 l 199 0 l 118 0 l 118 671 l 213 775 l 326 775 l 424 696 l 519 775 l 632 775 l 728 671 l 728 231 l 1018 79 l 1018 775 l 1096 775 m 351 350 l 386 315 l 442 315 l 476 350 l 476 408 l 442 443 l 386 443 l 351 408 l 351 350 m 694 149 l 658 185 l 604 185 l 567 149 l 567 94 l 604 57 l 658 57 l 694 94 l 694 149 z "},"ณ":{"ha":1196,"x_min":76,"x_max":1133,"o":"m 1133 167 l 1133 68 l 1064 0 l 960 0 l 890 68 l 890 131 l 663 0 l 590 0 l 590 638 l 524 704 l 231 704 l 171 646 l 288 528 l 193 410 l 193 293 l 189 231 l 215 242 l 288 242 l 363 169 l 363 75 l 288 0 l 190 0 l 115 75 l 115 429 l 197 528 l 76 646 l 206 775 l 563 775 l 668 669 l 668 79 l 992 257 l 992 775 l 1069 775 l 1069 229 l 1133 167 m 176 150 l 176 92 l 213 57 l 265 57 l 301 92 l 301 150 l 265 185 l 213 185 l 176 150 m 1074 144 l 1036 182 l 988 182 l 950 144 l 950 93 l 988 56 l 1036 56 l 1074 93 l 1074 144 z "},"ด":{"ha":847,"x_min":118,"x_max":729,"o":"m 729 668 l 729 0 l 651 0 l 651 636 l 583 704 l 264 704 l 196 636 l 196 88 l 336 219 l 375 254 l 301 328 l 301 422 l 376 496 l 472 496 l 546 422 l 546 325 l 199 0 l 118 0 l 118 668 l 226 775 l 621 775 l 729 668 m 361 347 l 396 313 l 451 313 l 486 347 l 486 406 l 451 440 l 396 440 l 361 406 l 361 347 z "},"ต":{"ha":850,"x_min":118,"x_max":732,"o":"m 732 671 l 732 0 l 654 0 l 654 647 l 603 704 l 540 704 l 425 614 l 310 704 l 247 704 l 196 647 l 196 88 l 335 217 l 374 250 l 301 324 l 301 418 l 376 492 l 472 492 l 546 418 l 546 321 l 199 0 l 118 0 l 118 671 l 213 775 l 328 775 l 425 696 l 522 775 l 636 775 l 732 671 m 361 343 l 396 308 l 451 308 l 486 343 l 486 401 l 451 436 l 396 436 l 361 401 l 361 343 z "},"ถ":{"ha":803,"x_min":76,"x_max":685,"o":"m 115 75 l 115 429 l 197 528 l 76 646 l 206 775 l 579 775 l 685 669 l 685 0 l 607 0 l 607 638 l 540 704 l 231 704 l 171 646 l 288 528 l 193 410 l 193 293 l 189 231 l 215 242 l 288 242 l 363 169 l 363 75 l 288 0 l 190 0 l 115 75 m 265 57 l 301 92 l 301 150 l 265 185 l 213 185 l 176 150 l 176 92 l 213 57 l 265 57 z "},"ท":{"ha":881,"x_min":49,"x_max":763,"o":"m 218 479 l 224 546 l 197 533 l 124 533 l 49 608 l 49 701 l 124 775 l 222 775 l 296 701 l 296 140 l 297 140 l 533 775 l 657 775 l 763 669 l 763 0 l 685 0 l 685 640 l 622 704 l 579 704 l 311 0 l 218 0 l 218 479 m 200 590 l 235 625 l 235 683 l 200 718 l 144 718 l 110 683 l 110 625 l 144 590 l 200 590 z "},"ธ":{"ha":761,"x_min":90,"x_max":657,"o":"m 126 107 l 126 401 l 204 401 l 204 135 l 267 72 l 510 72 l 572 135 l 572 443 l 90 554 l 90 668 l 199 775 l 657 775 l 657 706 l 232 706 l 168 642 l 168 601 l 650 490 l 650 107 l 543 0 l 233 0 l 126 107 z "},"น":{"ha":844,"x_min":49,"x_max":782,"o":"m 782 167 l 782 68 l 713 0 l 610 0 l 540 68 l 540 133 l 292 0 l 218 0 l 218 479 l 224 546 l 190 533 l 124 533 l 49 608 l 49 701 l 124 775 l 222 775 l 296 701 l 296 79 l 640 257 l 640 775 l 718 775 l 718 231 l 782 167 m 235 683 l 200 718 l 144 718 l 110 683 l 110 625 l 144 590 l 200 590 l 235 625 l 235 683 m 722 144 l 686 182 l 636 182 l 600 144 l 600 93 l 636 56 l 686 56 l 722 93 l 722 144 z "},"บ":{"ha":874,"x_min":49,"x_max":756,"o":"m 218 107 l 218 479 l 224 546 l 201 533 l 124 533 l 49 608 l 49 701 l 124 775 l 222 775 l 296 701 l 296 135 l 358 72 l 615 72 l 678 135 l 678 775 l 756 775 l 756 107 l 649 0 l 325 0 l 218 107 m 200 590 l 235 625 l 235 683 l 200 718 l 144 718 l 110 683 l 110 625 l 144 590 l 200 590 z "},"ป":{"ha":876,"x_min":49,"x_max":758,"o":"m 218 107 l 218 479 l 224 546 l 197 533 l 124 533 l 49 608 l 49 701 l 124 775 l 222 775 l 296 701 l 296 135 l 358 72 l 618 72 l 681 135 l 681 1067 l 758 1067 l 758 107 l 651 0 l 325 0 l 218 107 m 200 590 l 235 625 l 235 683 l 200 718 l 144 718 l 110 683 l 110 625 l 144 590 l 200 590 z "},"ผ":{"ha":835,"x_min":118,"x_max":717,"o":"m 118 701 l 193 775 l 292 775 l 365 701 l 365 608 l 293 533 l 219 533 l 192 546 l 196 478 l 196 108 l 197 108 l 393 367 l 442 367 l 638 108 l 639 108 l 639 775 l 717 775 l 717 0 l 642 0 l 417 294 l 193 0 l 118 0 l 118 701 m 269 590 l 304 625 l 304 683 l 269 718 l 214 718 l 179 683 l 179 625 l 214 590 l 269 590 z "},"ฝ":{"ha":838,"x_min":118,"x_max":719,"o":"m 118 701 l 193 775 l 292 775 l 365 701 l 365 608 l 293 533 l 219 533 l 192 546 l 196 478 l 196 108 l 197 108 l 394 367 l 443 367 l 640 108 l 642 108 l 642 1067 l 719 1067 l 719 0 l 644 0 l 418 294 l 193 0 l 118 0 l 118 701 m 269 590 l 304 625 l 304 683 l 269 718 l 214 718 l 179 683 l 179 625 l 214 590 l 269 590 z "},"พ":{"ha":933,"x_min":49,"x_max":815,"o":"m 218 479 l 224 546 l 201 533 l 124 533 l 49 608 l 49 701 l 124 775 l 221 775 l 294 701 l 294 164 l 297 164 l 490 650 l 543 650 l 736 163 l 739 163 l 739 775 l 815 775 l 815 0 l 739 0 l 517 557 l 294 0 l 219 0 l 218 479 m 200 590 l 235 625 l 235 683 l 200 718 l 144 718 l 110 683 l 110 625 l 144 590 l 200 590 z "},"ฟ":{"ha":936,"x_min":49,"x_max":818,"o":"m 218 479 l 224 546 l 200 533 l 124 533 l 49 608 l 49 701 l 124 775 l 221 775 l 294 701 l 294 164 l 297 164 l 492 650 l 544 650 l 739 163 l 742 163 l 742 1067 l 818 1067 l 818 0 l 742 0 l 518 557 l 294 0 l 219 0 l 218 479 m 200 590 l 235 625 l 235 683 l 200 718 l 144 718 l 110 683 l 110 625 l 144 590 l 200 590 z "},"ภ":{"ha":858,"x_min":49,"x_max":740,"o":"m 49 75 l 49 167 l 124 239 l 197 239 l 218 228 l 213 283 l 213 431 l 272 525 l 132 646 l 261 775 l 635 775 l 740 669 l 740 0 l 663 0 l 663 638 l 596 704 l 286 704 l 226 646 l 360 528 l 290 411 l 290 75 l 215 0 l 124 0 l 49 75 m 196 57 l 231 92 l 231 149 l 196 183 l 144 183 l 108 149 l 108 92 l 144 57 l 196 57 z "},"ม":{"ha":844,"x_min":69,"x_max":726,"o":"m 726 775 l 726 0 l 653 0 l 338 147 l 338 75 l 263 0 l 164 0 l 89 75 l 89 167 l 164 242 l 239 242 l 239 479 l 244 546 l 219 533 l 144 533 l 69 608 l 69 701 l 144 775 l 243 775 l 317 701 l 317 231 l 649 79 l 649 775 l 726 775 m 256 625 l 256 683 l 221 718 l 165 718 l 131 683 l 131 625 l 165 590 l 221 590 l 256 625 m 278 149 l 240 185 l 186 185 l 150 149 l 150 94 l 186 57 l 240 57 l 278 94 l 278 149 z "},"ย":{"ha":806,"x_min":104,"x_max":688,"o":"m 688 775 l 688 107 l 581 0 l 213 0 l 104 108 l 104 250 l 213 357 l 104 447 l 104 683 l 196 775 l 300 775 l 375 701 l 375 610 l 300 535 l 215 535 l 176 571 l 176 471 l 272 392 l 433 392 l 433 324 l 274 324 l 182 231 l 182 138 l 247 72 l 547 72 l 610 135 l 610 775 l 688 775 m 189 626 l 224 592 l 279 592 l 314 626 l 314 683 l 279 718 l 224 718 l 189 683 l 189 626 z "},"ร":{"ha":663,"x_min":69,"x_max":579,"o":"m 268 75 l 268 169 l 343 242 l 417 242 l 443 231 l 438 297 l 438 463 l 69 546 l 69 668 l 176 775 l 579 775 l 579 704 l 210 704 l 147 643 l 147 594 l 515 515 l 515 75 l 440 0 l 343 0 l 268 75 m 418 57 l 454 92 l 454 150 l 418 185 l 365 185 l 329 150 l 329 92 l 365 57 l 418 57 z "},"ฤ":{"ha":806,"x_min":76,"x_max":688,"o":"m 610 638 l 543 704 l 231 704 l 171 646 l 288 528 l 193 410 l 193 293 l 189 231 l 215 242 l 288 242 l 363 169 l 363 75 l 288 0 l 190 0 l 115 75 l 115 429 l 197 528 l 76 646 l 206 775 l 582 775 l 688 669 l 688 -292 l 610 -292 l 610 638 m 265 57 l 301 92 l 301 150 l 265 185 l 213 185 l 176 150 l 176 92 l 213 57 l 265 57 z "},"ล":{"ha":811,"x_min":90,"x_max":693,"o":"m 125 75 l 125 386 l 231 489 l 488 489 l 615 365 l 615 638 l 549 704 l 228 704 l 168 644 l 168 579 l 90 579 l 90 668 l 197 775 l 586 775 l 693 668 l 693 0 l 615 0 l 615 269 l 463 418 l 264 418 l 203 358 l 203 289 l 197 231 l 224 242 l 299 242 l 372 168 l 372 75 l 299 0 l 200 0 l 125 75 m 276 57 l 311 92 l 311 150 l 276 185 l 221 185 l 186 150 l 186 92 l 221 57 l 276 57 z "},"ฦ":{"ha":861,"x_min":49,"x_max":743,"o":"m 665 638 l 599 704 l 286 704 l 226 646 l 360 528 l 290 411 l 290 75 l 215 0 l 124 0 l 49 75 l 49 167 l 124 239 l 197 239 l 218 228 l 213 283 l 213 431 l 272 525 l 132 646 l 261 775 l 638 775 l 743 669 l 743 -292 l 665 -292 l 665 638 m 196 57 l 231 92 l 231 149 l 196 183 l 144 183 l 108 149 l 108 92 l 144 57 l 196 57 z "},"ว":{"ha":711,"x_min":56,"x_max":593,"o":"m 346 75 l 346 169 l 421 242 l 492 242 l 519 231 l 515 297 l 515 638 l 449 704 l 200 704 l 133 638 l 133 563 l 56 563 l 56 668 l 163 775 l 486 775 l 593 668 l 593 75 l 518 0 l 421 0 l 346 75 m 496 57 l 532 92 l 532 150 l 496 185 l 443 185 l 407 150 l 407 92 l 443 57 l 496 57 z "},"ศ":{"ha":847,"x_min":118,"x_max":761,"o":"m 660 731 l 729 661 l 729 0 l 651 0 l 651 638 l 585 704 l 263 704 l 196 638 l 196 317 l 381 483 l 475 483 l 550 408 l 550 317 l 475 243 l 379 243 l 299 324 l 263 290 l 196 232 l 196 0 l 118 0 l 118 661 l 233 775 l 600 775 l 710 885 l 761 832 l 660 731 m 364 333 l 399 299 l 454 299 l 489 333 l 489 392 l 454 426 l 399 426 l 364 392 l 364 333 z "},"ษ":{"ha":904,"x_min":49,"x_max":786,"o":"m 786 775 l 786 107 l 679 0 l 325 0 l 218 107 l 218 479 l 224 546 l 196 533 l 124 533 l 49 608 l 49 701 l 124 775 l 222 775 l 296 701 l 296 135 l 358 72 l 646 72 l 708 135 l 708 293 l 463 293 l 396 360 l 396 450 l 463 517 l 556 517 l 622 450 l 622 378 l 601 357 l 667 360 l 708 360 l 708 775 l 786 775 m 235 683 l 200 718 l 144 718 l 110 683 l 110 625 l 144 590 l 200 590 l 235 625 l 235 683 m 565 431 l 535 461 l 485 461 l 454 431 l 454 378 l 483 349 l 533 349 l 565 378 l 565 431 z "},"ส":{"ha":811,"x_min":90,"x_max":732,"o":"m 631 732 l 693 668 l 693 0 l 615 0 l 615 269 l 463 418 l 264 418 l 203 358 l 203 289 l 197 231 l 219 242 l 299 242 l 372 168 l 372 75 l 299 0 l 200 0 l 125 75 l 125 386 l 231 489 l 488 489 l 615 365 l 615 638 l 549 704 l 228 704 l 168 644 l 168 579 l 90 579 l 90 668 l 197 775 l 569 775 l 681 885 l 732 832 l 631 732 m 186 150 l 186 92 l 221 57 l 276 57 l 311 92 l 311 150 l 276 185 l 221 185 l 186 150 z "},"ห":{"ha":881,"x_min":49,"x_max":763,"o":"m 763 607 l 696 542 l 763 483 l 763 0 l 685 0 l 685 461 l 632 506 l 299 0 l 218 0 l 218 479 l 224 546 l 197 533 l 124 533 l 49 608 l 49 701 l 124 775 l 222 775 l 296 701 l 296 108 l 578 544 l 515 607 l 515 701 l 589 775 l 688 775 l 763 701 l 763 607 m 235 683 l 200 718 l 144 718 l 110 683 l 110 625 l 144 590 l 200 590 l 235 625 l 235 683 m 701 683 l 667 718 l 611 718 l 576 683 l 576 625 l 611 590 l 667 590 l 701 625 l 701 683 z "},"ฬ":{"ha":949,"x_min":49,"x_max":925,"o":"m 218 479 l 224 546 l 197 533 l 124 533 l 49 608 l 49 701 l 124 775 l 221 775 l 294 701 l 294 138 l 297 138 l 493 538 l 542 538 l 736 138 l 739 138 l 739 614 l 744 679 l 721 667 l 642 667 l 569 739 l 569 831 l 642 903 l 739 903 l 813 831 l 813 803 l 886 875 l 925 832 l 815 725 l 815 0 l 736 0 l 517 451 l 297 0 l 218 0 l 218 479 m 715 721 l 753 758 l 753 811 l 715 847 l 665 847 l 629 811 l 629 758 l 665 721 l 715 721 m 200 590 l 235 625 l 235 683 l 200 718 l 144 718 l 110 683 l 110 625 l 144 590 l 200 590 z "},"อ":{"ha":790,"x_min":83,"x_max":679,"o":"m 118 107 l 118 425 l 193 500 l 292 500 l 365 425 l 365 332 l 293 258 l 217 258 l 190 271 l 196 211 l 196 135 l 258 72 l 539 72 l 601 135 l 601 638 l 535 704 l 228 704 l 161 638 l 161 579 l 83 579 l 83 668 l 190 775 l 572 775 l 679 668 l 679 107 l 572 0 l 225 0 l 118 107 m 269 315 l 304 350 l 304 408 l 269 443 l 214 443 l 179 408 l 179 350 l 214 315 l 269 315 z "},"ฮ":{"ha":790,"x_min":83,"x_max":693,"o":"m 118 107 l 118 375 l 193 450 l 292 450 l 365 375 l 365 282 l 293 210 l 218 210 l 192 222 l 196 175 l 196 135 l 258 72 l 539 72 l 601 135 l 601 640 l 565 676 l 418 528 l 160 528 l 83 604 l 83 699 l 161 775 l 564 775 l 643 854 l 693 807 l 618 731 l 679 669 l 679 107 l 572 0 l 225 0 l 118 107 m 393 594 l 506 710 l 194 710 l 157 674 l 157 631 l 193 594 l 393 594 m 269 265 l 304 300 l 304 358 l 269 393 l 214 393 l 179 358 l 179 300 l 214 265 l 269 265 z "},"ะ":{"ha":660,"x_min":76,"x_max":601,"o":"m 76 535 l 76 633 l 151 708 l 254 708 l 324 633 l 324 544 l 311 526 l 363 532 l 417 532 l 547 664 l 601 607 l 457 461 l 151 461 l 76 535 m 229 519 l 263 553 l 263 614 l 229 647 l 171 647 l 138 614 l 138 553 l 171 519 l 229 519 m 76 114 l 76 213 l 151 288 l 254 288 l 324 213 l 324 125 l 311 106 l 363 111 l 417 111 l 547 243 l 601 186 l 457 40 l 151 40 l 76 114 m 229 99 l 263 132 l 263 193 l 229 226 l 171 226 l 138 193 l 138 132 l 171 99 l 229 99 z "},"า":{"ha":710,"x_min":56,"x_max":592,"o":"m 514 636 l 447 703 l 200 703 l 133 636 l 133 563 l 56 563 l 56 668 l 163 775 l 486 775 l 592 668 l 592 0 l 514 0 l 514 636 z "},"ำ":{"ha":710,"x_min":-322,"x_max":592,"o":"m -322 988 l -322 1093 l -244 1171 l -131 1171 l -53 1093 l -53 988 l -131 910 l -244 910 l -322 988 m -158 971 l -117 1013 l -117 1068 l -158 1110 l -217 1110 l -258 1068 l -258 1013 l -217 971 l -158 971 m 514 636 l 447 703 l 200 703 l 133 636 l 133 563 l 56 563 l 56 668 l 164 775 l 486 775 l 592 668 l 592 0 l 514 0 l 514 636 z "},"เ":{"ha":415,"x_min":118,"x_max":367,"o":"m 118 75 l 118 775 l 196 775 l 196 293 l 192 231 l 213 242 l 292 242 l 367 168 l 367 75 l 292 0 l 193 0 l 118 75 m 271 57 l 306 92 l 306 150 l 271 185 l 215 185 l 181 150 l 181 92 l 215 57 l 271 57 z "},"แ":{"ha":781,"x_min":118,"x_max":732,"o":"m 118 75 l 118 775 l 196 775 l 196 293 l 192 231 l 213 242 l 292 242 l 367 168 l 367 75 l 292 0 l 193 0 l 118 75 m 485 75 l 485 775 l 563 775 l 563 293 l 557 231 l 579 242 l 658 242 l 732 168 l 732 75 l 658 0 l 560 0 l 485 75 m 271 57 l 306 92 l 306 150 l 271 185 l 215 185 l 181 150 l 181 92 l 215 57 l 271 57 m 636 57 l 671 92 l 671 150 l 636 185 l 581 185 l 546 150 l 546 92 l 581 57 l 636 57 z "},"โ":{"ha":492,"x_min":-39,"x_max":458,"o":"m 194 75 l 194 953 l -39 1072 l -39 1176 l 71 1283 l 458 1283 l 458 1215 l 103 1215 l 38 1154 l 38 1108 l 272 989 l 272 293 l 268 231 l 289 242 l 368 242 l 443 168 l 443 75 l 368 0 l 269 0 l 194 75 m 347 57 l 382 92 l 382 150 l 347 185 l 292 185 l 257 150 l 257 92 l 292 57 l 347 57 z "},"ใ":{"ha":485,"x_min":-42,"x_max":436,"o":"m 188 75 l 188 840 l 335 1032 l 335 1182 l 269 1247 l 113 1247 l 57 1192 l 135 1192 l 204 1121 l 204 1028 l 131 954 l 32 954 l -42 1028 l -42 1167 l 89 1311 l 304 1311 l 408 1206 l 408 1017 l 265 831 l 265 293 l 261 231 l 282 242 l 361 242 l 436 168 l 436 75 l 361 0 l 263 0 l 188 75 m 108 1011 l 143 1046 l 143 1103 l 108 1138 l 53 1138 l 19 1104 l 19 1046 l 54 1011 l 108 1011 m 340 57 l 375 92 l 375 150 l 340 185 l 285 185 l 250 150 l 250 92 l 285 57 l 340 57 z "},"ไ":{"ha":461,"x_min":-54,"x_max":414,"o":"m 167 75 l 167 928 l 336 1125 l 336 1208 l 314 1229 l 256 1229 l 133 1108 l 8 1229 l -54 1229 l -54 1297 l 32 1297 l 133 1196 l 231 1297 l 354 1297 l 411 1242 l 411 1110 l 244 913 l 244 293 l 239 231 l 261 242 l 340 242 l 414 168 l 414 75 l 340 0 l 242 0 l 167 75 m 318 57 l 353 92 l 353 150 l 318 185 l 263 185 l 228 150 l 228 92 l 263 57 l 318 57 z "},"ๅ":{"ha":710,"x_min":56,"x_max":592,"o":"m 514 636 l 447 703 l 200 703 l 133 636 l 133 563 l 56 563 l 56 668 l 164 775 l 486 775 l 592 668 l 592 -292 l 514 -292 l 514 636 z "},"ℊ":{"ha":794,"x_min":97,"x_max":799,"o":"m 144 -301 l 144 -175 l 249 -71 l 606 -71 l 606 139 l 467 14 l 218 14 l 97 135 l 97 571 l 218 692 l 472 692 l 607 557 l 607 692 l 683 692 l 683 -71 l 799 -71 l 799 -139 l 683 -139 l 683 -303 l 563 -422 l 265 -422 l 144 -301 m 449 85 l 606 228 l 606 464 l 449 622 l 251 622 l 175 547 l 175 160 l 251 85 l 449 85 m 528 -354 l 606 -278 l 606 -139 l 276 -139 l 221 -194 l 221 -281 l 294 -354 l 528 -354 z "},"₀":{"ha":589,"x_min":83,"x_max":506,"o":"m 83 -121 l 83 288 l 171 375 l 418 375 l 506 288 l 506 -121 l 418 -208 l 171 -208 l 83 -121 m 385 -140 l 429 -96 l 429 263 l 385 307 l 204 307 l 160 263 l 160 -96 l 204 -140 l 385 -140 z "},"₁":{"ha":357,"x_min":56,"x_max":260,"o":"m 185 293 l 56 226 l 56 299 l 196 375 l 260 375 l 260 -208 l 185 -208 l 185 293 z "},"₂":{"ha":508,"x_min":63,"x_max":453,"o":"m 65 -96 l 374 201 l 374 271 l 336 307 l 175 307 l 139 271 l 139 219 l 63 219 l 63 294 l 144 375 l 368 375 l 449 294 l 449 176 l 143 -115 l 143 -142 l 453 -142 l 453 -208 l 65 -208 l 65 -96 z "},"₃":{"ha":554,"x_min":69,"x_max":471,"o":"m 69 -128 l 69 -54 l 146 -54 l 146 -104 l 183 -140 l 358 -140 l 396 -104 l 396 15 l 360 51 l 190 51 l 190 119 l 360 119 l 396 156 l 396 271 l 360 307 l 188 307 l 151 271 l 151 221 l 75 221 l 75 294 l 156 375 l 390 375 l 471 294 l 471 132 l 424 85 l 471 38 l 471 -128 l 390 -208 l 151 -208 l 69 -128 z "},"₄":{"ha":533,"x_min":49,"x_max":485,"o":"m 339 -93 l 49 -93 l 49 11 l 310 375 l 414 375 l 414 -25 l 485 -25 l 485 -93 l 414 -93 l 414 -208 l 339 -208 l 339 -93 m 342 -26 l 342 294 l 338 294 l 126 0 l 126 -26 l 342 -26 z "},"₅":{"ha":539,"x_min":76,"x_max":476,"o":"m 76 -128 l 76 -51 l 153 -51 l 153 -104 l 189 -140 l 364 -140 l 401 -104 l 401 53 l 364 90 l 85 90 l 85 375 l 465 375 l 465 307 l 161 307 l 161 158 l 394 158 l 476 76 l 476 -128 l 396 -208 l 158 -208 l 76 -128 z "},"₆":{"ha":558,"x_min":83,"x_max":489,"o":"m 83 -128 l 83 294 l 165 375 l 404 375 l 485 294 l 485 224 l 410 224 l 410 269 l 372 307 l 197 307 l 160 269 l 160 89 l 221 150 l 407 150 l 489 69 l 489 -128 l 407 -208 l 165 -208 l 83 -128 m 376 -140 l 413 -103 l 413 44 l 375 82 l 236 82 l 160 6 l 160 -103 l 197 -140 l 376 -140 z "},"₇":{"ha":485,"x_min":49,"x_max":429,"o":"m 350 285 l 350 307 l 49 307 l 49 375 l 429 375 l 429 281 l 199 -208 l 118 -208 l 350 285 z "},"₈":{"ha":571,"x_min":76,"x_max":494,"o":"m 76 -126 l 76 40 l 129 93 l 85 136 l 85 293 l 167 375 l 406 375 l 486 293 l 486 136 l 442 93 l 494 40 l 494 -126 l 414 -208 l 158 -208 l 76 -126 m 374 122 l 411 158 l 411 269 l 374 307 l 199 307 l 161 269 l 161 158 l 199 122 l 374 122 m 382 -140 l 419 -103 l 419 19 l 382 56 l 190 56 l 153 19 l 153 -103 l 190 -140 l 382 -140 z "},"₉":{"ha":558,"x_min":69,"x_max":475,"o":"m 78 -128 l 78 -61 l 153 -61 l 153 -103 l 190 -140 l 361 -140 l 399 -103 l 399 69 l 343 13 l 151 13 l 69 94 l 69 294 l 151 375 l 393 375 l 475 294 l 475 -128 l 393 -208 l 160 -208 l 78 -128 m 331 82 l 399 150 l 399 269 l 361 307 l 183 307 l 146 269 l 146 118 l 183 82 l 331 82 z "},"⁰":{"ha":589,"x_min":83,"x_max":506,"o":"m 83 476 l 83 885 l 171 972 l 418 972 l 506 885 l 506 476 l 418 389 l 171 389 l 83 476 m 385 457 l 429 501 l 429 860 l 385 904 l 204 904 l 160 860 l 160 501 l 204 457 l 385 457 z "},"¹":{"ha":357,"x_min":56,"x_max":260,"o":"m 185 890 l 56 824 l 56 896 l 196 972 l 260 972 l 260 389 l 185 389 l 185 890 z "},"²":{"ha":508,"x_min":63,"x_max":453,"o":"m 65 501 l 374 799 l 374 868 l 336 904 l 175 904 l 139 868 l 139 817 l 63 817 l 63 892 l 144 972 l 368 972 l 449 892 l 449 774 l 143 482 l 143 456 l 453 456 l 453 389 l 65 389 l 65 501 z "},"³":{"ha":554,"x_min":69,"x_max":471,"o":"m 69 469 l 69 543 l 146 543 l 146 493 l 183 457 l 358 457 l 396 493 l 396 613 l 360 649 l 190 649 l 190 717 l 360 717 l 396 753 l 396 868 l 360 904 l 188 904 l 151 868 l 151 818 l 75 818 l 75 892 l 156 972 l 390 972 l 471 892 l 471 729 l 424 682 l 471 635 l 471 469 l 390 389 l 151 389 l 69 469 z "},"⁴":{"ha":533,"x_min":49,"x_max":485,"o":"m 339 504 l 49 504 l 49 608 l 310 972 l 414 972 l 414 572 l 485 572 l 485 504 l 414 504 l 414 389 l 339 389 l 339 504 m 342 571 l 342 892 l 338 892 l 126 597 l 126 571 l 342 571 z "},"⁵":{"ha":539,"x_min":76,"x_max":476,"o":"m 76 469 l 76 546 l 153 546 l 153 493 l 189 457 l 364 457 l 401 493 l 401 650 l 364 688 l 85 688 l 85 972 l 465 972 l 465 904 l 161 904 l 161 756 l 394 756 l 476 674 l 476 469 l 396 389 l 158 389 l 76 469 z "},"⁶":{"ha":558,"x_min":83,"x_max":489,"o":"m 83 469 l 83 892 l 165 972 l 404 972 l 485 892 l 485 821 l 410 821 l 410 867 l 372 904 l 197 904 l 160 867 l 160 686 l 221 747 l 407 747 l 489 667 l 489 469 l 407 389 l 165 389 l 83 469 m 376 457 l 413 494 l 413 642 l 375 679 l 236 679 l 160 603 l 160 494 l 197 457 l 376 457 z "},"⁷":{"ha":485,"x_min":49,"x_max":429,"o":"m 350 882 l 350 904 l 49 904 l 49 972 l 429 972 l 429 878 l 199 389 l 118 389 l 350 882 z "},"⁸":{"ha":571,"x_min":76,"x_max":494,"o":"m 76 471 l 76 638 l 129 690 l 85 733 l 85 890 l 167 972 l 406 972 l 486 890 l 486 733 l 442 690 l 494 638 l 494 471 l 414 389 l 158 389 l 76 471 m 374 719 l 411 756 l 411 867 l 374 904 l 199 904 l 161 867 l 161 756 l 199 719 l 374 719 m 382 457 l 419 494 l 419 617 l 382 653 l 190 653 l 153 617 l 153 494 l 190 457 l 382 457 z "},"⁹":{"ha":558,"x_min":69,"x_max":475,"o":"m 78 469 l 78 536 l 153 536 l 153 494 l 190 457 l 361 457 l 399 494 l 399 667 l 343 610 l 151 610 l 69 692 l 69 892 l 151 972 l 393 972 l 475 892 l 475 469 l 393 389 l 160 389 l 78 469 m 331 679 l 399 747 l 399 867 l 361 904 l 183 904 l 146 867 l 146 715 l 183 679 l 331 679 z "},"⁄":{"ha":765,"x_min":63,"x_max":703,"o":"m 703 972 l 146 0 l 63 0 l 619 972 l 703 972 z "},"½":{"ha":1157,"x_min":83,"x_max":1074,"o":"m 833 972 l 276 0 l 193 0 l 750 972 l 833 972 m 213 890 l 83 824 l 83 896 l 224 972 l 288 972 l 288 389 l 213 389 l 213 890 m 686 113 l 994 410 l 994 479 l 957 515 l 796 515 l 760 479 l 760 428 l 683 428 l 683 503 l 765 583 l 989 583 l 1069 503 l 1069 385 l 764 93 l 764 67 l 1074 67 l 1074 0 l 686 0 l 686 113 z "},"⅓":{"ha":1167,"x_min":83,"x_max":1083,"o":"m 682 81 l 682 154 l 758 154 l 758 104 l 796 68 l 971 68 l 1008 104 l 1008 224 l 972 260 l 803 260 l 803 328 l 972 328 l 1008 364 l 1008 479 l 972 515 l 800 515 l 764 479 l 764 429 l 688 429 l 688 503 l 768 583 l 1003 583 l 1083 503 l 1083 340 l 1036 293 l 1083 246 l 1083 81 l 1003 0 l 764 0 l 682 81 m 833 972 l 276 0 l 193 0 l 750 972 l 833 972 m 213 890 l 83 824 l 83 896 l 224 972 l 288 972 l 288 389 l 213 389 l 213 890 z "},"⅔":{"ha":1308,"x_min":83,"x_max":1225,"o":"m 86 501 l 394 799 l 394 868 l 357 904 l 196 904 l 160 868 l 160 817 l 83 817 l 83 892 l 165 972 l 389 972 l 469 892 l 469 774 l 164 482 l 164 456 l 474 456 l 474 389 l 86 389 l 86 501 m 824 81 l 824 154 l 900 154 l 900 104 l 938 68 l 1113 68 l 1150 104 l 1150 224 l 1114 260 l 944 260 l 944 328 l 1114 328 l 1150 364 l 1150 479 l 1114 515 l 942 515 l 906 479 l 906 429 l 829 429 l 829 503 l 910 583 l 1144 583 l 1225 503 l 1225 340 l 1178 293 l 1225 246 l 1225 81 l 1144 0 l 906 0 l 824 81 m 986 972 l 429 0 l 346 0 l 903 972 l 986 972 z "},"¼":{"ha":1099,"x_min":83,"x_max":1015,"o":"m 869 115 l 579 115 l 579 219 l 840 583 l 944 583 l 944 183 l 1015 183 l 1015 115 l 944 115 l 944 0 l 869 0 l 869 115 m 872 182 l 872 503 l 868 503 l 657 208 l 657 182 l 872 182 m 842 972 l 285 0 l 201 0 l 758 972 l 842 972 m 213 890 l 83 824 l 83 896 l 224 972 l 288 972 l 288 389 l 213 389 l 213 890 z "},"¾":{"ha":1240,"x_min":83,"x_max":1157,"o":"m 83 469 l 83 543 l 160 543 l 160 493 l 197 457 l 372 457 l 410 493 l 410 613 l 374 649 l 204 649 l 204 717 l 374 717 l 410 753 l 410 868 l 374 904 l 201 904 l 165 868 l 165 818 l 89 818 l 89 892 l 169 972 l 404 972 l 485 892 l 485 729 l 438 682 l 485 635 l 485 469 l 404 389 l 165 389 l 83 469 m 1011 115 l 721 115 l 721 219 l 982 583 l 1086 583 l 1086 183 l 1157 183 l 1157 115 l 1086 115 l 1086 0 l 1011 0 l 1011 115 m 1014 182 l 1014 503 l 1010 503 l 799 208 l 799 182 l 1014 182 m 985 972 l 428 0 l 344 0 l 901 972 l 985 972 z "},"⅛":{"ha":1183,"x_min":83,"x_max":1100,"o":"m 682 83 l 682 250 l 735 303 l 690 346 l 690 503 l 772 585 l 1011 585 l 1092 503 l 1092 346 l 1047 303 l 1100 250 l 1100 83 l 1019 1 l 764 1 l 682 83 m 979 332 l 1017 368 l 1017 479 l 979 517 l 804 517 l 767 479 l 767 368 l 804 332 l 979 332 m 988 69 l 1025 107 l 1025 229 l 988 265 l 796 265 l 758 229 l 758 107 l 796 69 l 988 69 m 833 972 l 276 0 l 193 0 l 750 972 l 833 972 m 213 890 l 83 824 l 83 896 l 224 972 l 288 972 l 288 389 l 213 389 l 213 890 z "},"⅜":{"ha":1322,"x_min":83,"x_max":1239,"o":"m 83 469 l 83 543 l 160 543 l 160 493 l 197 457 l 372 457 l 410 493 l 410 613 l 374 649 l 204 649 l 204 717 l 374 717 l 410 753 l 410 868 l 374 904 l 201 904 l 165 868 l 165 818 l 89 818 l 89 892 l 169 972 l 404 972 l 485 892 l 485 729 l 438 682 l 485 635 l 485 469 l 404 389 l 165 389 l 83 469 m 821 83 l 821 250 l 874 303 l 829 346 l 829 503 l 911 585 l 1150 585 l 1231 503 l 1231 346 l 1186 303 l 1239 250 l 1239 83 l 1158 1 l 903 1 l 821 83 m 1118 332 l 1156 368 l 1156 479 l 1118 517 l 943 517 l 906 479 l 906 368 l 943 332 l 1118 332 m 1126 69 l 1164 107 l 1164 229 l 1126 265 l 935 265 l 897 229 l 897 107 l 935 69 l 1126 69 m 985 972 l 428 0 l 344 0 l 901 972 l 985 972 z "},"⅝":{"ha":1308,"x_min":83,"x_max":1225,"o":"m 83 469 l 83 546 l 160 546 l 160 493 l 196 457 l 371 457 l 408 493 l 408 650 l 371 688 l 92 688 l 92 972 l 472 972 l 472 904 l 168 904 l 168 756 l 401 756 l 483 674 l 483 469 l 403 389 l 165 389 l 83 469 m 807 83 l 807 250 l 860 303 l 815 346 l 815 503 l 897 585 l 1136 585 l 1217 503 l 1217 346 l 1172 303 l 1225 250 l 1225 83 l 1144 1 l 889 1 l 807 83 m 1104 332 l 1142 368 l 1142 479 l 1104 517 l 929 517 l 892 479 l 892 368 l 929 332 l 1104 332 m 1113 69 l 1150 107 l 1150 229 l 1113 265 l 921 265 l 883 229 l 883 107 l 921 69 l 1113 69 m 976 972 l 419 0 l 336 0 l 893 972 l 976 972 z "},"⅞":{"ha":1193,"x_min":83,"x_max":1110,"o":"m 385 882 l 385 904 l 83 904 l 83 972 l 464 972 l 464 878 l 233 389 l 153 389 l 385 882 m 692 83 l 692 250 l 744 303 l 700 346 l 700 503 l 782 585 l 1021 585 l 1101 503 l 1101 346 l 1057 303 l 1110 250 l 1110 83 l 1029 1 l 774 1 l 692 83 m 989 332 l 1026 368 l 1026 479 l 989 517 l 814 517 l 776 479 l 776 368 l 814 332 l 989 332 m 997 69 l 1035 107 l 1035 229 l 997 265 l 806 265 l 768 229 l 768 107 l 806 69 l 997 69 m 842 972 l 285 0 l 201 0 l 758 972 l 842 972 z "},"๐":{"ha":869,"x_min":97,"x_max":772,"o":"m 97 121 l 97 539 l 218 660 l 651 660 l 772 539 l 772 121 l 651 0 l 218 0 l 97 121 m 617 71 l 694 147 l 694 511 l 615 590 l 254 590 l 175 511 l 175 147 l 253 71 l 617 71 z "},"๑":{"ha":868,"x_min":97,"x_max":771,"o":"m 597 -21 l 693 75 l 693 511 l 614 590 l 254 590 l 175 511 l 175 135 l 242 67 l 322 67 l 285 110 l 285 181 l 363 258 l 461 258 l 539 179 l 539 89 l 451 0 l 201 0 l 97 107 l 97 539 l 218 660 l 650 660 l 771 539 l 771 49 l 650 -72 l 597 -21 m 439 67 l 476 106 l 476 163 l 439 200 l 386 200 l 347 163 l 347 115 l 393 67 l 439 67 z "},"๒":{"ha":1010,"x_min":104,"x_max":913,"o":"m 104 118 l 104 931 l 182 931 l 182 147 l 258 71 l 758 71 l 835 147 l 835 526 l 772 589 l 735 589 l 631 475 l 518 590 l 446 590 l 375 519 l 375 440 l 396 453 l 476 453 l 550 379 l 550 286 l 475 210 l 376 210 l 300 286 l 300 540 l 417 660 l 540 660 l 631 564 l 715 660 l 808 660 l 913 553 l 913 118 l 794 0 l 222 0 l 104 118 m 453 268 l 488 303 l 488 361 l 453 396 l 399 396 l 363 361 l 363 303 l 397 268 l 453 268 z "},"๓":{"ha":1006,"x_min":104,"x_max":901,"o":"m 104 75 l 104 539 l 225 660 l 438 660 l 518 578 l 600 660 l 782 660 l 901 540 l 901 0 l 824 0 l 824 515 l 749 590 l 629 590 l 557 518 l 557 0 l 481 0 l 481 518 l 408 590 l 258 590 l 182 514 l 182 276 l 181 231 l 203 242 l 278 242 l 351 168 l 351 75 l 278 0 l 179 0 l 104 75 m 256 57 l 290 92 l 290 150 l 256 185 l 200 185 l 165 150 l 165 92 l 200 57 l 256 57 z "},"๔":{"ha":893,"x_min":97,"x_max":879,"o":"m 97 121 l 97 539 l 218 660 l 707 660 l 829 781 l 879 731 l 739 590 l 254 590 l 175 511 l 175 149 l 253 71 l 497 71 l 389 254 l 389 361 l 464 435 l 563 435 l 636 361 l 636 268 l 564 194 l 504 194 l 576 71 l 817 71 l 817 0 l 218 0 l 97 121 m 540 250 l 575 285 l 575 343 l 540 378 l 485 378 l 450 343 l 450 285 l 485 250 l 540 250 z "},"๕":{"ha":893,"x_min":97,"x_max":879,"o":"m 576 71 l 817 71 l 817 0 l 218 0 l 97 121 l 97 539 l 218 660 l 371 660 l 346 685 l 346 769 l 417 842 l 511 842 l 583 769 l 583 685 l 558 660 l 707 660 l 829 781 l 879 731 l 739 590 l 254 590 l 175 511 l 175 149 l 253 71 l 497 71 l 389 254 l 389 361 l 464 435 l 563 435 l 636 361 l 636 268 l 564 194 l 504 194 l 576 71 m 406 699 l 439 665 l 490 665 l 524 699 l 524 753 l 490 786 l 439 786 l 406 753 l 406 699 m 540 250 l 575 285 l 575 343 l 540 378 l 485 378 l 450 343 l 450 285 l 485 250 l 540 250 z "},"๖":{"ha":844,"x_min":14,"x_max":747,"o":"m 111 89 l 111 179 l 189 258 l 288 258 l 365 181 l 365 110 l 326 68 l 590 68 l 669 147 l 669 514 l 593 590 l 154 590 l 14 731 l 64 781 l 186 660 l 628 660 l 747 542 l 747 121 l 626 0 l 199 0 l 111 89 m 257 68 l 303 117 l 303 161 l 264 200 l 211 200 l 174 161 l 174 107 l 211 68 l 257 68 z "},"๗":{"ha":1185,"x_min":104,"x_max":1081,"o":"m 104 75 l 104 539 l 225 660 l 418 660 l 499 578 l 581 660 l 746 660 l 865 540 l 865 69 l 951 69 l 1003 119 l 1003 931 l 1081 931 l 1081 93 l 988 0 l 788 0 l 788 515 l 713 590 l 610 590 l 538 518 l 538 0 l 461 0 l 461 518 l 389 590 l 258 590 l 182 514 l 182 271 l 181 231 l 204 242 l 278 242 l 351 168 l 351 75 l 278 0 l 179 0 l 104 75 m 256 57 l 290 92 l 290 150 l 256 185 l 200 185 l 165 150 l 165 92 l 200 57 l 256 57 z "},"๘":{"ha":915,"x_min":97,"x_max":846,"o":"m 97 107 l 97 539 l 218 660 l 674 660 l 796 781 l 846 731 l 706 590 l 254 590 l 175 511 l 175 132 l 238 71 l 297 71 l 425 233 l 564 71 l 693 71 l 758 136 l 758 200 l 739 186 l 656 186 l 583 260 l 583 353 l 658 428 l 757 428 l 833 353 l 833 118 l 715 0 l 538 0 l 425 135 l 321 0 l 204 0 l 97 107 m 735 242 l 771 276 l 771 335 l 736 369 l 681 369 l 646 335 l 646 276 l 681 242 l 735 242 z "},"๙":{"ha":881,"x_min":97,"x_max":874,"o":"m 529 518 l 835 38 l 778 -6 l 399 590 l 253 590 l 175 514 l 175 135 l 242 67 l 324 67 l 285 110 l 285 181 l 363 258 l 461 258 l 539 179 l 539 88 l 451 0 l 201 0 l 97 107 l 97 539 l 218 660 l 439 660 l 490 578 l 574 660 l 704 660 l 825 781 l 874 732 l 735 593 l 604 593 l 529 518 m 347 115 l 393 67 l 439 67 l 476 106 l 476 163 l 439 200 l 386 200 l 347 163 l 347 115 z "},".":{"ha":281,"x_min":81,"x_max":200,"o":"m 81 35 l 81 86 l 115 119 l 167 119 l 200 86 l 200 35 l 167 0 l 115 0 l 81 35 z "},",":{"ha":281,"x_min":81,"x_max":200,"o":"m 133 0 l 115 0 l 81 35 l 81 86 l 115 119 l 167 119 l 200 86 l 200 0 l 139 -168 l 90 -168 l 133 0 z "},":":{"ha":281,"x_min":81,"x_max":200,"o":"m 81 544 l 81 596 l 115 629 l 167 629 l 200 596 l 200 544 l 167 510 l 115 510 l 81 544 m 81 35 l 81 86 l 115 119 l 167 119 l 200 86 l 200 35 l 167 0 l 115 0 l 81 35 z "},";":{"ha":281,"x_min":81,"x_max":200,"o":"m 81 544 l 81 596 l 115 629 l 167 629 l 200 596 l 200 544 l 167 510 l 115 510 l 81 544 m 133 0 l 115 0 l 81 35 l 81 86 l 115 119 l 167 119 l 200 86 l 200 0 l 139 -168 l 90 -168 l 133 0 z "},"…":{"ha":842,"x_min":81,"x_max":761,"o":"m 81 35 l 81 86 l 115 119 l 167 119 l 200 86 l 200 35 l 167 0 l 115 0 l 81 35 m 361 35 l 361 86 l 396 119 l 447 119 l 481 86 l 481 35 l 447 0 l 396 0 l 361 35 m 642 35 l 642 86 l 676 119 l 728 119 l 761 86 l 761 35 l 728 0 l 676 0 l 642 35 z "},"!":{"ha":328,"x_min":111,"x_max":217,"o":"m 124 786 l 124 972 l 204 972 l 204 786 l 190 208 l 138 208 l 124 786 m 111 31 l 111 76 l 142 107 l 186 107 l 217 76 l 217 31 l 186 0 l 142 0 l 111 31 z "},"¡":{"ha":328,"x_min":111,"x_max":217,"o":"m 186 692 l 217 661 l 217 617 l 186 586 l 142 586 l 111 617 l 111 661 l 142 692 l 186 692 m 190 485 l 204 -94 l 204 -281 l 124 -281 l 124 -94 l 138 485 l 190 485 z "},"?":{"ha":728,"x_min":63,"x_max":644,"o":"m 315 436 l 567 681 l 567 801 l 464 903 l 238 903 l 142 807 l 142 751 l 63 751 l 63 832 l 203 972 l 499 972 l 644 826 l 644 657 l 393 413 l 393 211 l 315 211 l 315 436 m 301 31 l 301 76 l 332 107 l 376 107 l 407 76 l 407 31 l 376 0 l 332 0 l 301 31 z "},"¿":{"ha":728,"x_min":83,"x_max":665,"o":"m 426 661 l 426 617 l 396 586 l 351 586 l 321 617 l 321 661 l 351 692 l 396 692 l 426 661 m 413 256 l 161 13 l 161 -110 l 264 -211 l 490 -211 l 586 -115 l 586 -60 l 665 -60 l 665 -140 l 525 -281 l 229 -281 l 83 -135 l 83 35 l 335 279 l 335 481 l 413 481 l 413 256 z "},"·":{"ha":281,"x_min":81,"x_max":200,"o":"m 81 318 l 81 369 l 115 403 l 167 403 l 200 369 l 200 318 l 167 283 l 115 283 l 81 318 z "},"•":{"ha":478,"x_min":83,"x_max":394,"o":"m 83 336 l 83 471 l 168 558 l 310 558 l 394 471 l 394 336 l 310 249 l 168 249 l 83 336 z "},"*":{"ha":465,"x_min":83,"x_max":382,"o":"m 210 779 l 115 707 l 83 764 l 190 815 l 83 867 l 115 924 l 210 851 l 200 974 l 267 974 l 253 851 l 350 924 l 382 867 l 274 815 l 382 764 l 350 707 l 253 779 l 267 658 l 200 658 l 210 779 z "},"#":{"ha":943,"x_min":83,"x_max":860,"o":"m 692 624 l 646 356 l 832 356 l 832 288 l 633 288 l 585 0 l 510 0 l 558 288 l 310 288 l 261 0 l 185 0 l 233 288 l 83 288 l 83 356 l 246 356 l 292 624 l 111 624 l 111 692 l 303 692 l 351 972 l 428 972 l 379 692 l 628 692 l 675 972 l 751 972 l 703 692 l 860 692 l 860 624 l 692 624 m 615 624 l 368 624 l 322 356 l 571 356 l 615 624 z "},"/":{"ha":621,"x_min":0,"x_max":621,"o":"m 539 975 l 621 975 l 83 0 l 0 0 l 539 975 z "},"\\":{"ha":642,"x_min":0,"x_max":642,"o":"m 0 972 l 83 972 l 642 0 l 560 0 l 0 972 z "},"₍":{"ha":301,"x_min":83,"x_max":267,"o":"m 83 -210 l 83 399 l 164 479 l 267 479 l 267 413 l 199 413 l 158 372 l 158 -183 l 199 -224 l 267 -224 l 267 -290 l 164 -290 l 83 -210 z "},"₎":{"ha":301,"x_min":35,"x_max":218,"o":"m 35 -290 l 35 -224 l 104 -224 l 144 -183 l 144 372 l 104 413 l 35 413 l 35 479 l 139 479 l 218 399 l 218 -210 l 139 -290 l 35 -290 z "},"(":{"ha":414,"x_min":118,"x_max":376,"o":"m 118 -42 l 118 1013 l 239 1133 l 376 1133 l 376 1064 l 274 1064 l 196 988 l 196 -17 l 274 -93 l 376 -93 l 376 -162 l 239 -162 l 118 -42 z "},")":{"ha":414,"x_min":39,"x_max":296,"o":"m 39 -162 l 39 -93 l 142 -93 l 218 -17 l 218 988 l 142 1064 l 39 1064 l 39 1133 l 175 1133 l 296 1013 l 296 -42 l 175 -162 l 39 -162 z "},"{":{"ha":463,"x_min":69,"x_max":425,"o":"m 178 -42 l 178 349 l 69 461 l 69 513 l 178 625 l 178 1013 l 299 1133 l 425 1133 l 425 1064 l 333 1064 l 256 988 l 256 596 l 154 492 l 154 481 l 256 376 l 256 -17 l 333 -93 l 425 -93 l 425 -162 l 299 -162 l 178 -42 z "},"}":{"ha":463,"x_min":39,"x_max":393,"o":"m 39 -162 l 39 -93 l 131 -93 l 207 -17 l 207 376 l 308 481 l 308 492 l 207 596 l 207 988 l 131 1064 l 39 1064 l 39 1133 l 164 1133 l 285 1013 l 285 625 l 393 513 l 393 461 l 285 349 l 285 -42 l 164 -162 l 39 -162 z "},"[":{"ha":414,"x_min":118,"x_max":376,"o":"m 118 1133 l 376 1133 l 376 1065 l 196 1065 l 196 -94 l 376 -94 l 376 -162 l 118 -162 l 118 1133 z "},"]":{"ha":414,"x_min":39,"x_max":296,"o":"m 39 -162 l 39 -94 l 218 -94 l 218 1065 l 39 1065 l 39 1133 l 296 1133 l 296 -162 l 39 -162 z "},"⁽":{"ha":301,"x_min":83,"x_max":267,"o":"m 83 363 l 83 971 l 164 1051 l 267 1051 l 267 985 l 199 985 l 158 944 l 158 389 l 199 349 l 267 349 l 267 282 l 164 282 l 83 363 z "},"⁾":{"ha":301,"x_min":35,"x_max":218,"o":"m 35 283 l 35 350 l 104 350 l 144 390 l 144 944 l 104 985 l 35 985 l 35 1051 l 139 1051 l 218 971 l 218 363 l 139 283 l 35 283 z "},"-":{"ha":547,"x_min":83,"x_max":464,"o":"m 83 385 l 464 385 l 464 315 l 83 315 l 83 385 z "},"­":{"ha":547,"x_min":83,"x_max":464,"o":"m 83 385 l 464 385 l 464 315 l 83 315 l 83 385 z "},"–":{"ha":854,"x_min":83,"x_max":771,"o":"m 83 385 l 771 385 l 771 315 l 83 315 l 83 385 z "},"—":{"ha":999,"x_min":83,"x_max":915,"o":"m 83 385 l 915 385 l 915 315 l 83 315 l 83 385 z "},"‒":{"ha":819,"x_min":83,"x_max":736,"o":"m 83 385 l 736 385 l 736 315 l 83 315 l 83 385 z "},"―":{"ha":1303,"x_min":83,"x_max":1219,"o":"m 83 385 l 1219 385 l 1219 315 l 83 315 l 83 385 z "},"‐":{"ha":926,"x_min":83,"x_max":843,"o":"m 83 385 l 843 385 l 843 315 l 83 315 l 83 385 z "},"_":{"ha":561,"x_min":0,"x_max":561,"o":"m 0 -14 l 561 -14 l 561 -83 l 0 -83 l 0 -14 z "},"‚":{"ha":279,"x_min":81,"x_max":200,"o":"m 133 0 l 115 0 l 81 35 l 81 86 l 115 119 l 167 119 l 200 86 l 200 0 l 139 -168 l 90 -168 l 133 0 z "},"„":{"ha":468,"x_min":81,"x_max":389,"o":"m 133 0 l 115 0 l 81 35 l 81 86 l 115 119 l 167 119 l 200 86 l 200 0 l 139 -168 l 90 -168 l 133 0 m 322 0 l 304 0 l 269 35 l 269 86 l 304 119 l 356 119 l 389 86 l 389 0 l 328 -168 l 279 -168 l 322 0 z "},"“":{"ha":468,"x_min":79,"x_max":388,"o":"m 147 804 l 164 804 l 199 771 l 199 719 l 164 685 l 114 685 l 79 719 l 79 804 l 142 972 l 189 972 l 147 804 m 335 804 l 353 804 l 388 771 l 388 719 l 353 685 l 301 685 l 268 719 l 268 804 l 329 972 l 378 972 l 335 804 z "},"”":{"ha":468,"x_min":81,"x_max":389,"o":"m 133 853 l 115 853 l 81 888 l 81 939 l 115 972 l 167 972 l 200 939 l 200 853 l 139 685 l 90 685 l 133 853 m 322 853 l 304 853 l 269 888 l 269 939 l 304 972 l 356 972 l 389 939 l 389 853 l 328 685 l 279 685 l 322 853 z "},"‘":{"ha":279,"x_min":79,"x_max":199,"o":"m 147 804 l 164 804 l 199 771 l 199 719 l 164 685 l 114 685 l 79 719 l 79 804 l 142 972 l 189 972 l 147 804 z "},"’":{"ha":279,"x_min":81,"x_max":200,"o":"m 133 853 l 115 853 l 81 888 l 81 939 l 115 972 l 167 972 l 200 939 l 200 853 l 139 685 l 90 685 l 133 853 z "},"«":{"ha":693,"x_min":56,"x_max":610,"o":"m 56 338 l 56 410 l 335 663 l 335 569 l 126 378 l 126 369 l 335 179 l 335 85 l 56 338 m 332 338 l 332 410 l 610 663 l 610 569 l 401 378 l 401 369 l 610 179 l 610 85 l 332 338 z "},"»":{"ha":693,"x_min":69,"x_max":624,"o":"m 69 179 l 278 369 l 278 378 l 69 569 l 69 663 l 349 410 l 349 338 l 69 85 l 69 179 m 346 179 l 554 369 l 554 378 l 346 569 l 346 663 l 624 410 l 624 338 l 346 85 l 346 179 z "},"‹":{"ha":418,"x_min":56,"x_max":335,"o":"m 56 338 l 56 410 l 335 663 l 335 569 l 126 378 l 126 369 l 335 179 l 335 85 l 56 338 z "},"›":{"ha":418,"x_min":69,"x_max":349,"o":"m 69 179 l 278 369 l 278 378 l 69 569 l 69 663 l 349 410 l 349 338 l 69 85 l 69 179 z "},"\"":{"ha":422,"x_min":83,"x_max":340,"o":"m 83 832 l 83 972 l 164 972 l 164 832 l 144 653 l 103 653 l 83 832 m 260 832 l 260 972 l 340 972 l 340 832 l 321 653 l 279 653 l 260 832 z "},"'":{"ha":247,"x_min":83,"x_max":164,"o":"m 83 832 l 83 972 l 164 972 l 164 832 l 144 653 l 103 653 l 83 832 z "},"๚":{"ha":993,"x_min":49,"x_max":882,"o":"m 513 622 l 400 514 l 140 514 l 49 606 l 49 701 l 124 775 l 229 775 l 299 703 l 299 610 l 267 575 l 329 579 l 374 579 l 514 715 l 514 775 l 590 775 l 590 565 l 664 565 l 806 708 l 806 775 l 882 775 l 882 0 l 804 0 l 804 615 l 689 500 l 590 500 l 590 0 l 513 0 l 513 622 m 204 588 l 238 622 l 238 683 l 204 717 l 146 717 l 111 683 l 111 622 l 146 588 l 204 588 z "},"๏":{"ha":876,"x_min":83,"x_max":793,"o":"m 83 244 l 83 531 l 294 742 l 582 742 l 793 531 l 793 244 l 582 35 l 294 35 l 83 244 m 549 106 l 721 275 l 721 500 l 549 672 l 328 672 l 157 500 l 157 275 l 328 106 l 549 106 m 268 317 l 268 458 l 368 558 l 508 558 l 608 458 l 608 317 l 510 218 l 367 218 l 268 317 m 482 286 l 540 342 l 540 433 l 481 492 l 396 492 l 338 433 l 338 342 l 394 286 l 482 286 z "},"๛":{"ha":1604,"x_min":83,"x_max":1549,"o":"m 83 204 l 83 565 l 201 683 l 454 683 l 547 590 l 547 336 l 468 263 l 369 263 l 296 336 l 296 429 l 369 504 l 447 504 l 478 476 l 479 476 l 476 531 l 476 556 l 417 614 l 236 614 l 160 538 l 160 233 l 236 157 l 572 157 l 642 229 l 758 589 l 833 589 l 954 278 l 1047 561 l 1108 561 l 1211 303 l 1296 533 l 1357 533 l 1414 410 l 1549 410 l 1549 347 l 1379 347 l 1329 460 l 1242 226 l 1178 226 l 1079 476 l 989 199 l 919 199 l 800 501 l 704 196 l 600 86 l 201 86 l 83 204 m 447 319 l 482 354 l 482 413 l 447 447 l 392 447 l 357 413 l 357 354 l 392 319 l 447 319 z "},"ๆ":{"ha":682,"x_min":56,"x_max":564,"o":"m 486 683 l 451 721 l 422 721 l 342 640 l 258 721 l 193 721 l 140 663 l 225 663 l 296 590 l 296 504 l 222 431 l 129 431 l 56 503 l 56 653 l 174 789 l 274 789 l 342 721 l 407 789 l 489 789 l 564 710 l 564 -153 l 486 -153 l 486 683 m 201 486 l 236 521 l 236 575 l 201 611 l 150 611 l 114 576 l 114 521 l 150 486 l 201 486 z "},"ฯ":{"ha":701,"x_min":49,"x_max":590,"o":"m 513 622 l 400 514 l 140 514 l 49 606 l 49 701 l 124 775 l 229 775 l 299 703 l 299 610 l 267 575 l 329 579 l 374 579 l 514 715 l 514 775 l 590 775 l 590 0 l 513 0 l 513 622 m 204 588 l 238 622 l 238 683 l 204 717 l 146 717 l 111 683 l 111 622 l 146 588 l 204 588 z "}," ":{"ha":861,"x_min":0,"x_max":0,"o":""}," ":{"ha":328,"x_min":0,"x_max":0,"o":""},"฿":{"ha":886,"x_min":118,"x_max":810,"o":"m 810 394 l 810 129 l 681 0 l 479 0 l 479 -153 l 404 -153 l 404 0 l 118 0 l 118 972 l 404 972 l 404 1125 l 479 1125 l 479 972 l 646 972 l 767 853 l 767 575 l 697 507 l 810 394 m 197 524 l 404 524 l 404 901 l 197 901 l 197 524 m 479 901 l 479 524 l 614 524 l 688 599 l 688 826 l 613 901 l 479 901 m 404 71 l 404 454 l 197 454 l 197 71 l 404 71 m 731 369 l 644 454 l 479 454 l 479 71 l 644 71 l 731 157 l 731 369 z "},"₵":{"ha":865,"x_min":104,"x_max":796,"o":"m 715 758 l 715 807 l 621 900 l 500 900 l 500 72 l 621 72 l 715 165 l 715 214 l 796 214 l 796 140 l 656 0 l 500 0 l 500 -153 l 425 -153 l 425 0 l 250 0 l 104 146 l 104 826 l 250 972 l 425 972 l 425 1125 l 500 1125 l 500 972 l 656 972 l 796 832 l 796 758 l 715 758 m 425 900 l 286 900 l 185 800 l 185 174 l 286 72 l 425 72 l 425 900 z "},"¢":{"ha":731,"x_min":97,"x_max":661,"o":"m 583 500 l 583 547 l 507 622 l 251 622 l 175 546 l 175 146 l 251 71 l 507 71 l 583 146 l 583 192 l 661 192 l 661 121 l 540 0 l 419 0 l 419 -139 l 343 -139 l 343 0 l 218 0 l 97 121 l 97 571 l 218 692 l 343 692 l 343 831 l 419 831 l 419 692 l 540 692 l 661 571 l 661 500 l 583 500 z "},"₡":{"ha":865,"x_min":104,"x_max":796,"o":"m 715 758 l 715 807 l 679 843 l 511 72 l 621 72 l 715 165 l 715 214 l 796 214 l 796 140 l 656 0 l 496 0 l 463 -153 l 388 -153 l 421 0 l 279 0 l 246 -153 l 171 -153 l 213 38 l 104 146 l 104 826 l 250 972 l 415 972 l 449 1125 l 524 1125 l 490 972 l 632 972 l 665 1125 l 740 1125 l 697 931 l 796 832 l 796 758 l 715 758 m 232 126 l 400 900 l 286 900 l 185 800 l 185 174 l 232 126 m 436 72 l 617 900 l 475 900 l 294 72 l 436 72 z "},"¤":{"ha":871,"x_min":83,"x_max":788,"o":"m 688 261 l 788 161 l 738 111 l 638 213 l 601 175 l 271 175 l 233 213 l 133 111 l 83 161 l 183 263 l 150 297 l 150 642 l 185 676 l 83 779 l 133 829 l 235 726 l 271 763 l 601 763 l 636 728 l 738 829 l 788 779 l 686 678 l 722 642 l 722 297 l 688 261 m 650 315 l 650 622 l 575 696 l 297 696 l 222 622 l 222 315 l 297 242 l 575 242 l 650 315 z "},"$":{"ha":840,"x_min":97,"x_max":750,"o":"m 750 415 l 750 124 l 626 0 l 468 0 l 468 -153 l 393 -153 l 393 0 l 218 0 l 97 121 l 97 194 l 176 194 l 176 149 l 251 72 l 393 72 l 393 464 l 221 464 l 100 583 l 100 851 l 221 972 l 393 972 l 393 1125 l 468 1125 l 468 972 l 618 972 l 739 851 l 739 776 l 660 776 l 660 825 l 583 900 l 468 900 l 468 536 l 629 536 l 750 415 m 393 536 l 393 900 l 256 900 l 179 825 l 179 611 l 256 536 l 393 536 m 671 388 l 594 464 l 468 464 l 468 72 l 594 72 l 671 151 l 671 388 z "},"₫":{"ha":815,"x_min":97,"x_max":794,"o":"m 794 819 l 683 819 l 683 0 l 607 0 l 607 138 l 469 0 l 218 0 l 97 121 l 97 571 l 218 692 l 479 692 l 606 582 l 606 819 l 379 819 l 379 885 l 606 885 l 606 992 l 683 992 l 683 885 l 794 885 l 794 819 m 606 496 l 460 622 l 251 622 l 175 547 l 175 146 l 251 71 l 450 71 l 606 226 l 606 496 m 139 -108 l 654 -108 l 654 -175 l 139 -175 l 139 -108 z "},"€":{"ha":922,"x_min":49,"x_max":853,"o":"m 772 758 l 772 807 l 678 900 l 343 900 l 242 800 l 242 611 l 590 611 l 590 543 l 242 543 l 242 418 l 590 418 l 590 351 l 242 351 l 242 174 l 343 72 l 678 72 l 772 165 l 772 214 l 853 214 l 853 140 l 713 0 l 307 0 l 161 146 l 161 351 l 49 351 l 49 418 l 161 418 l 161 543 l 49 543 l 49 611 l 161 611 l 161 826 l 307 972 l 713 972 l 853 832 l 853 758 l 772 758 z "},"ƒ":{"ha":824,"x_min":56,"x_max":768,"o":"m 524 829 l 483 632 l 754 632 l 754 561 l 469 561 l 372 83 l 258 -31 l 56 -31 l 56 38 l 225 38 l 301 114 l 389 561 l 167 561 l 167 632 l 403 632 l 446 853 l 560 967 l 768 967 l 768 899 l 594 899 l 524 829 z "},"₲":{"ha":894,"x_min":104,"x_max":804,"o":"m 724 758 l 724 807 l 629 900 l 500 900 l 500 497 l 804 497 l 804 143 l 661 0 l 500 0 l 500 -153 l 425 -153 l 425 0 l 250 0 l 104 146 l 104 826 l 250 972 l 425 972 l 425 1125 l 500 1125 l 500 972 l 664 972 l 804 832 l 804 758 l 724 758 m 425 900 l 286 900 l 185 800 l 185 174 l 286 72 l 425 72 l 425 900 m 500 425 l 500 72 l 626 72 l 724 169 l 724 425 l 500 425 z "},"₤":{"ha":833,"x_min":83,"x_max":778,"o":"m 778 71 l 778 0 l 107 0 l 107 154 l 214 274 l 214 367 l 83 367 l 83 433 l 214 433 l 214 529 l 83 529 l 83 596 l 214 596 l 214 826 l 360 972 l 636 972 l 763 846 l 763 767 l 683 767 l 683 822 l 604 900 l 396 900 l 293 799 l 293 596 l 628 596 l 628 529 l 293 529 l 293 433 l 628 433 l 628 367 l 293 367 l 293 256 l 188 135 l 188 71 l 778 71 z "},"₺":{"ha":838,"x_min":83,"x_max":775,"o":"m 775 378 l 775 238 l 538 0 l 222 0 l 222 417 l 83 374 l 83 442 l 222 485 l 222 608 l 83 565 l 83 633 l 222 676 l 222 972 l 303 972 l 303 701 l 547 778 l 547 710 l 303 633 l 303 510 l 547 586 l 547 518 l 303 442 l 303 72 l 507 72 l 697 263 l 697 378 l 775 378 z "},"₦":{"ha":1053,"x_min":42,"x_max":1011,"o":"m 1011 457 l 871 457 l 871 0 l 792 0 l 504 457 l 260 457 l 260 0 l 185 0 l 185 457 l 42 457 l 42 524 l 185 524 l 185 972 l 264 972 l 546 524 l 796 524 l 796 972 l 871 972 l 871 524 l 1011 524 l 1011 457 m 463 524 l 263 842 l 260 842 l 260 524 l 463 524 m 796 457 l 589 457 l 793 132 l 796 132 l 796 457 z "},"₧":{"ha":1006,"x_min":42,"x_max":964,"o":"m 964 665 l 832 665 l 832 547 l 710 425 l 254 425 l 254 0 l 174 0 l 174 665 l 42 665 l 42 732 l 174 732 l 174 972 l 711 972 l 832 851 l 832 732 l 964 732 l 964 665 m 254 732 l 753 732 l 753 826 l 676 901 l 254 901 l 254 732 m 753 665 l 254 665 l 254 496 l 676 496 l 753 571 l 753 665 z "},"₱":{"ha":994,"x_min":42,"x_max":953,"o":"m 828 749 l 828 649 l 953 649 l 953 582 l 828 582 l 828 547 l 706 425 l 250 425 l 250 0 l 171 0 l 171 582 l 42 582 l 42 649 l 171 649 l 171 749 l 42 749 l 42 814 l 171 814 l 171 972 l 707 972 l 828 851 l 828 814 l 953 814 l 953 749 l 828 749 m 250 814 l 749 814 l 749 826 l 674 901 l 250 901 l 250 814 m 749 749 l 250 749 l 250 649 l 749 649 l 749 749 m 749 582 l 250 582 l 250 496 l 674 496 l 749 571 l 749 582 z "},"₽":{"ha":915,"x_min":42,"x_max":839,"o":"m 839 851 l 839 547 l 717 425 l 261 425 l 261 261 l 539 261 l 539 194 l 261 194 l 261 0 l 182 0 l 182 194 l 42 194 l 42 261 l 182 261 l 182 425 l 42 425 l 42 493 l 182 493 l 182 972 l 718 972 l 839 851 m 760 826 l 685 901 l 261 901 l 261 496 l 685 496 l 760 571 l 760 826 z "},"₹":{"ha":886,"x_min":83,"x_max":803,"o":"m 803 907 l 571 907 l 631 847 l 631 726 l 803 726 l 803 658 l 631 658 l 631 543 l 522 435 l 636 311 l 636 0 l 556 0 l 556 288 l 432 421 l 83 421 l 83 492 l 476 492 l 551 567 l 551 658 l 83 658 l 83 726 l 551 726 l 551 826 l 476 901 l 83 901 l 83 972 l 803 972 l 803 907 z "},"£":{"ha":833,"x_min":83,"x_max":778,"o":"m 778 71 l 778 0 l 107 0 l 107 154 l 214 274 l 214 450 l 83 450 l 83 518 l 214 518 l 214 826 l 360 972 l 636 972 l 763 846 l 763 767 l 683 767 l 683 822 l 604 900 l 396 900 l 293 799 l 293 518 l 628 518 l 628 450 l 293 450 l 293 256 l 188 135 l 188 71 l 778 71 z "},"¥":{"ha":794,"x_min":28,"x_max":767,"o":"m 458 444 l 656 444 l 656 378 l 438 378 l 438 250 l 656 250 l 656 182 l 438 182 l 438 0 l 357 0 l 357 182 l 146 182 l 146 250 l 357 250 l 357 378 l 146 378 l 146 444 l 336 444 l 28 972 l 114 972 l 396 482 l 399 482 l 681 972 l 767 972 l 458 444 z "},"∙":{"ha":471,"x_min":64,"x_max":408,"o":"m 64 329 l 64 478 l 157 575 l 314 575 l 408 478 l 408 329 l 314 232 l 157 232 l 64 329 z "},"∕":{"ha":161,"x_min":-219,"x_max":401,"o":"m 318 974 l 401 974 l -137 0 l -219 0 l 318 974 z "},"+":{"ha":738,"x_min":83,"x_max":654,"o":"m 654 332 l 408 332 l 408 88 l 331 88 l 331 332 l 83 332 l 83 401 l 331 401 l 331 646 l 408 646 l 408 401 l 654 401 l 654 332 z "},"−":{"ha":738,"x_min":83,"x_max":654,"o":"m 83 401 l 654 401 l 654 332 l 83 332 l 83 401 z "},"×":{"ha":656,"x_min":83,"x_max":572,"o":"m 376 367 l 572 171 l 524 122 l 328 318 l 133 122 l 83 171 l 279 367 l 83 563 l 132 611 l 328 415 l 524 611 l 572 563 l 376 367 z "},"÷":{"ha":738,"x_min":83,"x_max":654,"o":"m 306 538 l 306 592 l 343 628 l 396 628 l 433 592 l 433 538 l 396 500 l 343 500 l 306 538 m 83 401 l 654 401 l 654 332 l 83 332 l 83 401 m 306 143 l 306 197 l 343 235 l 397 235 l 433 197 l 433 143 l 397 106 l 343 106 l 306 143 z "},"=":{"ha":738,"x_min":83,"x_max":654,"o":"m 83 518 l 654 518 l 654 449 l 83 449 l 83 518 m 83 285 l 654 285 l 654 215 l 83 215 l 83 285 z "},"≠":{"ha":738,"x_min":83,"x_max":654,"o":"m 443 449 l 369 285 l 654 285 l 654 215 l 339 215 l 249 14 l 171 14 l 261 215 l 83 215 l 83 285 l 292 285 l 365 449 l 83 449 l 83 518 l 396 518 l 486 719 l 564 719 l 474 518 l 654 518 l 654 449 l 443 449 z "},">":{"ha":808,"x_min":83,"x_max":739,"o":"m 83 79 l 665 399 l 665 407 l 83 715 l 83 794 l 739 449 l 739 358 l 83 0 l 83 79 z "},"<":{"ha":808,"x_min":56,"x_max":711,"o":"m 56 358 l 56 449 l 711 794 l 711 715 l 129 407 l 129 399 l 711 79 l 711 0 l 56 358 z "},"≥":{"ha":808,"x_min":83,"x_max":739,"o":"m 83 210 l 667 479 l 667 488 l 83 746 l 83 821 l 739 528 l 739 438 l 83 133 l 83 210 m 83 69 l 739 69 l 739 0 l 83 0 l 83 69 z "},"≤":{"ha":808,"x_min":69,"x_max":725,"o":"m 69 438 l 69 528 l 725 821 l 725 746 l 142 488 l 142 479 l 725 210 l 725 133 l 69 438 m 69 0 l 69 69 l 725 69 l 725 0 l 69 0 z "},"±":{"ha":738,"x_min":83,"x_max":654,"o":"m 654 499 l 654 428 l 408 428 l 408 183 l 331 183 l 331 428 l 83 428 l 83 499 l 331 499 l 331 743 l 408 743 l 408 499 l 654 499 m 83 71 l 654 71 l 654 0 l 83 0 l 83 71 z "},"≈":{"ha":758,"x_min":83,"x_max":675,"o":"m 282 522 l 231 522 l 161 453 l 161 403 l 83 403 l 83 472 l 203 592 l 300 592 l 476 458 l 525 458 l 597 532 l 597 578 l 675 578 l 675 508 l 556 390 l 458 390 l 282 522 m 282 238 l 231 238 l 161 168 l 161 118 l 83 118 l 83 188 l 203 307 l 300 307 l 476 174 l 525 174 l 597 247 l 597 293 l 675 293 l 675 224 l 556 106 l 458 106 l 282 238 z "},"~":{"ha":769,"x_min":83,"x_max":686,"o":"m 286 410 l 232 410 l 161 339 l 161 290 l 83 290 l 83 360 l 203 481 l 306 481 l 483 346 l 535 346 l 608 419 l 608 467 l 686 467 l 686 396 l 567 276 l 464 276 l 286 410 z "},"¬":{"ha":735,"x_min":83,"x_max":651,"o":"m 575 446 l 83 446 l 83 517 l 651 517 l 651 203 l 575 203 l 575 446 z "},"^":{"ha":874,"x_min":83,"x_max":790,"o":"m 389 972 l 482 972 l 790 354 l 710 354 l 440 899 l 432 899 l 164 354 l 83 354 l 389 972 z "},"∞":{"ha":1263,"x_min":83,"x_max":1179,"o":"m 83 325 l 83 506 l 251 674 l 435 674 l 631 478 l 819 674 l 1011 674 l 1179 506 l 1179 325 l 1011 157 l 856 157 l 647 367 l 443 157 l 251 157 l 83 325 m 414 228 l 594 414 l 406 603 l 286 603 l 161 479 l 161 351 l 286 228 l 414 228 m 976 228 l 1101 353 l 1101 478 l 976 603 l 849 603 l 682 431 l 885 228 l 976 228 z "},"∫":{"ha":638,"x_min":0,"x_max":638,"o":"m 0 -107 l 114 -107 l 196 -26 l 368 853 l 483 967 l 638 967 l 638 899 l 522 899 l 444 821 l 267 -61 l 151 -175 l 0 -175 l 0 -107 z "},"∏":{"ha":924,"x_min":118,"x_max":806,"o":"m 118 972 l 806 972 l 806 -153 l 726 -153 l 726 903 l 197 903 l 197 -153 l 118 -153 l 118 972 z "},"∑":{"ha":785,"x_min":83,"x_max":729,"o":"m 83 -33 l 388 403 l 83 831 l 83 972 l 729 972 l 729 901 l 163 901 l 163 854 l 467 426 l 467 379 l 163 -57 l 163 -104 l 729 -104 l 729 -175 l 83 -175 l 83 -33 z "},"√":{"ha":806,"x_min":69,"x_max":764,"o":"m 179 339 l 69 339 l 69 408 l 236 408 l 347 96 l 356 96 l 683 972 l 764 972 l 394 0 l 307 0 l 179 339 z "},"∂":{"ha":778,"x_min":83,"x_max":694,"o":"m 83 121 l 83 478 l 204 599 l 494 599 l 617 489 l 617 610 l 443 904 l 288 904 l 288 972 l 489 972 l 694 619 l 694 121 l 574 0 l 204 0 l 83 121 m 540 71 l 615 146 l 615 400 l 474 528 l 238 528 l 163 453 l 163 146 l 238 71 l 540 71 z "},"%":{"ha":1126,"x_min":83,"x_max":1043,"o":"m 83 546 l 83 889 l 168 972 l 368 972 l 451 889 l 451 546 l 368 461 l 168 461 l 83 546 m 793 972 l 876 972 l 340 0 l 258 0 l 793 972 m 336 525 l 381 569 l 381 865 l 336 910 l 199 910 l 154 865 l 154 569 l 199 525 l 336 525 m 676 85 l 676 428 l 760 511 l 960 511 l 1043 428 l 1043 85 l 960 0 l 760 0 l 676 85 m 928 64 l 974 108 l 974 404 l 928 449 l 792 449 l 746 404 l 746 108 l 792 64 l 928 64 z "},"‰":{"ha":1601,"x_min":83,"x_max":1518,"o":"m 794 974 l 876 974 l 340 0 l 258 0 l 794 974 m 83 546 l 83 889 l 168 972 l 368 972 l 451 889 l 451 546 l 368 461 l 168 461 l 83 546 m 336 525 l 381 569 l 381 865 l 336 910 l 199 910 l 154 865 l 154 569 l 199 525 l 336 525 m 676 85 l 676 428 l 760 511 l 960 511 l 1043 428 l 1043 85 l 960 0 l 760 0 l 676 85 m 1150 85 l 1150 428 l 1235 511 l 1435 511 l 1518 428 l 1518 85 l 1435 0 l 1235 0 l 1150 85 m 928 64 l 974 108 l 974 404 l 928 449 l 792 449 l 746 404 l 746 108 l 792 64 l 928 64 m 1403 64 l 1447 108 l 1447 404 l 1403 449 l 1265 449 l 1221 404 l 1221 108 l 1265 64 l 1403 64 z "},"↑":{"ha":556,"x_min":83,"x_max":472,"o":"m 242 704 l 83 576 l 83 658 l 268 813 l 288 813 l 472 658 l 472 576 l 314 704 l 314 -47 l 242 -47 l 242 704 z "},"→":{"ha":1026,"x_min":83,"x_max":943,"o":"m 835 349 l 83 349 l 83 421 l 835 421 l 706 579 l 789 579 l 943 394 l 943 375 l 789 190 l 706 190 l 835 349 z "},"↓":{"ha":556,"x_min":83,"x_max":472,"o":"m 83 107 l 83 190 l 242 61 l 242 813 l 314 813 l 314 61 l 472 190 l 472 107 l 288 -47 l 268 -47 l 83 107 z "},"←":{"ha":1026,"x_min":83,"x_max":943,"o":"m 83 375 l 83 394 l 238 579 l 321 579 l 192 421 l 943 421 l 943 349 l 192 349 l 321 190 l 238 190 l 83 375 z "},"◆":{"ha":903,"x_min":83,"x_max":819,"o":"m 83 458 l 450 832 l 819 458 l 450 86 l 83 458 z "},"◊":{"ha":742,"x_min":83,"x_max":658,"o":"m 83 472 l 322 944 l 419 944 l 658 472 l 419 0 l 322 0 l 83 472 m 375 68 l 576 472 l 375 876 l 367 876 l 165 472 l 367 68 l 375 68 z "},"■":{"ha":833,"x_min":83,"x_max":750,"o":"m 83 838 l 750 838 l 750 165 l 83 165 l 83 838 z "},"▲":{"ha":972,"x_min":83,"x_max":889,"o":"m 486 817 l 889 0 l 83 0 l 486 817 z "},"▶":{"ha":974,"x_min":83,"x_max":890,"o":"m 83 814 l 890 406 l 83 -3 l 83 814 z "},"▼":{"ha":972,"x_min":83,"x_max":889,"o":"m 83 811 l 889 811 l 486 -7 l 83 811 z "},"◀":{"ha":974,"x_min":83,"x_max":890,"o":"m 83 406 l 890 814 l 890 -3 l 83 406 z "},"△":{"ha":972,"x_min":83,"x_max":889,"o":"m 486 817 l 889 0 l 83 0 l 486 817 m 783 63 l 486 679 l 189 63 l 783 63 z "},"▷":{"ha":979,"x_min":83,"x_max":896,"o":"m 83 811 l 896 406 l 83 -1 l 83 811 m 764 406 l 150 703 l 150 106 l 764 406 z "},"▽":{"ha":972,"x_min":83,"x_max":889,"o":"m 83 811 l 889 811 l 486 -7 l 83 811 m 783 749 l 189 749 l 486 132 l 783 749 z "},"◁":{"ha":979,"x_min":83,"x_max":896,"o":"m 83 406 l 896 811 l 896 -1 l 83 406 m 829 703 l 215 406 l 829 106 l 829 703 z "},"":{"ha":804,"x_min":118,"x_max":686,"o":"m 118 989 l 686 989 l 686 0 l 118 0 l 118 989 m 608 75 l 608 913 l 196 913 l 196 75 l 608 75 z "},"@":{"ha":1115,"x_min":83,"x_max":1032,"o":"m 701 199 l 701 257 l 600 154 l 433 154 l 314 275 l 314 529 l 435 650 l 639 650 l 704 586 l 704 650 l 774 650 l 774 224 l 868 224 l 954 310 l 954 607 l 742 821 l 383 821 l 160 600 l 160 217 l 379 -3 l 931 -3 l 931 -72 l 343 -72 l 83 188 l 83 628 l 349 890 l 776 890 l 1032 635 l 1032 288 l 899 154 l 746 154 l 701 199 m 699 504 l 619 582 l 463 582 l 390 510 l 390 296 l 464 224 l 585 224 l 699 340 l 699 504 z "},"&":{"ha":875,"x_min":97,"x_max":833,"o":"m 97 121 l 97 397 l 194 494 l 138 551 l 138 851 l 258 972 l 585 972 l 703 854 l 703 769 l 624 769 l 624 826 l 550 900 l 290 900 l 217 826 l 217 579 l 281 515 l 664 515 l 664 604 l 743 604 l 743 515 l 833 515 l 833 444 l 743 444 l 743 121 l 622 0 l 218 0 l 97 121 m 588 72 l 664 149 l 664 444 l 249 444 l 176 372 l 176 149 l 253 72 l 588 72 z "},"¶":{"ha":721,"x_min":83,"x_max":603,"o":"m 363 482 l 213 482 l 83 611 l 83 843 l 213 972 l 442 972 l 442 -282 l 363 -282 l 363 482 m 524 972 l 603 972 l 603 -282 l 524 -282 l 524 972 z "},"§":{"ha":714,"x_min":83,"x_max":631,"o":"m 631 358 l 550 278 l 610 217 l 610 40 l 503 -67 l 219 -67 l 113 40 l 113 122 l 190 122 l 190 64 l 253 3 l 469 3 l 532 64 l 532 196 l 475 251 l 188 251 l 83 356 l 83 547 l 164 628 l 104 688 l 104 865 l 211 972 l 496 972 l 603 865 l 603 783 l 525 783 l 525 842 l 463 904 l 244 904 l 182 842 l 182 713 l 239 656 l 524 656 l 631 549 l 631 358 m 553 526 l 490 589 l 224 589 l 161 526 l 161 382 l 224 319 l 490 319 l 553 381 l 553 526 z "},"©":{"ha":1147,"x_min":83,"x_max":1064,"o":"m 83 244 l 83 729 l 328 972 l 821 972 l 1064 729 l 1064 244 l 821 0 l 328 0 l 83 244 m 786 69 l 990 275 l 990 699 l 786 903 l 363 903 l 157 699 l 157 275 l 363 69 l 786 69 m 306 346 l 306 629 l 447 769 l 701 769 l 842 629 l 842 554 l 767 554 l 767 608 l 675 701 l 476 701 l 382 607 l 382 367 l 476 274 l 674 274 l 767 365 l 767 424 l 842 424 l 842 346 l 701 204 l 447 204 l 306 346 z "},"®":{"ha":729,"x_min":83,"x_max":646,"o":"m 83 558 l 83 811 l 239 965 l 492 965 l 646 811 l 646 558 l 492 403 l 239 403 l 83 558 m 464 460 l 585 581 l 585 788 l 464 908 l 267 908 l 144 788 l 144 581 l 267 460 l 464 460 m 256 831 l 433 831 l 488 776 l 488 704 l 447 665 l 489 619 l 489 547 l 433 547 l 433 604 l 399 643 l 311 643 l 311 547 l 256 547 l 256 831 m 408 692 l 431 715 l 431 757 l 408 781 l 311 781 l 311 692 l 408 692 z "},"℗":{"ha":1147,"x_min":83,"x_max":1064,"o":"m 83 244 l 83 729 l 328 972 l 821 972 l 1064 729 l 1064 244 l 821 0 l 328 0 l 83 244 m 786 69 l 990 275 l 990 699 l 786 903 l 363 903 l 157 699 l 157 275 l 363 69 l 786 69 m 358 764 l 740 764 l 844 660 l 844 476 l 740 372 l 435 372 l 435 204 l 358 204 l 358 764 m 711 439 l 769 497 l 769 639 l 711 696 l 433 696 l 433 439 l 711 439 z "},"™":{"ha":1049,"x_min":83,"x_max":972,"o":"m 229 906 l 83 906 l 83 972 l 450 972 l 450 906 l 304 906 l 304 488 l 229 488 l 229 906 m 519 972 l 596 972 l 746 636 l 747 636 l 897 972 l 972 972 l 972 488 l 900 488 l 900 825 l 899 825 l 771 549 l 721 549 l 593 825 l 592 825 l 592 488 l 519 488 l 519 972 z "},"°":{"ha":450,"x_min":83,"x_max":367,"o":"m 83 761 l 83 881 l 164 961 l 286 961 l 367 881 l 367 761 l 286 681 l 164 681 l 83 761 m 261 742 l 304 785 l 304 858 l 261 901 l 189 901 l 146 858 l 146 785 l 189 742 l 261 742 z "},"′":{"ha":283,"x_min":83,"x_max":214,"o":"m 136 972 l 214 972 l 150 714 l 83 714 l 136 972 z "},"″":{"ha":449,"x_min":83,"x_max":379,"o":"m 136 972 l 214 972 l 150 714 l 83 714 l 136 972 m 301 972 l 379 972 l 315 714 l 249 714 l 301 972 z "},"|":{"ha":315,"x_min":118,"x_max":197,"o":"m 118 1175 l 197 1175 l 197 -283 l 118 -283 l 118 1175 z "},"¦":{"ha":315,"x_min":118,"x_max":197,"o":"m 118 1175 l 197 1175 l 197 596 l 118 596 l 118 1175 m 118 324 l 197 324 l 197 -283 l 118 -283 l 118 324 z "},"ℓ":{"ha":644,"x_min":21,"x_max":561,"o":"m 561 178 l 561 107 l 454 0 l 260 0 l 153 107 l 153 374 l 53 322 l 21 381 l 153 449 l 153 865 l 260 972 l 449 972 l 556 865 l 556 583 l 231 414 l 231 131 l 293 69 l 421 69 l 483 131 l 483 178 l 561 178 m 231 489 l 478 617 l 478 842 l 415 904 l 293 904 l 231 842 l 231 489 z "},"†":{"ha":692,"x_min":83,"x_max":608,"o":"m 307 622 l 83 622 l 83 692 l 307 692 l 307 935 l 386 935 l 385 692 l 608 692 l 608 622 l 385 622 l 385 -139 l 307 -139 l 307 622 z "},"‡":{"ha":692,"x_min":83,"x_max":608,"o":"m 385 622 l 385 175 l 608 175 l 608 104 l 385 104 l 385 -139 l 307 -139 l 307 104 l 83 104 l 83 175 l 307 175 l 307 622 l 83 622 l 83 692 l 307 692 l 307 935 l 385 935 l 385 692 l 608 692 l 608 622 l 385 622 z "},"℮":{"ha":1106,"x_min":76,"x_max":1029,"o":"m 569 -14 q 317 45 429 -14 q 140 210 204 104 q 76 454 76 317 q 140 698 76 592 q 313 863 203 804 q 560 922 422 922 q 800 867 693 922 q 968 710 907 811 q 1029 476 1029 608 l 1029 453 l 278 453 l 278 132 q 394 56 314 85 q 569 28 475 28 q 777 75 679 28 q 928 200 875 122 l 979 200 q 810 45 922 104 q 569 -14 697 -14 m 844 496 l 844 785 q 728 853 806 826 q 560 881 650 881 q 396 856 474 881 q 278 790 318 831 l 278 496 l 844 496 z "},"℠":{"ha":1068,"x_min":83,"x_max":985,"o":"m 83 560 l 83 617 l 158 617 l 158 582 l 185 554 l 344 554 l 372 582 l 372 674 l 346 701 l 157 701 l 85 772 l 85 901 l 156 972 l 371 972 l 442 901 l 442 843 l 368 843 l 368 879 l 340 906 l 188 906 l 160 879 l 160 796 l 188 768 l 376 768 l 447 696 l 447 561 l 375 488 l 156 488 l 83 560 m 532 972 l 608 972 l 758 636 l 760 636 l 910 972 l 985 972 l 985 488 l 913 488 l 913 825 l 911 825 l 783 549 l 733 549 l 606 825 l 604 825 l 604 488 l 532 488 l 532 972 z "},"ʼ":{"ha":292,"x_min":82,"x_max":201,"o":"m 135 842 l 117 842 l 82 876 l 82 928 l 117 961 l 168 961 l 201 928 l 201 842 l 140 674 l 92 674 l 135 842 z "},"ʻ":{"ha":335,"x_min":124,"x_max":243,"o":"m 190 900 l 208 900 l 243 867 l 243 815 l 208 781 l 157 781 l 124 815 l 124 900 l 185 1068 l 233 1068 l 190 900 z "},"ˉ":{"ha":683,"x_min":133,"x_max":551,"o":"m 133 857 l 551 857 l 551 799 l 133 799 l 133 857 z "},"ˋ":{"ha":0,"x_min":-139,"x_max":125,"o":"m -139 994 l -46 994 l 125 782 l 47 782 l -139 994 z "},"ʿ":{"ha":0,"x_min":-96,"x_max":36,"o":"m -96 831 l -96 940 l -21 1015 l 36 1015 l 36 957 l 3 957 l -35 919 l -35 851 l 3 815 l 36 815 l 36 757 l -21 757 l -96 831 z "},"ʾ":{"ha":0,"x_min":-36,"x_max":96,"o":"m -36 815 l -3 815 l 35 851 l 35 919 l -3 957 l -36 957 l -36 1015 l 21 1015 l 96 940 l 96 831 l 21 757 l -36 757 l -36 815 z "},"ˊ":{"ha":0,"x_min":-139,"x_max":125,"o":"m 32 994 l 125 994 l -61 782 l -139 782 l 32 994 z "},"ˌ":{"ha":0,"x_min":-39,"x_max":39,"o":"m -39 -58 l 39 -58 l 39 -249 l -39 -249 l -39 -58 z "},"ˈ":{"ha":0,"x_min":-39,"x_max":39,"o":"m -39 1008 l 39 1008 l 39 818 l -39 818 l -39 1008 z "},"̈":{"ha":0,"x_min":-190,"x_max":190,"o":"m -190 838 l -190 888 l -157 919 l -107 919 l -76 888 l -76 838 l -107 806 l -157 806 l -190 838 m 76 838 l 76 888 l 107 919 l 157 919 l 190 888 l 190 838 l 157 806 l 107 806 l 76 838 z "},"̇":{"ha":0,"x_min":-58,"x_max":57,"o":"m -58 833 l -58 885 l -28 917 l 25 917 l 57 885 l 57 833 l 25 801 l -28 801 l -58 833 z "},"̀":{"ha":0,"x_min":-162,"x_max":33,"o":"m -162 997 l -71 997 l 33 785 l -42 785 l -162 997 z "},"́":{"ha":0,"x_min":-35,"x_max":160,"o":"m 69 997 l 160 997 l 39 785 l -35 785 l 69 997 z "},"̋":{"ha":0,"x_min":-136,"x_max":258,"o":"m -31 997 l 58 997 l -64 785 l -136 785 l -31 997 m 171 997 l 258 997 l 138 785 l 64 785 l 171 997 z "},"̂":{"ha":0,"x_min":-171,"x_max":171,"o":"m -42 969 l 42 969 l 171 785 l 94 785 l 4 917 l -4 917 l -94 785 l -171 785 l -42 969 z "},"̌":{"ha":0,"x_min":-171,"x_max":171,"o":"m -171 969 l -94 969 l -4 839 l 4 839 l 94 969 l 171 969 l 42 785 l -42 785 l -171 969 z "},"̆":{"ha":0,"x_min":-179,"x_max":179,"o":"m -179 881 l -179 957 l -112 957 l -112 901 l -56 844 l 56 844 l 113 901 l 113 957 l 179 957 l 179 881 l 85 785 l -83 785 l -179 881 z "},"̊":{"ha":0,"x_min":-131,"x_max":131,"o":"m -131 846 l -131 956 l -57 1029 l 57 1029 l 131 956 l 131 846 l 57 771 l -57 771 l -131 846 m 35 828 l 72 865 l 72 935 l 35 972 l -35 972 l -72 935 l -72 865 l -35 828 l 35 828 z "},"̃":{"ha":0,"x_min":-178,"x_max":176,"o":"m -57 868 l -85 868 l -112 840 l -112 807 l -178 807 l -178 858 l -111 925 l -33 925 l 56 856 l 85 856 l 113 883 l 113 918 l 176 918 l 176 865 l 110 799 l 33 799 l -57 868 z "},"̄":{"ha":0,"x_min":-182,"x_max":182,"o":"m -182 874 l 182 874 l 182 810 l -182 810 l -182 874 z "}}}
